<svg width="518" height="231" xmlns="http://www.w3.org/2000/svg" xmlns:xlink="http://www.w3.org/1999/xlink" xml:space="preserve" overflow="hidden"><defs><linearGradient x1="43.2783" y1="111.12" x2="43.2783" y2="119.308" gradientUnits="userSpaceOnUse" spreadMethod="reflect" id="fill0"><stop offset="0" stop-color="#9B9B9B" stop-opacity="1"/><stop offset="0.5" stop-color="#8E8E8E" stop-opacity="1"/><stop offset="1" stop-color="#797979" stop-opacity="1"/></linearGradient><linearGradient x1="159.077" y1="111.12" x2="159.077" y2="119.308" gradientUnits="userSpaceOnUse" spreadMethod="reflect" id="fill1"><stop offset="0" stop-color="#9B9B9B" stop-opacity="1"/><stop offset="0.5" stop-color="#8E8E8E" stop-opacity="1"/><stop offset="1" stop-color="#797979" stop-opacity="1"/></linearGradient><linearGradient x1="300.901" y1="111.12" x2="300.901" y2="119.308" gradientUnits="userSpaceOnUse" spreadMethod="reflect" id="fill2"><stop offset="0" stop-color="#9B9B9B" stop-opacity="1"/><stop offset="0.5" stop-color="#8E8E8E" stop-opacity="1"/><stop offset="1" stop-color="#797979" stop-opacity="1"/></linearGradient><linearGradient x1="4.38631" y1="-5.19444e-16" x2="4.38631" y2="8.18778" gradientUnits="userSpaceOnUse" spreadMethod="reflect" id="fill3"><stop offset="0" stop-color="#9B9B9B" stop-opacity="1"/><stop offset="0.5" stop-color="#8E8E8E" stop-opacity="1"/><stop offset="1" stop-color="#797979" stop-opacity="1"/></linearGradient></defs><g transform="translate(-14 -293)"><g><g><g><g><path d="M1.31589-1.43908e-06 1.31598 77.6377-1.31581 77.6377-1.31589 1.43908e-06ZM3.94776 76.3218 9.21009e-05 84.2172-3.9476 76.3218Z" fill="#000000" fill-rule="nonzero" fill-opacity="1" transform="matrix(1 0 0 -1.00324 43.3648 387.584)"/><path d="M44.8866 113.167 44.8867 190.805 42.2549 190.805 42.2548 113.167ZM47.5184 189.489 43.5708 197.384 39.6231 189.489Z" fill="#000000" fill-rule="nonzero" fill-opacity="1" transform="matrix(1 0 0 1.00324 -0.205882 274.051)"/><path d="M39.1844 115.214C39.1844 112.953 41.0173 111.12 43.2783 111.12 45.5393 111.12 47.3722 112.953 47.3722 115.214 47.3722 117.475 45.5393 119.308 43.2783 119.308 41.0173 119.308 39.1844 117.475 39.1844 115.214Z" stroke="#000000" stroke-width="1.16968" stroke-linecap="butt" stroke-linejoin="miter" stroke-miterlimit="8" stroke-opacity="1" fill="url(#fill0)" fill-rule="evenodd" transform="matrix(1 0 0 1.00324 -0.205882 274.051)"/><path d="M1.31589-1.43908e-06 1.31598 77.6377-1.31581 77.6377-1.31589 1.43908e-06ZM3.94776 76.3218 9.21009e-05 84.2172-3.9476 76.3218Z" fill="#000000" fill-rule="nonzero" fill-opacity="1" transform="matrix(1 0 0 -1.00324 159.163 387.584)"/><path d="M160.685 113.167 160.685 190.805 158.053 190.805 158.053 113.167ZM163.317 189.489 159.369 197.384 155.422 189.489Z" fill="#000000" fill-rule="nonzero" fill-opacity="1" transform="matrix(1 0 0 1.00324 -0.205882 274.051)"/><path d="M3.59769e-06-1.31589 27.1074-1.31582 27.1074 1.31597-3.59769e-06 1.31589ZM25.7915-3.94761 33.6869 9.21009e-05 25.7915 3.94775Z" fill="#000000" fill-rule="nonzero" fill-opacity="1" transform="matrix(1 0 0 -1.00324 159.163 390.518)"/><path d="M3.59769e-06-1.31589 27.1074-1.31582 27.1074 1.31597-3.59769e-06 1.31589ZM25.7915-3.94761 33.6869 9.21009e-05 25.7915 3.94775Z" fill="#000000" fill-rule="nonzero" fill-opacity="1" transform="matrix(-1 1.22861e-16 1.22465e-16 1.00324 158.345 390.518)"/><path d="M154.983 115.214C154.983 112.953 156.816 111.12 159.077 111.12 161.338 111.12 163.171 112.953 163.171 115.214 163.171 117.475 161.338 119.308 159.077 119.308 156.816 119.308 154.983 117.475 154.983 115.214Z" stroke="#000000" stroke-width="1.16968" stroke-linecap="butt" stroke-linejoin="miter" stroke-miterlimit="8" stroke-opacity="1" fill="url(#fill1)" fill-rule="evenodd" transform="matrix(1 0 0 1.00324 -0.205882 274.051)"/><path d="M1.31589-1.43908e-06 1.31598 77.6377-1.31581 77.6377-1.31589 1.43908e-06ZM3.94776 76.3218 9.21009e-05 84.2172-3.9476 76.3218Z" fill="#000000" fill-rule="nonzero" fill-opacity="1" transform="matrix(1 0 0 -1.00324 300.695 387.584)"/><path d="M302.217 113.167 302.217 190.805 299.585 190.805 299.585 113.167ZM304.849 189.489 300.901 197.384 296.953 189.489Z" fill="#000000" fill-rule="nonzero" fill-opacity="1" transform="matrix(1 0 0 1.00324 -0.205882 274.051)"/><path d="M300.901 114.775 369.86 114.775 369.86 117.407 300.901 117.407ZM368.544 112.143 376.44 116.091 368.544 120.039Z" fill="#000000" fill-rule="nonzero" fill-opacity="1" transform="matrix(1 0 0 1.00324 -0.205882 274.051)"/><path d="M3.59769e-06-1.31589 27.1074-1.31582 27.1074 1.31597-3.59769e-06 1.31589ZM25.7915-3.94761 33.6869 9.21009e-05 25.7915 3.94775Z" fill="#000000" fill-rule="nonzero" fill-opacity="1" transform="matrix(-1 1.22861e-16 1.22465e-16 1.00324 299.876 390.518)"/><path d="M296.515 115.214C296.515 112.953 298.479 111.12 300.901 111.12 303.323 111.12 305.287 112.953 305.287 115.214 305.287 117.475 303.323 119.308 300.901 119.308 298.479 119.308 296.515 117.475 296.515 115.214Z" stroke="#000000" stroke-width="1.16968" stroke-linecap="butt" stroke-linejoin="miter" stroke-miterlimit="8" stroke-opacity="1" fill="url(#fill2)" fill-rule="evenodd" transform="matrix(1 0 0 1.00324 -0.205882 274.051)"/><path d="M487.319 113.167 487.319 35.5291 489.951 35.5291 489.951 113.167ZM484.687 36.845 488.635 28.9497 492.583 36.845Z" fill="#000000" fill-rule="nonzero" fill-opacity="1" transform="matrix(1 0 0 1.00324 -0.205882 274.051)"/><path d="M1.31589-1.43908e-06 1.31598 77.6377-1.31581 77.6377-1.31589 1.43908e-06ZM3.94776 76.3218 9.21009e-05 84.2172-3.9476 76.3218Z" fill="#000000" fill-rule="nonzero" fill-opacity="1" transform="matrix(-1 0 0 1.00324 488.429 387.584)"/><path d="M1.60441e-06-1.31589 68.9593-1.31581 68.9593 1.31598-1.60441e-06 1.31589ZM67.6434-3.9476 75.5387 9.21009e-05 67.6434 3.94776Z" fill="#000000" fill-rule="nonzero" fill-opacity="1" transform="matrix(-1 0 0 1.00324 487.939 390.518)"/><path d="M489.22 114.775 516.327 114.775 516.327 117.407 489.22 117.407ZM515.012 112.143 522.907 116.091 515.012 120.039Z" fill="#000000" fill-rule="nonzero" fill-opacity="1" transform="matrix(1 0 0 1.00324 -0.205882 274.051)"/><path d="M0 4.09389C-1.11687e-15 1.8329 1.96382 -5.21207e-16 4.38631 -5.21207e-16 6.80878-1.04242e-15 8.77262 1.8329 8.77262 4.09389 8.77262 6.35489 6.80878 8.18778 4.38631 8.18778 1.96382 8.18778-2.23374e-15 6.35489 0 4.09389Z" stroke="#000000" stroke-width="1.16968" stroke-linecap="butt" stroke-linejoin="miter" stroke-miterlimit="8" stroke-opacity="1" fill="url(#fill3)" fill-rule="evenodd" transform="matrix(-1 0 0 1.00324 492.231 385.531)"/><text fill="#000000" fill-opacity="1" font-family="Times New Roman,Times New Roman_MSFontService,sans-serif" font-style="normal" font-variant="normal" font-weight="400" font-stretch="normal" font-size="40" text-anchor="start" direction="ltr" writing-mode="lr-tb" unicode-bidi="normal" text-decoration="none" transform="matrix(0.584842 0 0 0.586735 29.1776 502)">(1)</text><text fill="#000000" fill-opacity="1" font-family="Times New Roman,Times New Roman_MSFontService,sans-serif" font-style="normal" font-variant="normal" font-weight="400" font-stretch="normal" font-size="40" text-anchor="start" direction="ltr" writing-mode="lr-tb" unicode-bidi="normal" text-decoration="none" transform="matrix(0.584842 0 0 0.586735 145.171 504)">(2)</text><text fill="#000000" fill-opacity="1" font-family="Times New Roman,Times New Roman_MSFontService,sans-serif" font-style="normal" font-variant="normal" font-weight="400" font-stretch="normal" font-size="40" text-anchor="start" direction="ltr" writing-mode="lr-tb" unicode-bidi="normal" text-decoration="none" transform="matrix(0.584842 0 0 0.586735 286.768 504)">(3)</text><text fill="#000000" fill-opacity="1" font-family="Times New Roman,Times New Roman_MSFontService,sans-serif" font-style="normal" font-variant="normal" font-weight="400" font-stretch="normal" font-size="40" text-anchor="start" direction="ltr" writing-mode="lr-tb" unicode-bidi="normal" text-decoration="none" transform="matrix(0.584842 0 0 0.586735 474.928 501)">(4)</text></g></g></g></g></g></svg>