<?xml version="1.0" encoding="UTF-8" standalone="no"?>
<!-- Created with Inkscape (http://www.inkscape.org/) -->

<svg
   xmlns:dc="http://purl.org/dc/elements/1.1/"
   xmlns:cc="http://creativecommons.org/ns#"
   xmlns:rdf="http://www.w3.org/1999/02/22-rdf-syntax-ns#"
   xmlns:svg="http://www.w3.org/2000/svg"
   xmlns="http://www.w3.org/2000/svg"
   xmlns:sodipodi="http://sodipodi.sourceforge.net/DTD/sodipodi-0.dtd"
   xmlns:inkscape="http://www.inkscape.org/namespaces/inkscape"
   width="70.884109"
   height="139.0041"
   viewBox="0 0 18.754754 36.77817"
   version="1.1"
   id="svg8"
   inkscape:version="0.92.4 (5da689c313, 2019-01-14)"
   sodipodi:docname="CD_L.svg">
  <defs
     id="defs2">
    <marker
       inkscape:stockid="Arrow1Mend"
       orient="auto"
       refY="0"
       refX="0"
       id="Arrow1Mend-6"
       style="overflow:visible"
       inkscape:isstock="true">
      <path
         inkscape:connector-curvature="0"
         id="path963-1"
         d="M 0,0 5,-5 -12.5,0 5,5 Z"
         style="fill:#000000;fill-opacity:1;fill-rule:evenodd;stroke:#000000;stroke-width:1.00000003pt;stroke-opacity:1"
         transform="matrix(-0.4,0,0,-0.4,-4,0)" />
    </marker>
  </defs>
  <sodipodi:namedview
     id="base"
     pagecolor="#ffffff"
     bordercolor="#666666"
     borderopacity="1.0"
     inkscape:pageopacity="0.0"
     inkscape:pageshadow="2"
     inkscape:zoom="3.959798"
     inkscape:cx="-15.576872"
     inkscape:cy="86.341553"
     inkscape:document-units="mm"
     inkscape:current-layer="layer1"
     showgrid="false"
     units="px"
     fit-margin-top="0"
     fit-margin-left="0"
     fit-margin-right="0"
     fit-margin-bottom="0"
     inkscape:window-width="1920"
     inkscape:window-height="1001"
     inkscape:window-x="1911"
     inkscape:window-y="-9"
     inkscape:window-maximized="1" />
  <metadata
     id="metadata5">
    <rdf:RDF>
      <cc:Work
         rdf:about="">
        <dc:format>image/svg+xml</dc:format>
        <dc:type
           rdf:resource="http://purl.org/dc/dcmitype/StillImage" />
        <dc:title></dc:title>
      </cc:Work>
    </rdf:RDF>
  </metadata>
  <g
     inkscape:label="Layer 1"
     inkscape:groupmode="layer"
     id="layer1"
     transform="translate(21.956565,-113.51813)">
    <text
       xml:space="preserve"
       style="font-size:4.93888855px;line-height:1.25;font-family:'Book Antiqua';-inkscape-font-specification:'Book Antiqua';letter-spacing:0px;word-spacing:0px;stroke-width:0.26458332"
       x="-22.10367"
       y="150.23119"
       id="text843-4"><tspan
         sodipodi:role="line"
         x="-22.10367"
         y="150.23119"
         style="stroke-width:0.26458332"
         id="tspan865">Inductor</tspan></text>
    <path
       style="fill:none;stroke:#000000;stroke-width:1;stroke-linecap:butt;stroke-linejoin:miter;stroke-miterlimit:4;stroke-dasharray:none;stroke-opacity:1"
       d="M -14.116164,139.44328 V 113.51813"
       id="path4580-6"
       inkscape:connector-curvature="0" />
    <rect
       style="opacity:1;fill:#ffffff;fill-opacity:1;stroke:none;stroke-width:1.90535402;stroke-miterlimit:4;stroke-dasharray:none;stroke-dashoffset:0;stroke-opacity:1"
       id="rect912"
       width="11.826676"
       height="17.367678"
       x="-20.224136"
       y="118.23208" />
    <path
       style="opacity:1;fill:#ffffff;fill-opacity:1;stroke:#000000;stroke-width:1;stroke-miterlimit:4;stroke-dasharray:none;stroke-dashoffset:0;stroke-opacity:1"
       id="path4684"
       sodipodi:type="arc"
       sodipodi:cx="-13.760293"
       sodipodi:cy="122.43347"
       sodipodi:rx="3.5730371"
       sodipodi:ry="1.7865186"
       sodipodi:start="0"
       sodipodi:end="4.1887902"
       d="m -10.187256,122.43347 a 3.5730371,1.7865186 0 0 1 -2.952586,1.75938 3.5730371,1.7865186 0 0 1 -3.978008,-1.14835 3.5730371,1.7865186 0 0 1 1.571038,-2.1582"
       sodipodi:open="true" />
    <path
       style="opacity:1;fill:#ffffff;fill-opacity:1;stroke:#000000;stroke-width:1;stroke-miterlimit:4;stroke-dasharray:none;stroke-dashoffset:0;stroke-opacity:1"
       id="path4684-4"
       sodipodi:type="arc"
       sodipodi:cx="-117.72617"
       sodipodi:cy="13.146968"
       sodipodi:rx="3.5730374"
       sodipodi:ry="1.7865187"
       sodipodi:start="3.1415927"
       sodipodi:end="4.712389"
       d="m -121.29921,13.146968 a 3.5730374,1.7865187 0 0 1 3.57304,-1.786519"
       sodipodi:open="true"
       transform="matrix(0.02346,-0.99972478,-0.99972478,-0.02346,0,0)" />
    <path
       style="opacity:1;fill:none;fill-opacity:1;stroke:#000000;stroke-width:1;stroke-miterlimit:4;stroke-dasharray:none;stroke-dashoffset:0;stroke-opacity:1"
       id="path4684-9"
       sodipodi:type="arc"
       sodipodi:cx="-57.493366"
       sodipodi:cy="-110.56652"
       sodipodi:rx="3.5730371"
       sodipodi:ry="1.7865186"
       sodipodi:start="0"
       sodipodi:end="3.9269908"
       d="m -53.920329,-110.56652 a 3.5730371,1.7865186 0 0 1 -2.648267,1.72564 3.5730371,1.7865186 0 0 1 -4.019111,-0.83238 3.5730371,1.7865186 0 0 1 0.567822,-2.15652"
       sodipodi:open="true"
       transform="matrix(0.93192671,-0.36264667,-0.36264667,-0.93192671,0,0)" />
    <path
       style="opacity:1;fill:#ffffff;fill-opacity:1;stroke:#000000;stroke-width:1;stroke-miterlimit:4;stroke-dasharray:none;stroke-dashoffset:0;stroke-opacity:1"
       id="path4684-0"
       sodipodi:type="arc"
       sodipodi:cx="-13.760293"
       sodipodi:cy="124.37117"
       sodipodi:rx="3.5730371"
       sodipodi:ry="1.7865186"
       sodipodi:start="0"
       sodipodi:end="2.0943951"
       d="m -10.187256,124.37117 a 3.5730371,1.7865186 0 0 1 -1.786518,1.54717 3.5730371,1.7865186 0 0 1 -3.573038,0"
       sodipodi:open="true" />
    <path
       style="opacity:1;fill:none;fill-opacity:1;stroke:#000000;stroke-width:1;stroke-miterlimit:4;stroke-dasharray:none;stroke-dashoffset:0;stroke-opacity:1"
       id="path4684-9-6"
       sodipodi:type="arc"
       sodipodi:cx="-58.198013"
       sodipodi:cy="-112.37733"
       sodipodi:rx="3.5730371"
       sodipodi:ry="1.7865186"
       sodipodi:start="0"
       sodipodi:end="3.9269908"
       d="m -54.624976,-112.37733 a 3.5730371,1.7865186 0 0 1 -2.648267,1.72565 3.5730371,1.7865186 0 0 1 -4.019111,-0.83239 3.5730371,1.7865186 0 0 1 0.567822,-2.15652"
       sodipodi:open="true"
       transform="matrix(0.93192671,-0.36264667,-0.36264667,-0.93192671,0,0)" />
    <path
       style="opacity:1;fill:#ffffff;fill-opacity:1;stroke:#000000;stroke-width:1;stroke-miterlimit:4;stroke-dasharray:none;stroke-dashoffset:0;stroke-opacity:1"
       id="path4684-0-3"
       sodipodi:type="arc"
       sodipodi:cx="-13.760291"
       sodipodi:cy="126.31425"
       sodipodi:rx="3.5730371"
       sodipodi:ry="1.7865186"
       sodipodi:start="0"
       sodipodi:end="2.0943951"
       d="m -10.187254,126.31425 a 3.5730371,1.7865186 0 0 1 -1.786519,1.54717 3.5730371,1.7865186 0 0 1 -3.573037,0"
       sodipodi:open="true" />
    <path
       style="opacity:1;fill:none;fill-opacity:1;stroke:#000000;stroke-width:1;stroke-miterlimit:4;stroke-dasharray:none;stroke-dashoffset:0;stroke-opacity:1"
       id="path4684-9-7"
       sodipodi:type="arc"
       sodipodi:cx="-58.923"
       sodipodi:cy="-114.24039"
       sodipodi:rx="3.5730371"
       sodipodi:ry="1.7865186"
       sodipodi:start="0"
       sodipodi:end="3.9269908"
       d="m -55.349963,-114.24039 a 3.5730371,1.7865186 0 0 1 -2.648267,1.72565 3.5730371,1.7865186 0 0 1 -4.019111,-0.83239 3.5730371,1.7865186 0 0 1 0.567822,-2.15652"
       sodipodi:open="true"
       transform="matrix(0.93192671,-0.36264667,-0.36264667,-0.93192671,0,0)" />
    <path
       style="opacity:1;fill:#ffffff;fill-opacity:1;stroke:#000000;stroke-width:1;stroke-miterlimit:4;stroke-dasharray:none;stroke-dashoffset:0;stroke-opacity:1"
       id="path4684-0-0"
       sodipodi:type="arc"
       sodipodi:cx="-13.760291"
       sodipodi:cy="128.31339"
       sodipodi:rx="3.5730371"
       sodipodi:ry="1.7865186"
       sodipodi:start="0"
       sodipodi:end="2.0943951"
       d="m -10.187254,128.31339 a 3.5730371,1.7865186 0 0 1 -1.786519,1.54717 3.5730371,1.7865186 0 0 1 -3.573037,0"
       sodipodi:open="true" />
    <path
       style="opacity:1;fill:none;fill-opacity:1;stroke:#000000;stroke-width:1;stroke-miterlimit:4;stroke-dasharray:none;stroke-dashoffset:0;stroke-opacity:1"
       id="path4684-9-4"
       sodipodi:type="arc"
       sodipodi:cx="-59.649933"
       sodipodi:cy="-116.10844"
       sodipodi:rx="3.5730371"
       sodipodi:ry="1.7865186"
       sodipodi:start="0"
       sodipodi:end="3.9269908"
       d="m -56.076896,-116.10844 a 3.5730371,1.7865186 0 0 1 -2.648267,1.72565 3.5730371,1.7865186 0 0 1 -4.019111,-0.83239 3.5730371,1.7865186 0 0 1 0.567822,-2.15652"
       sodipodi:open="true"
       transform="matrix(0.93192671,-0.36264667,-0.36264667,-0.93192671,0,0)" />
    <path
       style="opacity:1;fill:#ffffff;fill-opacity:1;stroke:#000000;stroke-width:1;stroke-miterlimit:4;stroke-dasharray:none;stroke-dashoffset:0;stroke-opacity:1"
       id="path4684-0-31"
       sodipodi:type="arc"
       sodipodi:cx="-13.760291"
       sodipodi:cy="130.31792"
       sodipodi:rx="3.5730371"
       sodipodi:ry="1.7865186"
       sodipodi:start="0"
       sodipodi:end="2.0943951"
       d="m -10.187254,130.31792 a 3.5730371,1.7865186 0 0 1 -1.786519,1.54717 3.5730371,1.7865186 0 0 1 -3.573037,0"
       sodipodi:open="true" />
    <path
       style="opacity:1;fill:none;fill-opacity:1;stroke:#000000;stroke-width:1;stroke-miterlimit:4;stroke-dasharray:none;stroke-dashoffset:0;stroke-opacity:1"
       id="path4684-9-2"
       sodipodi:type="arc"
       sodipodi:cx="-60.4011"
       sodipodi:cy="-118.03879"
       sodipodi:rx="3.5730371"
       sodipodi:ry="1.7865186"
       sodipodi:start="0"
       sodipodi:end="3.9269908"
       d="m -56.828063,-118.03879 a 3.5730371,1.7865186 0 0 1 -2.648267,1.72565 3.5730371,1.7865186 0 0 1 -4.019111,-0.83239 3.5730371,1.7865186 0 0 1 0.567822,-2.15652"
       sodipodi:open="true"
       transform="matrix(0.93192671,-0.36264667,-0.36264667,-0.93192671,0,0)" />
    <path
       style="opacity:1;fill:#ffffff;fill-opacity:1;stroke:#000000;stroke-width:0.99999994;stroke-miterlimit:4;stroke-dasharray:none;stroke-dashoffset:0;stroke-opacity:1"
       id="path4684-4-4"
       sodipodi:type="arc"
       sodipodi:cx="137.08379"
       sodipodi:cy="18.943464"
       sodipodi:rx="3.5730374"
       sodipodi:ry="1.7865187"
       sodipodi:start="3.1415927"
       sodipodi:end="4.3209161"
       d="m 133.51075,18.943464 a 3.5730374,1.7865187 0 0 1 2.20974,-1.651365"
       sodipodi:open="true"
       transform="rotate(88.655718)" />
  </g>
</svg>
