<?xml version="1.0" encoding="UTF-8" standalone="no"?>
<!-- Created with Inkscape (http://www.inkscape.org/) -->

<svg
   xmlns:dc="http://purl.org/dc/elements/1.1/"
   xmlns:cc="http://creativecommons.org/ns#"
   xmlns:rdf="http://www.w3.org/1999/02/22-rdf-syntax-ns#"
   xmlns:svg="http://www.w3.org/2000/svg"
   xmlns="http://www.w3.org/2000/svg"
   xmlns:sodipodi="http://sodipodi.sourceforge.net/DTD/sodipodi-0.dtd"
   xmlns:inkscape="http://www.inkscape.org/namespaces/inkscape"
   id="svg2"
   version="1.1"
   inkscape:version="0.92.4 (5da689c313, 2019-01-14)"
   width="100.9852"
   height="116.32473"
   xml:space="preserve"
   sodipodi:docname="Dog.svg"><metadata
     id="metadata8"><rdf:RDF><cc:Work
         rdf:about=""><dc:format>image/svg+xml</dc:format><dc:type
           rdf:resource="http://purl.org/dc/dcmitype/StillImage" /><dc:title></dc:title></cc:Work></rdf:RDF></metadata><defs
     id="defs6"><marker
   inkscape:stockid="Arrow2Mstart"
   orient="auto"
   refY="0"
   refX="0"
   id="Arrow2Mstart"
   style="overflow:visible"
   inkscape:isstock="true"><path
     id="path919"
     style="fill:#000000;fill-opacity:1;fill-rule:evenodd;stroke:#000000;stroke-width:0.625;stroke-linejoin:round;stroke-opacity:1"
     d="M 8.7185878,4.0337352 -2.2072895,0.01601326 8.7185884,-4.0017078 c -1.7454984,2.3720609 -1.7354408,5.6174519 -6e-7,8.035443 z"
     transform="scale(0.6)"
     inkscape:connector-curvature="0" /></marker><marker
   inkscape:stockid="Arrow2Mend"
   orient="auto"
   refY="0"
   refX="0"
   id="Arrow2Mend"
   style="overflow:visible"
   inkscape:isstock="true"><path
     id="path900"
     style="fill:#000000;fill-opacity:1;fill-rule:evenodd;stroke:#000000;stroke-width:0.625;stroke-linejoin:round;stroke-opacity:1"
     d="M 8.7185878,4.0337352 -2.2072895,0.01601326 8.7185884,-4.0017078 c -1.7454984,2.3720609 -1.7354408,5.6174519 -6e-7,8.035443 z"
     transform="scale(-0.6)"
     inkscape:connector-curvature="0" /></marker><marker
   inkscape:stockid="Arrow1Mend"
   orient="auto"
   refY="0"
   refX="0"
   id="marker1139"
   style="overflow:visible"
   inkscape:isstock="true"><path
     id="path1137"
     d="M 0,0 5,-5 -12.5,0 5,5 Z"
     style="fill:#000000;fill-opacity:1;fill-rule:evenodd;stroke:#000000;stroke-width:1.00000003pt;stroke-opacity:1"
     transform="matrix(-0.4,0,0,-0.4,-4,0)"
     inkscape:connector-curvature="0" /></marker><marker
   inkscape:stockid="Arrow1Mend"
   orient="auto"
   refY="0"
   refX="0"
   id="Arrow1Mend"
   style="overflow:visible"
   inkscape:isstock="true"><path
     id="path836"
     d="M 0,0 5,-5 -12.5,0 5,5 Z"
     style="fill:#000000;fill-opacity:1;fill-rule:evenodd;stroke:#000000;stroke-width:1.00000003pt;stroke-opacity:1"
     transform="matrix(-0.4,0,0,-0.4,-4,0)"
     inkscape:connector-curvature="0" /></marker><clipPath
   clipPathUnits="userSpaceOnUse"
   id="clipPath18"><path
     d="M 0,0 H 1677 V 937.891 H 0 Z"
     id="path20"
     inkscape:connector-curvature="0" /></clipPath><marker
   inkscape:stockid="Arrow1Mend"
   orient="auto"
   refY="0"
   refX="0"
   id="marker1139-6"
   style="overflow:visible"
   inkscape:isstock="true"><path
     id="path1137-2"
     d="M 0,0 5,-5 -12.5,0 5,5 Z"
     style="fill:#000000;fill-opacity:1;fill-rule:evenodd;stroke:#000000;stroke-width:1.00000003pt;stroke-opacity:1"
     transform="matrix(-0.4,0,0,-0.4,-4,0)"
     inkscape:connector-curvature="0" /></marker>



</defs><sodipodi:namedview
     pagecolor="#ffffff"
     bordercolor="#666666"
     borderopacity="1"
     objecttolerance="10"
     gridtolerance="10"
     guidetolerance="10"
     inkscape:pageopacity="0"
     inkscape:pageshadow="2"
     inkscape:window-width="1920"
     inkscape:window-height="1001"
     id="namedview4"
     showgrid="false"
     fit-margin-top="2"
     fit-margin-left="2"
     fit-margin-right="2"
     fit-margin-bottom="2"
     inkscape:zoom="2.0000001"
     inkscape:cx="-74.774127"
     inkscape:cy="95.689969"
     inkscape:window-x="1911"
     inkscape:window-y="-9"
     inkscape:window-maximized="1"
     inkscape:current-layer="g10"
     inkscape:lockguides="false" /><g
     id="g10"
     inkscape:groupmode="layer"
     inkscape:label="ink_ext_XXXXXX"
     transform="matrix(1.25,0,0,-1.25,212.12172,24.856436)">















<rect
   style="fill:#c8b7b7;fill-opacity:1;stroke:#000000;stroke-width:1.69413912;stroke-miterlimit:4;stroke-dasharray:none;stroke-opacity:1"
   id="rect876"
   width="75.89402"
   height="46.905087"
   x="-167.25031"
   y="24.222477"
   transform="scale(1,-1)" />


<path
   style="fill:#cf8b40;fill-opacity:1;stroke:#000000;stroke-width:1.60000002;stroke-miterlimit:4;stroke-dasharray:none"
   d="m -114.93668,-22.774461 c -0.63558,0.306532 -0.9,0.78508 -0.9,1.628832 0,0.657128 -0.2845,1.402803 -0.63221,1.657057 -0.34771,0.254253 -0.70343,1.084097 -0.79048,1.844097 -0.33769,2.948204 -0.87657,4.381817 -1.64706,4.381817 -0.59355,0 -0.58611,-0.111289 0.12211,-1.824922 0.0966,-0.233708 -0.32569,-0.683708 -0.93838,-1 -1.7488,-0.90279 -2.21821,-1.517724 -2.00599,-2.627875 0.16257,-0.850408 -0.002,-1.091496 -0.9811,-1.432625 l -1.17655,-0.41015 0.85491,-0.910015 c 0.51527,-0.548484 0.69271,-1.01026 0.44663,-1.162344 -0.61182,-0.378132 -13.68007,-0.201284 -13.44324,0.18192 0.37674,0.60958 -0.52636,0.796852 -4.88023,1.012004 -2.38063,0.11764 -4.95841,0.328708 -5.72841,0.469044 -0.77,0.140334 -2.07194,0.206181 -2.89321,0.146327 -1.26961,-0.09253 -1.56373,0.04598 -1.96421,0.924906 -0.25904,0.568552 -0.64136,1.033731 -0.84958,1.033731 -0.20823,0 -0.27237,0.276814 -0.14254,0.615142 0.13432,0.350026 -0.0196,0.713256 -0.3572,0.842795 -0.78375,0.300749 -0.74847,0.624611 0.1761,1.617026 0.84399,0.905922 2.5321,0.852618 3.6489,-0.115217 0.86168,-0.746741 5.52924,-2.798527 6.99821,-3.076305 1.29035,-0.244 4.01344,0.742344 4.85355,1.758025 0.25851,0.312537 0.85574,1.599201 1.32719,2.859253 1.28857,3.444014 4.73173,7.9335964 10.35293,13.49928003 6.15466,6.09389527 9.01933,9.55208427 9.91458,11.96872897 0.37311,1.007198 1.01278,2.318309 1.42147,2.913579 0.4087,0.595271 0.92368,1.600356 1.1444,2.233524 0.82571,2.368631 4.99852,3.247012 7.2961,1.535835 0.85571,-0.637313 2.04143,-1.022816 3.61542,-1.175444 1.28815,-0.124913 2.427739,-0.312748 2.532403,-0.417411 0.271632,-0.271633 -0.688283,-1.969053 -1.439853,-2.546092 -0.34907,-0.268003 -0.94967,-0.493003 -1.33466,-0.5 -1.04895,-0.01906 -0.84288,-0.690134 0.3,-0.976979 1.0823,-0.27164 1.30687,-1.0831 0.48787,-1.762813 -0.28167,-0.233764 -1.49667,-0.4808037 -2.7,-0.5489777 -2.01811,-0.114333 -2.19721,-0.20428 -2.3082,-1.159243 -0.0662,-0.569411 0.14773,-1.813324 0.47535,-2.764252 0.54784,-1.5900884 0.5363,-1.8453496 -0.14356,-3.1780035 -0.67608,-1.3251955 -0.69125,-1.6340915 -0.17763,-3.61415377 0.52843,-2.03716003 0.50973,-2.27276163 -0.31641,-3.98670483 -0.48292,-1.001876 -1.60689,-2.5067808 -2.49772,-3.344232 -0.89084,-0.8374523 -1.56984,-1.7692943 -1.50888,-2.0707612 0.0627,-0.310356 -0.28428,-0.604184 -0.8,-0.677361 -0.83373,-0.118299 -0.92096,-0.36363 -1.03068,-2.898464 -0.15048,-3.476896 0.38012,-4.862826 1.98456,-5.183716 1.73854,-0.347706 1.20624,-1.208971 -0.89576,-1.449346 l -1.76894,-0.202289 1.17046,-0.597711 c 1.49964,-0.765812 1.70788,-1.430056 0.54589,-1.74132 -1.2902,-0.345612 -2.37117,-0.272264 -3.41635,0.231804 z"
   id="path911"
   inkscape:connector-curvature="0" /></g></svg>