<?xml version="1.0" encoding="UTF-8" standalone="no"?>
<!-- Created with Inkscape (http://www.inkscape.org/) -->

<svg
   xmlns:dc="http://purl.org/dc/elements/1.1/"
   xmlns:cc="http://creativecommons.org/ns#"
   xmlns:rdf="http://www.w3.org/1999/02/22-rdf-syntax-ns#"
   xmlns:svg="http://www.w3.org/2000/svg"
   xmlns="http://www.w3.org/2000/svg"
   xmlns:sodipodi="http://sodipodi.sourceforge.net/DTD/sodipodi-0.dtd"
   xmlns:inkscape="http://www.inkscape.org/namespaces/inkscape"
   width="350mm"
   height="67.747391mm"
   viewBox="0 0 349.99999 67.74739"
   version="1.1"
   id="svg5"
   inkscape:version="0.92.4 (5da689c313, 2019-01-14)"
   sodipodi:docname="ExplanationSteps.svg"
   inkscape:export-filename="C:\Users\HP\OER\source\VectorGraphics\ExplanationSteps.png"
   inkscape:export-xdpi="96"
   inkscape:export-ydpi="96">
  <metadata
     id="metadata106">
    <rdf:RDF>
      <cc:Work
         rdf:about="">
        <dc:format>image/svg+xml</dc:format>
        <dc:type
           rdf:resource="http://purl.org/dc/dcmitype/StillImage" />
        <dc:title></dc:title>
      </cc:Work>
    </rdf:RDF>
  </metadata>
  <sodipodi:namedview
     id="namedview7"
     pagecolor="#ffffff"
     bordercolor="#666666"
     borderopacity="1.0"
     inkscape:pageshadow="2"
     inkscape:pageopacity="0.0"
     inkscape:pagecheckerboard="0"
     inkscape:document-units="mm"
     showgrid="false"
     fit-margin-top="0"
     fit-margin-left="0"
     fit-margin-right="0"
     fit-margin-bottom="0"
     inkscape:zoom="0.5"
     inkscape:cx="421.54775"
     inkscape:cy="158.28988"
     inkscape:window-width="1920"
     inkscape:window-height="1001"
     inkscape:window-x="-9"
     inkscape:window-y="-9"
     inkscape:window-maximized="1"
     inkscape:current-layer="layer1" />
  <defs
     id="defs2">
    <symbol
       id="u"
       overflow="visible"
       style="overflow:visible">
      <path
         d="m 18.766,-1.125 c -0.96875,0.5 -1.9805,0.875 -3.0312,1.125 -1.043,0.25781 -2.1367,0.39062 -3.2812,0.39062 -3.3984,0 -6.0898,-0.94531 -8.0781,-2.8438 -1.9922,-1.9062 -2.9844,-4.4844 -2.9844,-7.7344 0,-3.2578 0.99219,-5.8359 2.9844,-7.7344 1.9883,-1.9062 4.6797,-2.8594 8.0781,-2.8594 1.1445,0 2.2383,0.13281 3.2812,0.39062 1.0508,0.25 2.0625,0.625 3.0312,1.125 v 4.2188 c -0.98047,-0.65625 -1.9453,-1.1406 -2.8906,-1.4531 -0.94922,-0.3125 -1.9492,-0.46875 -3,-0.46875 -1.875,0 -3.3516,0.60547 -4.4219,1.8125 -1.0742,1.1992 -1.6094,2.8555 -1.6094,4.9688 0,2.1055 0.53516,3.7617 1.6094,4.9688 1.0703,1.1992 2.5469,1.7969 4.4219,1.7969 1.0508,0 2.0508,-0.14844 3,-0.45312 0.94531,-0.3125 1.9102,-0.80078 2.8906,-1.4688 z"
         id="path12322"
         inkscape:connector-curvature="0" />
    </symbol>
    <symbol
       id="c"
       overflow="visible"
       style="overflow:visible">
      <path
         d="m 13.734,-11.141 c -0.4375,-0.19531 -0.87109,-0.34375 -1.2969,-0.4375 -0.41797,-0.10156 -0.83984,-0.15625 -1.2656,-0.15625 -1.2617,0 -2.2305,0.40625 -2.9062,1.2188 -0.67969,0.80469 -1.0156,1.9531 -1.0156,3.4531 v 7.0625 H 2.3591 v -15.312 h 4.8906 v 2.5156 c 0.625,-1 1.3438,-1.7266 2.1562,-2.1875 0.82031,-0.46875 1.8008,-0.70312 2.9375,-0.70312 0.16406,0 0.34375,0.01172 0.53125,0.03125 0.19531,0.01172 0.47656,0.03906 0.84375,0.07813 z"
         id="path12325"
         inkscape:connector-curvature="0" />
    </symbol>
    <symbol
       id="a"
       overflow="visible"
       style="overflow:visible">
      <path
         d="m 17.641,-7.7031 v 1.4062 H 6.188 c 0.125,1.1484 0.53906,2.0078 1.25,2.5781 0.70703,0.57422 1.7031,0.85938 2.9844,0.85938 1.0312,0 2.082,-0.14844 3.1562,-0.45312 1.082,-0.3125 2.1914,-0.77344 3.3281,-1.3906 v 3.7656 c -1.1562,0.4375 -2.3125,0.76562 -3.4688,0.98438 -1.1562,0.22656 -2.3125,0.34375 -3.4688,0.34375 -2.7734,0 -4.9297,-0.70312 -6.4688,-2.1094 -1.5312,-1.4062 -2.2969,-3.3789 -2.2969,-5.9219 0,-2.5 0.75391,-4.4609 2.2656,-5.8906 1.5078,-1.4375 3.582,-2.1562 6.2188,-2.1562 2.4062,0 4.332,0.73047 5.7812,2.1875 1.4453,1.4492 2.1719,3.3828 2.1719,5.7969 z m -5.0312,-1.625 c 0,-0.92578 -0.27344,-1.6719 -0.8125,-2.2344 -0.54297,-0.57031 -1.25,-0.85938 -2.125,-0.85938 -0.94922,0 -1.7188,0.26562 -2.3125,0.79688 -0.5937,0.53126 -0.96484,1.2969 -1.1094,2.2969 z"
         id="path12328"
         inkscape:connector-curvature="0" />
    </symbol>
    <symbol
       id="j"
       overflow="visible"
       style="overflow:visible">
      <path
         d="m 9.2188,-6.8906 c -1.0234,0 -1.793,0.17188 -2.3125,0.51562 -0.51172,0.34375 -0.76562,0.85547 -0.76562,1.5312 0,0.625 0.20703,1.1172 0.625,1.4688 0.41406,0.34375 0.98828,0.51562 1.7188,0.51562 0.92578,0 1.7031,-0.32812 2.3281,-0.98438 0.63281,-0.66406 0.95312,-1.4922 0.95312,-2.4844 v -0.5625 z m 7.4688,-1.8438 V 0 h -4.9219 v -2.2656 c -0.65625,0.92969 -1.3984,1.6055 -2.2188,2.0312 -0.82422,0.41406 -1.8242,0.625 -3,0.625 -1.5859,0 -2.8711,-0.45703 -3.8594,-1.375 -0.99219,-0.92578 -1.4844,-2.1289 -1.4844,-3.6094 0,-1.7891 0.61328,-3.1016 1.8438,-3.9375 1.2383,-0.84375 3.1797,-1.2656 5.8281,-1.2656 h 2.8906 v -0.39062 c 0,-0.76953 -0.30859,-1.332 -0.92188,-1.6875 -0.61719,-0.36328 -1.5703,-0.54688 -2.8594,-0.54688 -1.0547,0 -2.0312,0.10547 -2.9375,0.3125 -0.89844,0.21094 -1.7305,0.52344 -2.5,0.9375 v -3.7344 c 1.0391,-0.25 2.0859,-0.44141 3.1406,-0.57812 1.0625,-0.13281 2.125,-0.20312 3.1875,-0.20312 2.7578,0 4.75,0.54688 5.9688,1.6406 1.2266,1.0859 1.8438,2.8555 1.8438,5.3125 z"
         id="path12331"
         inkscape:connector-curvature="0" />
    </symbol>
    <symbol
       id="d"
       overflow="visible"
       style="overflow:visible">
      <path
         d="m 7.7031,-19.656 v 4.3438 H 12.75 v 3.5 H 7.7031 v 6.5 c 0,0.71094 0.14062,1.1875 0.42188,1.4375 0.28126,0.25 0.83594,0.375 1.6719,0.375 h 2.5156 v 3.5 h -4.1875 c -1.9375,0 -3.3125,-0.39844 -4.125,-1.2031 -0.80469,-0.8125 -1.2031,-2.1797 -1.2031,-4.1094 v -6.5 h -2.4219 v -3.5 h 2.4219 v -4.3438 z"
         id="path12334"
         inkscape:connector-curvature="0" />
    </symbol>
    <symbol
       id="f"
       overflow="visible"
       style="overflow:visible">
      <path
         d="m 12.766,-13.078 v -8.2031 h 4.9219 V -1e-4 H 12.766 v -2.2188 c -0.66797,0.90625 -1.4062,1.5703 -2.2188,1.9844 -0.8126,0.4141 -1.7578,0.625 -2.8281,0.625 -1.8867,0 -3.4336,-0.75 -4.6406,-2.25 -1.2109,-1.5 -1.8125,-3.4258 -1.8125,-5.7812 0,-2.3633 0.60156,-4.2969 1.8125,-5.7969 1.207,-1.5 2.7539,-2.25 4.6406,-2.25 1.0625,0 2,0.21484 2.8125,0.64062 0.82031,0.42969 1.5664,1.0859 2.2344,1.9688 z m -3.2188,9.9219 c 1.0391,0 1.8359,-0.37891 2.3906,-1.1406 0.55078,-0.76953 0.82812,-1.8828 0.82812,-3.3438 0,-1.457 -0.27734,-2.5664 -0.82812,-3.3281 -0.55469,-0.76953 -1.3516,-1.1562 -2.3906,-1.1562 -1.043,0 -1.8398,0.38672 -2.3906,1.1562 -0.55469,0.76172 -0.82812,1.8711 -0.82812,3.3281 0,1.4609 0.27344,2.5742 0.82812,3.3438 0.55078,0.76172 1.3477,1.1406 2.3906,1.1406 z"
         id="path12337"
         inkscape:connector-curvature="0" />
    </symbol>
    <symbol
       id="i"
       overflow="visible"
       style="overflow:visible">
      <path
         d="m 10.5,-3.1562 c 1.0508,0 1.8516,-0.37891 2.4062,-1.1406 0.55078,-0.76953 0.82812,-1.8828 0.82812,-3.3438 0,-1.457 -0.27734,-2.5664 -0.82812,-3.3281 -0.55469,-0.76953 -1.3555,-1.1562 -2.4062,-1.1562 -1.0547,0 -1.8594,0.38672 -2.4219,1.1562 -0.55469,0.77344 -0.82812,1.8828 -0.82812,3.3281 0,1.4492 0.27344,2.5586 0.82812,3.3281 0.5625,0.77344 1.3672,1.1562 2.4219,1.1562 z m -3.25,-9.9219 c 0.67578,-0.88281 1.4219,-1.5391 2.2344,-1.9688 0.82031,-0.42578 1.7656,-0.64062 2.8281,-0.64062 1.8945,0 3.4453,0.75 4.6562,2.25 1.207,1.5 1.8125,3.4336 1.8125,5.7969 0,2.3555 -0.60547,4.2812 -1.8125,5.7812 -1.2109,1.5 -2.7617,2.25 -4.6562,2.25 -1.0625,0 -2.0078,-0.21094 -2.8281,-0.625 C 8.6719,-0.6602 7.9258,-1.32032 7.25,-2.21882 V -2e-5 H 2.3594 v -21.281 H 7.25 Z"
         id="path12340"
         inkscape:connector-curvature="0" />
    </symbol>
    <symbol
       id="h"
       overflow="visible"
       style="overflow:visible">
      <path
         d="m 0.34375,-15.312 h 4.8906 l 4.125,10.391 3.5,-10.391 h 4.8906 l -6.4375,16.766 c -0.64844,1.6953 -1.4023,2.8828 -2.2656,3.5625 -0.86719,0.6875 -2,1.0312 -3.4062,1.0312 H 2.79685 V 2.8289 h 1.5312 c 0.83203,0 1.4375,-0.13672 1.8125,-0.40625 C 6.52336,2.16093 6.82024,1.69218 7.03117,1.01645 L 7.17179,0.59457 Z"
         id="path12343"
         inkscape:connector-curvature="0" />
    </symbol>
    <symbol
       id="g"
       overflow="visible"
       style="overflow:visible">
      <path
         d="m 2.5781,-20.406 h 5.25 v 7.7656 h 7.7656 v -7.7656 h 5.2656 V 0 H 15.5937 V -8.6562 H 7.8281 V 0 h -5.25 z"
         id="path12346"
         inkscape:connector-curvature="0" />
    </symbol>
    <symbol
       id="e"
       overflow="visible"
       style="overflow:visible">
      <path
         d="M 2.3594,-21.281 H 7.25 V 0 H 2.3594 Z"
         id="path12349"
         inkscape:connector-curvature="0" />
    </symbol>
    <symbol
       id="b"
       overflow="visible"
       style="overflow:visible">
      <path
         d="m 9.6406,-12.188 c -1.0859,0 -1.9141,0.39062 -2.4844,1.1719 -0.57422,0.78125 -0.85938,1.9062 -0.85938,3.375 0,1.4688 0.28516,2.5938 0.85938,3.375 0.57031,0.77344 1.3984,1.1562 2.4844,1.1562 1.0625,0 1.875,-0.38281 2.4375,-1.1562 0.57031,-0.78125 0.85938,-1.9062 0.85938,-3.375 0,-1.4688 -0.28906,-2.5938 -0.85938,-3.375 -0.5625,-0.78125 -1.375,-1.1719 -2.4375,-1.1719 z m 0,-3.5 c 2.6328,0 4.6914,0.71484 6.1719,2.1406 1.4766,1.418 2.2188,3.3867 2.2188,5.9062 0,2.5117 -0.74219,4.4805 -2.2188,5.9062 C 14.332,-0.317 12.2734,0.39 9.6406,0.39 6.9922,0.39 4.9258,-0.31703 3.4375,-1.735 1.9453,-3.1608 1.2031,-5.1295 1.2031,-7.6412 c 0,-2.5195 0.74219,-4.4883 2.2344,-5.9062 1.4883,-1.4258 3.5547,-2.1406 6.2031,-2.1406 z"
         id="path12352"
         inkscape:connector-curvature="0" />
    </symbol>
    <symbol
       id="t"
       overflow="visible"
       style="overflow:visible">
      <path
         d="m 0.82812,-20.406 h 5.0469 l 3.5312,14.828 3.5,-14.828 h 5.0781 l 3.5,14.828 3.5156,-14.828 h 5.0156 L 25.20302,0 h -6.0781 L 15.42182,-15.516 11.76562,0 h -6.0781 z"
         id="path12355"
         inkscape:connector-curvature="0" />
    </symbol>
    <symbol
       id="s"
       overflow="visible"
       style="overflow:visible">
      <path
         d="m 12.422,-21.281 v 3.2188 H 9.7189 c -0.6875,0 -1.1719,0.125 -1.4531,0.375 -0.27344,0.25 -0.40625,0.6875 -0.40625,1.3125 v 1.0625 h 4.1875 v 3.5 H 7.85955 V -2e-4 h -4.8906 v -11.812 h -2.4375 v -3.5 h 2.4375 v -1.0625 c 0,-1.6641 0.46094,-2.8984 1.3906,-3.7031 0.92578,-0.80078 2.3672,-1.2031 4.3281,-1.2031 z"
         id="path12358"
         inkscape:connector-curvature="0" />
    </symbol>
    <symbol
       id="r"
       overflow="visible"
       style="overflow:visible">
      <path
         d="m 16.547,-12.766 c 0.61328,-0.94531 1.3477,-1.6719 2.2031,-2.1719 0.85156,-0.5 1.7891,-0.75 2.8125,-0.75 1.7578,0 3.0977,0.54688 4.0156,1.6406 0.92578,1.0859 1.3906,2.6562 1.3906,4.7188 V -4e-4 h -4.9219 v -7.9844 -0.35938 c 0.0078,-0.13281 0.01563,-0.32031 0.01563,-0.5625 0,-1.082 -0.16406,-1.8633 -0.48438,-2.3438 -0.3125,-0.48828 -0.82422,-0.73438 -1.5312,-0.73438 -0.92969,0 -1.6484,0.38672 -2.1562,1.1562 -0.51172,0.76172 -0.77344,1.8672 -0.78125,3.3125 v 7.5156 h -4.9219 v -7.9844 c 0,-1.6953 -0.14844,-2.7852 -0.4375,-3.2656 -0.29297,-0.48828 -0.8125,-0.73438 -1.5625,-0.73438 -0.9375,0 -1.6641,0.38672 -2.1719,1.1562 -0.51172,0.76172 -0.76562,1.8594 -0.76562,3.2969 v 7.5312 h -4.9219 v -15.312 h 4.9219 v 2.2344 c 0.60156,-0.86328 1.2891,-1.5156 2.0625,-1.9531 0.78125,-0.4375 1.6406,-0.65625 2.5781,-0.65625 1.0625,0 2,0.25781 2.8125,0.76562 0.8125,0.51172 1.4258,1.2305 1.8438,2.1562 z"
         id="path12361"
         inkscape:connector-curvature="0" />
    </symbol>
    <symbol
       id="q"
       overflow="visible"
       style="overflow:visible">
      <path
         d="M 17.75,-9.3281 V 0 h -4.9219 v -7.1094 c 0,-1.3438 -0.03125,-2.2656 -0.09375,-2.7656 -0.0625,-0.5 -0.16797,-0.86719 -0.3125,-1.1094 -0.1875,-0.3125 -0.44922,-0.55469 -0.78125,-0.73438 -0.32422,-0.17578 -0.69531,-0.26562 -1.1094,-0.26562 -1.0234,0 -1.8242,0.39844 -2.4062,1.1875 -0.58594,0.78125 -0.875,1.8711 -0.875,3.2656 V -1e-4 H 2.3594 v -21.281 H 7.25 v 8.2031 c 0.73828,-0.88281 1.5195,-1.5391 2.3438,-1.9688 0.83203,-0.42578 1.75,-0.64062 2.75,-0.64062 1.7695,0 3.1133,0.54688 4.0312,1.6406 0.91406,1.0859 1.375,2.6562 1.375,4.7188 z"
         id="path12364"
         inkscape:connector-curvature="0" />
    </symbol>
    <symbol
       id="p"
       overflow="visible"
       style="overflow:visible">
      <path
         d="m 2.5781,-20.406 h 5.875 l 7.4219,14 v -14 h 4.9844 V 0 h -5.875 L 7.5625,-14 V 0 H 2.5781 Z"
         id="path12367"
         inkscape:connector-curvature="0" />
    </symbol>
    <symbol
       id="o"
       overflow="visible"
       style="overflow:visible">
      <path
         d="m 2.1875,-5.9688 v -9.3438 h 4.9219 v 1.5312 c 0,0.83594 -0.00781,1.875 -0.015625,3.125 -0.011719,1.25 -0.015625,2.0859 -0.015625,2.5 0,1.2422 0.03125,2.1328 0.09375,2.6719 0.070313,0.54297 0.17969,0.93359 0.32812,1.1719 0.20703,0.32422 0.47266,0.57422 0.79688,0.75 0.32031,0.16797 0.69141,0.25 1.1094,0.25 1.0195,0 1.8203,-0.39062 2.4062,-1.1719 0.58203,-0.78125 0.875,-1.8672 0.875,-3.2656 v -7.5625 h 4.8906 V -6e-4 H 12.6875 V -2.2194 C 11.94531,-1.32096 11.1641,-0.6608 10.3437,-0.235 9.51948,0.17906 8.6093,0.39 7.6093,0.39 5.8476,0.39 4.5038,-0.14906 3.5781,-1.235 2.64841,-2.317 2.1875,-3.8952 2.1875,-5.9694 Z"
         id="path12370"
         inkscape:connector-curvature="0" />
    </symbol>
    <symbol
       id="n"
       overflow="visible"
       style="overflow:visible">
      <path
         d="M 17.75,-9.3281 V 0 h -4.9219 v -7.1406 c 0,-1.3203 -0.03125,-2.2344 -0.09375,-2.7344 -0.0625,-0.5 -0.16797,-0.86719 -0.3125,-1.1094 -0.1875,-0.3125 -0.44922,-0.55469 -0.78125,-0.73438 -0.32422,-0.17578 -0.69531,-0.26562 -1.1094,-0.26562 -1.0234,0 -1.8242,0.39844 -2.4062,1.1875 -0.58594,0.78125 -0.875,1.8711 -0.875,3.2656 V -1e-4 H 2.3594 v -15.312 H 7.25 v 2.2344 c 0.73828,-0.88281 1.5195,-1.5391 2.3438,-1.9688 0.83203,-0.42578 1.75,-0.64062 2.75,-0.64062 1.7695,0 3.1133,0.54688 4.0312,1.6406 0.91406,1.0859 1.375,2.6562 1.375,4.7188 z"
         id="path12373"
         inkscape:connector-curvature="0" />
    </symbol>
    <symbol
       id="m"
       overflow="visible"
       style="overflow:visible">
      <path
         d="m 2.5781,-20.406 h 8.7344 c 2.5938,0 4.582,0.57812 5.9688,1.7344 1.3945,1.1484 2.0938,2.7891 2.0938,4.9219 0,2.1367 -0.69922,3.7812 -2.0938,4.9375 -1.3867,1.1562 -3.375,1.7344 -5.9688,1.7344 H 7.8281 V 3e-4 h -5.25 z m 5.25,3.8125 v 5.7031 H 10.75 c 1.0195,0 1.8047,-0.25 2.3594,-0.75 0.5625,-0.5 0.84375,-1.2031 0.84375,-2.1094 0,-0.91406 -0.28125,-1.6172 -0.84375,-2.1094 -0.55469,-0.48828 -1.3398,-0.73438 -2.3594,-0.73438 z"
         id="path12376"
         inkscape:connector-curvature="0" />
    </symbol>
    <symbol
       id="l"
       overflow="visible"
       style="overflow:visible">
      <path
         d="M 2.3594,-15.312 H 7.25 v 15.031 c 0,2.0508 -0.49609,3.6172 -1.4844,4.7031 -0.98047,1.082 -2.4062,1.625 -4.2812,1.625 H -0.9375 V 2.8283 h 0.85938 c 0.92578,0 1.5625,-0.21094 1.9062,-0.625 0.35156,-0.41797 0.53125,-1.2461 0.53125,-2.4844 z m 0,-5.9688 H 7.25 v 4 H 2.3594 Z"
         id="path12379"
         inkscape:connector-curvature="0" />
    </symbol>
    <symbol
       id="k"
       overflow="visible"
       style="overflow:visible">
      <path
         d="m 14.719,-14.828 v 3.9844 c -0.65625,-0.45703 -1.3242,-0.79688 -2,-1.0156 -0.66797,-0.21875 -1.3594,-0.32812 -2.0781,-0.32812 -1.3672,0 -2.4336,0.40234 -3.2031,1.2031 -0.76172,0.79297 -1.1406,1.9062 -1.1406,3.3438 0,1.4297 0.37891,2.543 1.1406,3.3438 0.76953,0.79297 1.8359,1.1875 3.2031,1.1875 0.75781,0 1.4844,-0.10938 2.1719,-0.32812 0.6875,-0.22656 1.3203,-0.56641 1.9062,-1.0156 v 4 c -0.76172,0.28125 -1.5391,0.48828 -2.3281,0.625 -0.78125,0.14453 -1.5742,0.21875 -2.375,0.21875 -2.7617,0 -4.9219,-0.70703 -6.4844,-2.125 -1.5547,-1.4141 -2.3281,-3.3828 -2.3281,-5.9062 0,-2.5312 0.77344,-4.5039 2.3281,-5.9219 1.5625,-1.4141 3.7227,-2.125 6.4844,-2.125 0.80078,0 1.5938,0.07422 2.375,0.21875 0.78125,0.13672 1.5547,0.35156 2.3281,0.64062 z"
         id="path12382"
         inkscape:connector-curvature="0" />
    </symbol>
    <symbol
       id="u-7"
       overflow="visible"
       style="overflow:visible">
      <path
         d="m 18.766,-1.125 c -0.96875,0.5 -1.9805,0.875 -3.0312,1.125 -1.043,0.25781 -2.1367,0.39062 -3.2812,0.39062 -3.3984,0 -6.0898,-0.94531 -8.0781,-2.8438 -1.9922,-1.9062 -2.9844,-4.4844 -2.9844,-7.7344 0,-3.2578 0.99219,-5.8359 2.9844,-7.7344 1.9883,-1.9062 4.6797,-2.8594 8.0781,-2.8594 1.1445,0 2.2383,0.13281 3.2812,0.39062 1.0508,0.25 2.0625,0.625 3.0312,1.125 v 4.2188 c -0.98047,-0.65625 -1.9453,-1.1406 -2.8906,-1.4531 -0.94922,-0.3125 -1.9492,-0.46875 -3,-0.46875 -1.875,0 -3.3516,0.60547 -4.4219,1.8125 -1.0742,1.1992 -1.6094,2.8555 -1.6094,4.9688 0,2.1055 0.53516,3.7617 1.6094,4.9688 1.0703,1.1992 2.5469,1.7969 4.4219,1.7969 1.0508,0 2.0508,-0.14844 3,-0.45312 0.94531,-0.3125 1.9102,-0.80078 2.8906,-1.4688 z"
         id="path877"
         inkscape:connector-curvature="0" />
    </symbol>
    <symbol
       id="b-6"
       overflow="visible"
       style="overflow:visible">
      <path
         d="m 13.734,-11.141 c -0.4375,-0.19531 -0.87109,-0.34375 -1.2969,-0.4375 -0.41797,-0.10156 -0.83984,-0.15625 -1.2656,-0.15625 -1.2617,0 -2.2305,0.40625 -2.9062,1.2188 -0.67969,0.80469 -1.0156,1.9531 -1.0156,3.4531 v 7.0625 H 2.3591 v -15.312 h 4.8906 v 2.5156 c 0.625,-1 1.3438,-1.7266 2.1562,-2.1875 0.82031,-0.46875 1.8008,-0.70312 2.9375,-0.70312 0.16406,0 0.34375,0.01172 0.53125,0.03125 0.19531,0.01172 0.47656,0.03906 0.84375,0.07813 z"
         id="path880"
         inkscape:connector-curvature="0" />
    </symbol>
    <symbol
       id="a-6"
       overflow="visible"
       style="overflow:visible">
      <path
         d="m 17.641,-7.7031 v 1.4062 H 6.188 c 0.125,1.1484 0.53906,2.0078 1.25,2.5781 0.70703,0.57422 1.7031,0.85938 2.9844,0.85938 1.0312,0 2.082,-0.14844 3.1562,-0.45312 1.082,-0.3125 2.1914,-0.77344 3.3281,-1.3906 v 3.7656 c -1.1562,0.4375 -2.3125,0.76562 -3.4688,0.98438 -1.1562,0.22656 -2.3125,0.34375 -3.4688,0.34375 -2.7734,0 -4.9297,-0.70312 -6.4688,-2.1094 -1.5312,-1.4062 -2.2969,-3.3789 -2.2969,-5.9219 0,-2.5 0.75391,-4.4609 2.2656,-5.8906 1.5078,-1.4375 3.582,-2.1562 6.2188,-2.1562 2.4062,0 4.332,0.73047 5.7812,2.1875 1.4453,1.4492 2.1719,3.3828 2.1719,5.7969 z m -5.0312,-1.625 c 0,-0.92578 -0.27344,-1.6719 -0.8125,-2.2344 -0.54297,-0.57031 -1.25,-0.85938 -2.125,-0.85938 -0.94922,0 -1.7188,0.26562 -2.3125,0.79688 -0.5937,0.53126 -0.96484,1.2969 -1.1094,2.2969 z"
         id="path883"
         inkscape:connector-curvature="0" />
    </symbol>
    <symbol
       id="g-4"
       overflow="visible"
       style="overflow:visible">
      <path
         d="m 9.2188,-6.8906 c -1.0234,0 -1.793,0.17188 -2.3125,0.51562 -0.51172,0.34375 -0.76562,0.85547 -0.76562,1.5312 0,0.625 0.20703,1.1172 0.625,1.4688 0.41406,0.34375 0.98828,0.51562 1.7188,0.51562 0.92578,0 1.7031,-0.32812 2.3281,-0.98438 0.63281,-0.66406 0.95312,-1.4922 0.95312,-2.4844 v -0.5625 z m 7.4688,-1.8438 V 0 h -4.9219 v -2.2656 c -0.65625,0.92969 -1.3984,1.6055 -2.2188,2.0312 -0.82422,0.41406 -1.8242,0.625 -3,0.625 -1.5859,0 -2.8711,-0.45703 -3.8594,-1.375 -0.99219,-0.92578 -1.4844,-2.1289 -1.4844,-3.6094 0,-1.7891 0.61328,-3.1016 1.8438,-3.9375 1.2383,-0.84375 3.1797,-1.2656 5.8281,-1.2656 h 2.8906 v -0.39062 c 0,-0.76953 -0.30859,-1.332 -0.92188,-1.6875 -0.61719,-0.36328 -1.5703,-0.54688 -2.8594,-0.54688 -1.0547,0 -2.0312,0.10547 -2.9375,0.3125 -0.89844,0.21094 -1.7305,0.52344 -2.5,0.9375 v -3.7344 c 1.0391,-0.25 2.0859,-0.44141 3.1406,-0.57812 1.0625,-0.13281 2.125,-0.20312 3.1875,-0.20312 2.7578,0 4.75,0.54688 5.9688,1.6406 1.2266,1.0859 1.8438,2.8555 1.8438,5.3125 z"
         id="path886"
         inkscape:connector-curvature="0" />
    </symbol>
    <symbol
       id="d-8"
       overflow="visible"
       style="overflow:visible">
      <path
         d="m 7.7031,-19.656 v 4.3438 H 12.75 v 3.5 H 7.7031 v 6.5 c 0,0.71094 0.14062,1.1875 0.42188,1.4375 0.28126,0.25 0.83594,0.375 1.6719,0.375 h 2.5156 v 3.5 h -4.1875 c -1.9375,0 -3.3125,-0.39844 -4.125,-1.2031 -0.80469,-0.8125 -1.2031,-2.1797 -1.2031,-4.1094 v -6.5 h -2.4219 v -3.5 h 2.4219 v -4.3438 z"
         id="path889"
         inkscape:connector-curvature="0" />
    </symbol>
    <symbol
       id="f-2"
       overflow="visible"
       style="overflow:visible">
      <path
         d="m 12.766,-13.078 v -8.2031 h 4.9219 V -1e-4 H 12.766 v -2.2188 c -0.66797,0.90625 -1.4062,1.5703 -2.2188,1.9844 -0.8126,0.4141 -1.7578,0.625 -2.8281,0.625 -1.8867,0 -3.4336,-0.75 -4.6406,-2.25 -1.2109,-1.5 -1.8125,-3.4258 -1.8125,-5.7812 0,-2.3633 0.60156,-4.2969 1.8125,-5.7969 1.207,-1.5 2.7539,-2.25 4.6406,-2.25 1.0625,0 2,0.21484 2.8125,0.64062 0.82031,0.42969 1.5664,1.0859 2.2344,1.9688 z m -3.2188,9.9219 c 1.0391,0 1.8359,-0.37891 2.3906,-1.1406 0.55078,-0.76953 0.82812,-1.8828 0.82812,-3.3438 0,-1.457 -0.27734,-2.5664 -0.82812,-3.3281 -0.55469,-0.76953 -1.3516,-1.1562 -2.3906,-1.1562 -1.043,0 -1.8398,0.38672 -2.3906,1.1562 -0.55469,0.76172 -0.82812,1.8711 -0.82812,3.3281 0,1.4609 0.27344,2.5742 0.82812,3.3438 0.55078,0.76172 1.3477,1.1406 2.3906,1.1406 z"
         id="path892"
         inkscape:connector-curvature="0" />
    </symbol>
    <symbol
       id="j-4"
       overflow="visible"
       style="overflow:visible">
      <path
         d="m 10.5,-3.1562 c 1.0508,0 1.8516,-0.37891 2.4062,-1.1406 0.55078,-0.76953 0.82812,-1.8828 0.82812,-3.3438 0,-1.457 -0.27734,-2.5664 -0.82812,-3.3281 -0.55469,-0.76953 -1.3555,-1.1562 -2.4062,-1.1562 -1.0547,0 -1.8594,0.38672 -2.4219,1.1562 -0.55469,0.77344 -0.82812,1.8828 -0.82812,3.3281 0,1.4492 0.27344,2.5586 0.82812,3.3281 0.5625,0.77344 1.3672,1.1562 2.4219,1.1562 z m -3.25,-9.9219 c 0.67578,-0.88281 1.4219,-1.5391 2.2344,-1.9688 0.82031,-0.42578 1.7656,-0.64062 2.8281,-0.64062 1.8945,0 3.4453,0.75 4.6562,2.25 1.207,1.5 1.8125,3.4336 1.8125,5.7969 0,2.3555 -0.60547,4.2812 -1.8125,5.7812 -1.2109,1.5 -2.7617,2.25 -4.6562,2.25 -1.0625,0 -2.0078,-0.21094 -2.8281,-0.625 C 8.6719,-0.6602 7.9258,-1.32032 7.25,-2.21882 V -2e-5 H 2.3594 v -21.281 H 7.25 Z"
         id="path895"
         inkscape:connector-curvature="0" />
    </symbol>
    <symbol
       id="i-9"
       overflow="visible"
       style="overflow:visible">
      <path
         d="m 0.34375,-15.312 h 4.8906 l 4.125,10.391 3.5,-10.391 h 4.8906 l -6.4375,16.766 c -0.64844,1.6953 -1.4023,2.8828 -2.2656,3.5625 -0.86719,0.6875 -2,1.0312 -3.4062,1.0312 H 2.79685 V 2.8289 h 1.5312 c 0.83203,0 1.4375,-0.13672 1.8125,-0.40625 C 6.52336,2.16093 6.82024,1.69218 7.03117,1.01645 L 7.17179,0.59457 Z"
         id="path898"
         inkscape:connector-curvature="0" />
    </symbol>
    <symbol
       id="h-1"
       overflow="visible"
       style="overflow:visible">
      <path
         d="M 14.953,-3.7188 H 6.7342 L 5.4217,0 H 0.1405 L 7.703,-20.406 h 6.2656 L 21.5311,0 H 16.2499 Z M 8.0468,-7.5 h 5.5781 l -2.7812,-8.125 z"
         id="path901"
         inkscape:connector-curvature="0" />
    </symbol>
    <symbol
       id="e-2"
       overflow="visible"
       style="overflow:visible">
      <path
         d="M 17.75,-9.3281 V 0 h -4.9219 v -7.1406 c 0,-1.3203 -0.03125,-2.2344 -0.09375,-2.7344 -0.0625,-0.5 -0.16797,-0.86719 -0.3125,-1.1094 -0.1875,-0.3125 -0.44922,-0.55469 -0.78125,-0.73438 -0.32422,-0.17578 -0.69531,-0.26562 -1.1094,-0.26562 -1.0234,0 -1.8242,0.39844 -2.4062,1.1875 -0.58594,0.78125 -0.875,1.8711 -0.875,3.2656 V -1e-4 H 2.3594 v -15.312 H 7.25 v 2.2344 c 0.73828,-0.88281 1.5195,-1.5391 2.3438,-1.9688 0.83203,-0.42578 1.75,-0.64062 2.75,-0.64062 1.7695,0 3.1133,0.54688 4.0312,1.6406 0.91406,1.0859 1.375,2.6562 1.375,4.7188 z"
         id="path904"
         inkscape:connector-curvature="0" />
    </symbol>
    <symbol
       id="t-0"
       overflow="visible"
       style="overflow:visible">
      <path
         d="m 0.98438,-15.312 h 4.7656 l 2.5625,10.547 2.5781,-10.547 h 4.0938 l 2.5781,10.438 2.5781,-10.438 h 4.75 L 20.85938,0 h -5.3438 L 12.93748,-10.531 10.35938,0 h -5.3438 z"
         id="path907"
         inkscape:connector-curvature="0" />
    </symbol>
    <symbol
       id="s-9"
       overflow="visible"
       style="overflow:visible">
      <path
         d="m 7.8281,-16.438 v 12.453 h 1.8906 c 2.1562,0 3.8008,-0.53125 4.9375,-1.5938 1.1328,-1.0625 1.7031,-2.6133 1.7031,-4.6562 0,-2.0195 -0.57031,-3.5547 -1.7031,-4.6094 -1.125,-1.0625 -2.7734,-1.5938 -4.9375,-1.5938 z m -5.25,-3.9688 H 8.125 c 3.0938,0 5.3984,0.21875 6.9219,0.65625 1.5195,0.4375 2.8203,1.1875 3.9062,2.25 0.95703,0.91797 1.6641,1.9805 2.125,3.1875 0.46875,1.1992 0.70312,2.5586 0.70312,4.0781 0,1.543 -0.23438,2.918 -0.70312,4.125 -0.46094,1.2109 -1.168,2.2773 -2.125,3.2031 -1.0938,1.0547 -2.4062,1.8047 -3.9375,2.25 C 13.4844,-0.21935 11.1875,-6e-4 8.125,-6e-4 H 2.5781 Z"
         id="path910"
         inkscape:connector-curvature="0" />
    </symbol>
    <symbol
       id="c-8"
       overflow="visible"
       style="overflow:visible">
      <path
         d="m 9.6406,-12.188 c -1.0859,0 -1.9141,0.39062 -2.4844,1.1719 -0.57422,0.78125 -0.85938,1.9062 -0.85938,3.375 0,1.4688 0.28516,2.5938 0.85938,3.375 0.57031,0.77344 1.3984,1.1562 2.4844,1.1562 1.0625,0 1.875,-0.38281 2.4375,-1.1562 0.57031,-0.78125 0.85938,-1.9062 0.85938,-3.375 0,-1.4688 -0.28906,-2.5938 -0.85938,-3.375 -0.5625,-0.78125 -1.375,-1.1719 -2.4375,-1.1719 z m 0,-3.5 c 2.6328,0 4.6914,0.71484 6.1719,2.1406 1.4766,1.418 2.2188,3.3867 2.2188,5.9062 0,2.5117 -0.74219,4.4805 -2.2188,5.9062 C 14.332,-0.317 12.2734,0.39 9.6406,0.39 6.9922,0.39 4.9258,-0.31703 3.4375,-1.735 1.9453,-3.1608 1.2031,-5.1295 1.2031,-7.6412 c 0,-2.5195 0.74219,-4.4883 2.2344,-5.9062 1.4883,-1.4258 3.5547,-2.1406 6.2031,-2.1406 z"
         id="path913"
         inkscape:connector-curvature="0" />
    </symbol>
    <symbol
       id="r-1"
       overflow="visible"
       style="overflow:visible">
      <path
         d="m 12.422,-21.281 v 3.2188 H 9.7189 c -0.6875,0 -1.1719,0.125 -1.4531,0.375 -0.27344,0.25 -0.40625,0.6875 -0.40625,1.3125 v 1.0625 h 4.1875 v 3.5 H 7.85955 V -2e-4 h -4.8906 v -11.812 h -2.4375 v -3.5 h 2.4375 v -1.0625 c 0,-1.6641 0.46094,-2.8984 1.3906,-3.7031 0.92578,-0.80078 2.3672,-1.2031 4.3281,-1.2031 z"
         id="path916"
         inkscape:connector-curvature="0" />
    </symbol>
    <symbol
       id="q-9"
       overflow="visible"
       style="overflow:visible">
      <path
         d="m 16.547,-12.766 c 0.61328,-0.94531 1.3477,-1.6719 2.2031,-2.1719 0.85156,-0.5 1.7891,-0.75 2.8125,-0.75 1.7578,0 3.0977,0.54688 4.0156,1.6406 0.92578,1.0859 1.3906,2.6562 1.3906,4.7188 V -4e-4 h -4.9219 v -7.9844 -0.35938 c 0.0078,-0.13281 0.01563,-0.32031 0.01563,-0.5625 0,-1.082 -0.16406,-1.8633 -0.48438,-2.3438 -0.3125,-0.48828 -0.82422,-0.73438 -1.5312,-0.73438 -0.92969,0 -1.6484,0.38672 -2.1562,1.1562 -0.51172,0.76172 -0.77344,1.8672 -0.78125,3.3125 v 7.5156 h -4.9219 v -7.9844 c 0,-1.6953 -0.14844,-2.7852 -0.4375,-3.2656 -0.29297,-0.48828 -0.8125,-0.73438 -1.5625,-0.73438 -0.9375,0 -1.6641,0.38672 -2.1719,1.1562 -0.51172,0.76172 -0.76562,1.8594 -0.76562,3.2969 v 7.5312 h -4.9219 v -15.312 h 4.9219 v 2.2344 c 0.60156,-0.86328 1.2891,-1.5156 2.0625,-1.9531 0.78125,-0.4375 1.6406,-0.65625 2.5781,-0.65625 1.0625,0 2,0.25781 2.8125,0.76562 0.8125,0.51172 1.4258,1.2305 1.8438,2.1562 z"
         id="path919"
         inkscape:connector-curvature="0" />
    </symbol>
    <symbol
       id="p-4"
       overflow="visible"
       style="overflow:visible">
      <path
         d="M 17.75,-9.3281 V 0 h -4.9219 v -7.1094 c 0,-1.3438 -0.03125,-2.2656 -0.09375,-2.7656 -0.0625,-0.5 -0.16797,-0.86719 -0.3125,-1.1094 -0.1875,-0.3125 -0.44922,-0.55469 -0.78125,-0.73438 -0.32422,-0.17578 -0.69531,-0.26562 -1.1094,-0.26562 -1.0234,0 -1.8242,0.39844 -2.4062,1.1875 -0.58594,0.78125 -0.875,1.8711 -0.875,3.2656 V -1e-4 H 2.3594 v -21.281 H 7.25 v 8.2031 c 0.73828,-0.88281 1.5195,-1.5391 2.3438,-1.9688 0.83203,-0.42578 1.75,-0.64062 2.75,-0.64062 1.7695,0 3.1133,0.54688 4.0312,1.6406 0.91406,1.0859 1.375,2.6562 1.375,4.7188 z"
         id="path922"
         inkscape:connector-curvature="0" />
    </symbol>
    <symbol
       id="o-3"
       overflow="visible"
       style="overflow:visible">
      <path
         d="m 2.5781,-20.406 h 5.875 l 7.4219,14 v -14 h 4.9844 V 0 h -5.875 L 7.5625,-14 V 0 H 2.5781 Z"
         id="path925"
         inkscape:connector-curvature="0" />
    </symbol>
    <symbol
       id="n-7"
       overflow="visible"
       style="overflow:visible">
      <path
         d="m 2.1875,-5.9688 v -9.3438 h 4.9219 v 1.5312 c 0,0.83594 -0.00781,1.875 -0.015625,3.125 -0.011719,1.25 -0.015625,2.0859 -0.015625,2.5 0,1.2422 0.03125,2.1328 0.09375,2.6719 0.070313,0.54297 0.17969,0.93359 0.32812,1.1719 0.20703,0.32422 0.47266,0.57422 0.79688,0.75 0.32031,0.16797 0.69141,0.25 1.1094,0.25 1.0195,0 1.8203,-0.39062 2.4062,-1.1719 0.58203,-0.78125 0.875,-1.8672 0.875,-3.2656 v -7.5625 h 4.8906 V -6e-4 H 12.6875 V -2.2194 C 11.94531,-1.32096 11.1641,-0.6608 10.3437,-0.235 9.51948,0.17906 8.6093,0.39 7.6093,0.39 5.8476,0.39 4.5038,-0.14906 3.5781,-1.235 2.64841,-2.317 2.1875,-3.8952 2.1875,-5.9694 Z"
         id="path928"
         inkscape:connector-curvature="0" />
    </symbol>
    <symbol
       id="m-8"
       overflow="visible"
       style="overflow:visible">
      <path
         d="m 2.5781,-20.406 h 8.7344 c 2.5938,0 4.582,0.57812 5.9688,1.7344 1.3945,1.1484 2.0938,2.7891 2.0938,4.9219 0,2.1367 -0.69922,3.7812 -2.0938,4.9375 -1.3867,1.1562 -3.375,1.7344 -5.9688,1.7344 H 7.8281 V 3e-4 h -5.25 z m 5.25,3.8125 v 5.7031 H 10.75 c 1.0195,0 1.8047,-0.25 2.3594,-0.75 0.5625,-0.5 0.84375,-1.2031 0.84375,-2.1094 0,-0.91406 -0.28125,-1.6172 -0.84375,-2.1094 -0.55469,-0.48828 -1.3398,-0.73438 -2.3594,-0.73438 z"
         id="path931"
         inkscape:connector-curvature="0" />
    </symbol>
    <symbol
       id="l-7"
       overflow="visible"
       style="overflow:visible">
      <path
         d="M 2.3594,-15.312 H 7.25 v 15.031 c 0,2.0508 -0.49609,3.6172 -1.4844,4.7031 -0.98047,1.082 -2.4062,1.625 -4.2812,1.625 H -0.9375 V 2.8283 h 0.85938 c 0.92578,0 1.5625,-0.21094 1.9062,-0.625 0.35156,-0.41797 0.53125,-1.2461 0.53125,-2.4844 z m 0,-5.9688 H 7.25 v 4 H 2.3594 Z"
         id="path934"
         inkscape:connector-curvature="0" />
    </symbol>
    <symbol
       id="k-5"
       overflow="visible"
       style="overflow:visible">
      <path
         d="m 14.719,-14.828 v 3.9844 c -0.65625,-0.45703 -1.3242,-0.79688 -2,-1.0156 -0.66797,-0.21875 -1.3594,-0.32812 -2.0781,-0.32812 -1.3672,0 -2.4336,0.40234 -3.2031,1.2031 -0.76172,0.79297 -1.1406,1.9062 -1.1406,3.3438 0,1.4297 0.37891,2.543 1.1406,3.3438 0.76953,0.79297 1.8359,1.1875 3.2031,1.1875 0.75781,0 1.4844,-0.10938 2.1719,-0.32812 0.6875,-0.22656 1.3203,-0.56641 1.9062,-1.0156 v 4 c -0.76172,0.28125 -1.5391,0.48828 -2.3281,0.625 -0.78125,0.14453 -1.5742,0.21875 -2.375,0.21875 -2.7617,0 -4.9219,-0.70703 -6.4844,-2.125 -1.5547,-1.4141 -2.3281,-3.3828 -2.3281,-5.9062 0,-2.5312 0.77344,-4.5039 2.3281,-5.9219 1.5625,-1.4141 3.7227,-2.125 6.4844,-2.125 0.80078,0 1.5938,0.07422 2.375,0.21875 0.78125,0.13672 1.5547,0.35156 2.3281,0.64062 z"
         id="path937"
         inkscape:connector-curvature="0" />
    </symbol>
    <pattern
       y="0"
       x="0"
       height="6"
       width="6"
       patternUnits="userSpaceOnUse"
       id="EMFhbasepattern" />
    <pattern
       y="0"
       x="0"
       height="6"
       width="6"
       patternUnits="userSpaceOnUse"
       id="EMFhbasepattern-6" />
    <pattern
       y="0"
       x="0"
       height="6"
       width="6"
       patternUnits="userSpaceOnUse"
       id="EMFhbasepattern-9" />
    <symbol
       overflow="visible"
       id="v"
       style="overflow:visible">
      <path
         id="path1578"
         d="M 6.9219,-0.42188 C 6.56643,-0.23438 6.19534,-0.09376 5.8125,0 5.42578,0.09375 5.01953,0.14062 4.5937,0.14062 c -1.25,0 -2.2461,-0.34766 -2.9844,-1.0469 -0.73047,-0.69531 -1.0938,-1.6484 -1.0938,-2.8594 0,-1.207 0.36328,-2.1602 1.0938,-2.8594 0.73828,-0.69531 1.7344,-1.0469 2.9844,-1.0469 0.42578,0 0.83203,0.046875 1.2188,0.14062 0.38281,0.09375 0.75391,0.23438 1.1094,0.42188 v 1.5469 C 6.56643,-5.80086 6.21096,-5.97664 5.8594,-6.09383 5.51565,-6.20711 5.14456,-6.26571 4.75,-6.26571 c -0.6875,0 -1.2305,0.22656 -1.625,0.67188 -0.39844,0.4375 -0.59375,1.0469 -0.59375,1.8281 0,0.7812 0.19531,1.3984 0.59375,1.8438 0.39453,0.4375 0.9375,0.65625 1.625,0.65625 0.39453,0 0.76562,-0.054687 1.1094,-0.17188 0.35156,-0.11328 0.70703,-0.28906 1.0625,-0.53125 z"
         inkscape:connector-curvature="0" />
    </symbol>
    <symbol
       overflow="visible"
       id="c-7"
       style="overflow:visible">
      <path
         id="path1581"
         d="M 5.0781,-4.1094 C 4.91013,-4.191431 4.74998,-4.25002 4.59372,-4.28128 4.43746,-4.31254 4.28122,-4.328155 4.12497,-4.328155 c -0.46875,0 -0.82812,0.15234 -1.0781,0.45312 -0.25,0.29297 -0.375,0.71484 -0.375,1.2656 v 2.6094 h -1.7969 v -5.6562 h 1.7969 v 0.92188 c 0.23828,-0.36328 0.50391,-0.62891 0.79688,-0.79688 0.30078,-0.17578 0.66406,-0.26562 1.0938,-0.26562 0.0625,0 0.125,0.00781 0.1875,0.015625 0.070312,0 0.17578,0.011719 0.3125,0.03125 z"
         inkscape:connector-curvature="0" />
    </symbol>
    <symbol
       overflow="visible"
       id="a-61"
       style="overflow:visible">
      <path
         id="path1584"
         d="m 6.5156,-2.8438 v 0.51562 H 2.2812 c 0.050781,0.42969 0.20703,0.74609 0.46875,0.95312 0.25781,0.21094 0.625,0.3125 1.0938,0.3125 0.38281,0 0.77344,-0.050781 1.1719,-0.15625 0.39453,-0.11328 0.80469,-0.28516 1.2344,-0.51562 v 1.3906 c -0.42969,0.16797 -0.85547,0.28906 -1.2812,0.35938 -0.42969,0.082031 -0.85547,0.125 -1.2812,0.125 -1.0312,0 -1.8359,-0.25781 -2.4062,-0.78125 -0.5625,-0.51953 -0.84375,-1.25 -0.84375,-2.1875 0,-0.91406 0.27344,-1.6406 0.82812,-2.1719 0.5625,-0.53125 1.332,-0.79688 2.3125,-0.79688 0.89453,0 1.6094,0.27344 2.1406,0.8125 0.53125,0.53125 0.79688,1.2461 0.79688,2.1406 z M 4.6562,-3.43755 c 0,-0.34375 -0.10156,-0.61719 -0.29688,-0.82812 -0.19922,-0.21875 -0.46094,-0.32812 -0.78125,-0.32812 -0.35547,0 -0.64062,0.10156 -0.85938,0.29688 -0.21875,0.19922 -0.35547,0.48438 -0.40625,0.85938 z"
         inkscape:connector-curvature="0" />
    </symbol>
    <symbol
       overflow="visible"
       id="k-6"
       style="overflow:visible">
      <path
         id="path1587"
         d="m 3.4062,-2.5469 c -0.375,0 -0.66406,0.070313 -0.85938,0.20312 -0.1875,0.125 -0.28125,0.3125 -0.28125,0.5625 0,0.23047 0.078125,0.40625 0.23438,0.53125 0.156255,0.125 0.36719,0.1875 0.64062,0.1875 0.33203,0 0.61328,-0.11719 0.84375,-0.35938 C 4.2226,-1.66019 4.3437,-1.96879 4.3437,-2.34379 V -2.54691 Z M 6.1718,-3.2344 V 0 H 4.3437 V -0.84375 C 4.10151,-0.5 3.83198,-0.25 3.5312,-0.09375 3.22651,0.0625 2.85932,0.14063 2.4218,0.14063 c -0.58594,0 -1.0625,-0.16406 -1.4375,-0.5 -0.36719,-0.34375 -0.54688,-0.78906 -0.54688,-1.3438 0,-0.65625 0.22656,-1.1406 0.6875,-1.4531 0.45703,-0.3125 1.1758,-0.46875 2.1562,-0.46875 h 1.0625 v -0.14062 c 0,-0.28125 -0.11719,-0.48828 -0.34375,-0.625 -0.21875,-0.13281 -0.57031,-0.20312 -1.0469,-0.20312 -0.38672,0 -0.74609,0.042969 -1.0781,0.125 -0.33594,0.074219 -0.64844,0.1875 -0.9375,0.34375 v -1.375 c 0.38281,-0.09375 0.76953,-0.16406 1.1562,-0.21875 0.39453,-0.050781 0.78906,-0.078125 1.1875,-0.078125 1.0195,0 1.7539,0.20312 2.2031,0.60938 0.45703,0.39844 0.6875,1.0469 0.6875,1.9531 z"
         inkscape:connector-curvature="0" />
    </symbol>
    <symbol
       overflow="visible"
       id="b-8"
       style="overflow:visible">
      <path
         id="path1590"
         d="m 2.8438,-7.2656 v 1.6094 h 1.8594 v 1.2969 H 2.8438 v 2.3906 c 0,0.26172 0.050781,0.4375 0.15625,0.53125 0.10156,0.09375 0.3125,0.14062 0.625,0.14062 H 4.54693 V 7e-5 h -1.5469 c -0.71875,0 -1.2305,-0.14453 -1.5312,-0.4375 -0.29297,-0.30078 -0.4375,-0.8125 -0.4375,-1.5312 v -2.3906 H 0.14071 v -1.2969 h 0.89062 v -1.6094 z"
         inkscape:connector-curvature="0" />
    </symbol>
    <symbol
       overflow="visible"
       id="f-25"
       style="overflow:visible">
      <path
         id="path1593"
         d="M 4.7188,-4.8281 V -7.8593 H 6.5313 V 1e-4 H 4.7188 v -0.8125 c -0.25,0.33594 -0.52734,0.57812 -0.82812,0.73438 -0.30469,0.14453 -0.64844,0.21875 -1.0312,0.21875 -0.69922,0 -1.2734,-0.27344 -1.7188,-0.82812 -0.44922,-0.55078 -0.67188,-1.2656 -0.67188,-2.1406 0,-0.86328 0.22266,-1.5703 0.67188,-2.125 0.44531,-0.5625 1.0195,-0.84375 1.7188,-0.84375 0.38281,0 0.72656,0.078125 1.0312,0.23438 0.30078,0.15625 0.57812,0.40234 0.82812,0.73438 z m -1.1875,3.6562 c 0.38281,0 0.67578,-0.14062 0.875,-0.42188 0.20703,-0.28125 0.3125,-0.69141 0.3125,-1.2344 0,-0.53125 -0.10547,-0.9375 -0.3125,-1.2188 -0.19922,-0.28906 -0.49219,-0.4375 -0.875,-0.4375 -0.38672,0 -0.68359,0.14844 -0.89062,0.4375 -0.19922,0.28125 -0.29688,0.6875 -0.29688,1.2188 0,0.54297 0.097656,0.95312 0.29688,1.2344 0.20703,0.28125 0.50391,0.42188 0.89062,0.42188 z"
         inkscape:connector-curvature="0" />
    </symbol>
    <symbol
       overflow="visible"
       id="j-7"
       style="overflow:visible">
      <path
         id="path1596"
         d="m 3.875,-1.1719 c 0.38281,0 0.67969,-0.14062 0.89062,-0.42188 0.20703,-0.28125 0.3125,-0.69141 0.3125,-1.2344 0,-0.53125 -0.10547,-0.9375 -0.3125,-1.2188 -0.21094,-0.28906 -0.50781,-0.4375 -0.89062,-0.4375 -0.38672,0 -0.68359,0.14844 -0.89062,0.4375 -0.21094,0.28125 -0.3125,0.6875 -0.3125,1.2188 0,0.54297 0.10156,0.95312 0.3125,1.2344 0.20703,0.28125 0.50391,0.42188 0.89062,0.42188 z M 2.6719,-4.8281 c 0.25,-0.33203 0.52344,-0.57812 0.82812,-0.73438 0.30078,-0.15625 0.64844,-0.23438 1.0469,-0.23438 0.69531,0 1.2695,0.28125 1.7188,0.84375 0.44531,0.55469 0.67188,1.2617 0.67188,2.125 0,0.875 -0.22656,1.5898 -0.67188,2.1406 -0.44922,0.55469 -1.0234,0.82812 -1.7188,0.82812 -0.39844,0 -0.74609,-0.078125 -1.0469,-0.23438 C 3.19533,-0.25002 2.9219,-0.4883 2.6719,-0.81252 V -2e-5 H 0.875 v -7.8594 h 1.7969 z"
         inkscape:connector-curvature="0" />
    </symbol>
    <symbol
       overflow="visible"
       id="i-4"
       style="overflow:visible">
      <path
         id="path1599"
         d="M 0.125,-5.6562 H 1.9375 L 3.4531,-1.8124 4.75,-5.6562 H 6.5625 L 4.1719,0.5313 C 3.92971,1.16411 3.64846,1.6094 3.32815,1.8594 c -0.3125,0.25 -0.73047,0.375 -1.25,0.375 H 1.03125 V 1.0469 h 0.5625 c 0.3125,0 0.53516,-0.054687 0.67188,-0.15625 C 2.41016,0.7969 2.51954,0.62503 2.59375,0.37503 L 2.640625,0.21878 Z"
         inkscape:connector-curvature="0" />
    </symbol>
    <symbol
       overflow="visible"
       id="e-4"
       style="overflow:visible">
      <path
         id="path1602"
         d="M 5.4375,-5.4844 V -4 C 5.19531,-4.16406 4.95312,-4.28906 4.70312,-4.375 4.45312,-4.457031 4.1914,-4.5 3.92187,-4.5 c -0.5,0 -0.89062,0.15234 -1.1719,0.45312 -0.28125,0.29297 -0.42188,0.69922 -0.42188,1.2188 0,0.53125 0.14062,0.94922 0.42188,1.25 0.28125,0.29297 0.67188,0.4375 1.1719,0.4375 0.28906,0 0.5625,-0.039063 0.8125,-0.125 0.25,-0.09375 0.48438,-0.21875 0.70312,-0.375 v 1.4688 C 5.15624,-0.06631 4.86718,0.00791 4.57811,0.0626 4.28514,0.113381 3.99217,0.140725 3.70311,0.140725 c -1.0234,0 -1.8242,-0.25781 -2.4062,-0.78125 -0.57422,-0.51953 -0.85938,-1.25 -0.85938,-2.1875 0,-0.92578 0.28516,-1.6484 0.85938,-2.1719 0.58203,-0.53125 1.3828,-0.79688 2.4062,-0.79688 0.28906,0 0.58203,0.027344 0.875,0.078125 0.28906,0.054688 0.57812,0.13281 0.85938,0.23438 z"
         inkscape:connector-curvature="0" />
    </symbol>
    <symbol
       overflow="visible"
       id="d-4"
       style="overflow:visible">
      <path
         id="path1605"
         d="m 3.5625,-4.5 c -0.40625,0 -0.71484,0.14844 -0.92188,0.4375 -0.21094,0.28125 -0.3125,0.69531 -0.3125,1.2344 0,0.54297 0.10156,0.96094 0.3125,1.25 0.20703,0.29297 0.51562,0.4375 0.92188,0.4375 0.39453,0 0.69531,-0.14453 0.90625,-0.4375 0.20703,-0.28906 0.3125,-0.70703 0.3125,-1.25 0,-0.53906 -0.10547,-0.95312 -0.3125,-1.2344 C 4.25781,-4.35156 3.95703,-4.5 3.5625,-4.5 Z m 0,-1.2969 c 0.96875,0 1.7227,0.26562 2.2656,0.79688 0.55078,0.52344 0.82812,1.2461 0.82812,2.1719 0,0.9375 -0.27734,1.668 -0.82812,2.1875 -0.54297,0.52344 -1.2969,0.78125 -2.2656,0.78125 -0.98047,0 -1.7461,-0.25781 -2.2969,-0.78125 -0.55469,-0.51953 -0.82812,-1.25 -0.82812,-2.1875 0,-0.92578 0.27344,-1.6484 0.82812,-2.1719 C 1.81638,-5.53127 2.582,-5.7969 3.5625,-5.7969 Z"
         inkscape:connector-curvature="0" />
    </symbol>
    <symbol
       overflow="visible"
       id="u-8"
       style="overflow:visible">
      <path
         id="path1608"
         d="M 2.6719,-0.8125 V 2.1563 H 0.875 v -7.8125 h 1.7969 v 0.82812 c 0.25,-0.33203 0.52344,-0.57812 0.82812,-0.73438 0.30078,-0.15625 0.64844,-0.23438 1.0469,-0.23438 0.69531,0 1.2695,0.28125 1.7188,0.84375 0.44531,0.55469 0.67188,1.2617 0.67188,2.125 0,0.875 -0.22656,1.5898 -0.67188,2.1406 -0.44922,0.55469 -1.0234,0.82812 -1.7188,0.82812 -0.39844,0 -0.74609,-0.078125 -1.0469,-0.23438 C 3.19533,-0.25 2.9219,-0.48828 2.6719,-0.8125 Z M 3.875,-4.4844 c -0.38672,0 -0.68359,0.14844 -0.89062,0.4375 -0.21094,0.28125 -0.3125,0.6875 -0.3125,1.2188 0,0.54297 0.10156,0.95312 0.3125,1.2344 0.20703,0.28125 0.50391,0.42188 0.89062,0.42188 0.38281,0 0.67969,-0.14062 0.89062,-0.42188 0.20703,-0.28125 0.3125,-0.69141 0.3125,-1.2344 0,-0.53125 -0.10547,-0.9375 -0.3125,-1.2188 C 4.55468,-4.33596 4.25781,-4.4844 3.875,-4.4844 Z"
         inkscape:connector-curvature="0" />
    </symbol>
    <symbol
       overflow="visible"
       id="h-16"
       style="overflow:visible">
      <path
         id="path1611"
         d="M 0.8125,-2.2031 V -5.6562 H 2.625 v 0.5625 c 0,0.3125 -0.00781,0.69922 -0.015625,1.1562 v 0.92188 c 0,0.46094 0.00781,0.78906 0.03125,0.98438 0.03125,0.19922 0.070313,0.34375 0.125,0.4375 0.082031,0.11719 0.17969,0.21094 0.29688,0.28125 0.125,0.0625 0.25781,0.09375 0.40625,0.09375 0.38281,0 0.67969,-0.14453 0.89062,-0.4375 0.21875,-0.28906 0.32812,-0.69141 0.32812,-1.2031 v -2.7969 h 1.8125 V -4e-5 h -1.8125 v -0.8125 c -0.27344,0.32422 -0.5625,0.5625 -0.875,0.71875 -0.30469,0.15625 -0.63672,0.23438 -1,0.23438 -0.65625,0 -1.1562,-0.19531 -1.5,-0.59375 -0.33594,-0.40625 -0.5,-0.98828 -0.5,-1.75 z"
         inkscape:connector-curvature="0" />
    </symbol>
    <symbol
       overflow="visible"
       id="t-8"
       style="overflow:visible">
      <path
         id="path1614"
         d="m 5.2812,-5.4844 v 1.375 c -0.38672,-0.15625 -0.76172,-0.27344 -1.125,-0.35938 -0.35547,-0.082031 -0.69531,-0.125 -1.0156,-0.125 -0.34375,0 -0.60156,0.046875 -0.76562,0.14062 -0.16797,0.085937 -0.25,0.21484 -0.25,0.39062 0,0.14844 0.0625,0.26172 0.1875,0.34375 0.13281,0.074219 0.36328,0.125 0.6875,0.15625 l 0.3125,0.046875 c 0.92578,0.11719 1.5508,0.30859 1.875,0.57812 0.32031,0.27344 0.48438,0.69531 0.48438,1.2656 0,0.60547 -0.22656,1.0586 -0.67188,1.3594 -0.44922,0.30469 -1.1094,0.45312 -1.9844,0.45312 -0.375,0 -0.76562,-0.03125 -1.1719,-0.09375 -0.39844,-0.050781 -0.80469,-0.13281 -1.2188,-0.25 v -1.375 c 0.35156,0.17969 0.71875,0.30859 1.0938,0.39062 0.38281,0.085938 0.77344,0.125 1.1719,0.125 0.35156,0 0.61719,-0.046875 0.79688,-0.14062 0.17578,-0.09375 0.26562,-0.23828 0.26562,-0.4375 0,-0.15625 -0.0625,-0.26953 -0.1875,-0.34375 -0.125,-0.082031 -0.37109,-0.14844 -0.73438,-0.20312 l -0.3125,-0.03125 c -0.8125,-0.10156 -1.3828,-0.28906 -1.7031,-0.5625 -0.32422,-0.26953 -0.48438,-0.6875 -0.48438,-1.25 0,-0.59375 0.20312,-1.0352 0.60938,-1.3281 0.41406,-0.28906 1.0508,-0.4375 1.9062,-0.4375 0.33203,0 0.67969,0.027344 1.0469,0.078125 0.36328,0.054688 0.75781,0.13281 1.1875,0.23438 z"
         inkscape:connector-curvature="0" />
    </symbol>
    <symbol
       overflow="visible"
       id="s-1"
       style="overflow:visible">
      <path
         id="path1617"
         d="M 0.875,-7.8594 H 2.6719 V 0 H 0.875 Z"
         inkscape:connector-curvature="0" />
    </symbol>
    <symbol
       overflow="visible"
       id="g-7"
       style="overflow:visible">
      <path
         id="path1620"
         d="M 0.875,-5.6562 H 2.6719 V 0 H 0.875 Z m 0,-2.2031 h 1.7969 v 1.4688 H 0.875 Z"
         inkscape:connector-curvature="0" />
    </symbol>
    <symbol
       overflow="visible"
       id="r-6"
       style="overflow:visible">
      <path
         id="path1623"
         d="m 4.5938,-7.8594 v 1.1875 h -1 c -0.26172,0 -0.44531,0.046875 -0.54688,0.14062 C 2.95317,-6.43753 2.9063,-6.27347 2.9063,-6.0469 v 0.39062 h 1.5469 v 1.2969 H 2.9063 V 2e-5 H 1.0938 v -4.3594 H 0.20318 v -1.2969 H 1.0938 V -6.0469 c 0,-0.61328 0.17188,-1.0664 0.51562,-1.3594 0.34375,-0.30078 0.875,-0.45312 1.5938,-0.45312 z"
         inkscape:connector-curvature="0" />
    </symbol>
    <symbol
       overflow="visible"
       id="q-2"
       style="overflow:visible">
      <path
         id="path1626"
         d="m 6.1094,-4.7188 c 0.22656,-0.35156 0.5,-0.61719 0.8125,-0.79688 0.32031,-0.1875 0.67188,-0.28125 1.0469,-0.28125 0.64453,0 1.1328,0.20312 1.4688,0.60938 0.34375,0.39844 0.51562,0.98047 0.51562,1.75 V -5e-5 h -1.8125 v -2.9531 -0.125 c 0.00781,-0.050781 0.015625,-0.11719 0.015625,-0.20312 0,-0.40625 -0.0625,-0.69531 -0.1875,-0.875 -0.11719,-0.17578 -0.30469,-0.26562 -0.5625,-0.26562 -0.34375,0 -0.60938,0.14062 -0.79688,0.42188 -0.1875,0.28126 -0.28906,0.6875 -0.29688,1.2188 V -1e-5 h -1.8125 v -2.9531 c 0,-0.625 -0.058594,-1.0234 -0.17188,-1.2031 -0.10547,-0.17578 -0.29297,-0.26562 -0.5625,-0.26562 -0.34375,0 -0.61719,0.14062 -0.8125,0.42188 -0.1875,0.28125 -0.28125,0.6875 -0.28125,1.2188 V 5e-5 h -1.8125 v -5.6562 h 1.8125 v 0.82812 c 0.22656,-0.32031 0.48438,-0.5625 0.76562,-0.71875 0.28906,-0.16406 0.60938,-0.25 0.95312,-0.25 0.39453,0 0.73828,0.09375 1.0312,0.28125 0.30078,0.1875 0.53125,0.45312 0.6875,0.79688 z"
         inkscape:connector-curvature="0" />
    </symbol>
    <symbol
       overflow="visible"
       id="p-7"
       style="overflow:visible">
      <path
         id="path1629"
         d="M 6.5625,-3.4375 V 0 H 4.7344 v -2.625 c 0,-0.5 -0.011719,-0.83594 -0.03125,-1.0156 C 4.679713,-3.8281 4.644556,-3.96872 4.59377,-4.06248 4.519551,-4.17576 4.42189,-4.2656 4.29689,-4.3281 4.1797,-4.3906 4.04689,-4.42185 3.89064,-4.42185 c -0.375,0 -0.67188,0.14844 -0.89062,0.4375 C 2.78127,-3.7031 2.6719,-3.30076 2.6719,-2.78125 V -5e-5 H 0.875 v -7.8594 h 1.7969 v 3.0312 c 0.28125,-0.33203 0.57031,-0.57812 0.875,-0.73438 0.30078,-0.15625 0.64062,-0.23438 1.0156,-0.23438 0.65625,0 1.1484,0.20312 1.4844,0.60938 0.34375,0.39844 0.51562,0.98047 0.51562,1.75 z"
         inkscape:connector-curvature="0" />
    </symbol>
    <symbol
       overflow="visible"
       id="o-7"
       style="overflow:visible">
      <path
         id="path1632"
         d="m 0.95312,-7.5469 h 2.1719 l 2.7344,5.1719 v -5.1719 h 1.8438 V 0 H 5.53132 L 2.79692,-5.1719 V 0 h -1.8438 z"
         inkscape:connector-curvature="0" />
    </symbol>
    <symbol
       overflow="visible"
       id="n-9"
       style="overflow:visible">
      <path
         id="path1635"
         d="M 6.5625,-3.4375 V 0 H 4.7344 v -2.6406 c 0,-0.48828 -0.011719,-0.82031 -0.03125,-1 C 4.679713,-3.8281 4.644556,-3.96872 4.59377,-4.06248 4.519551,-4.17576 4.42189,-4.2656 4.29689,-4.3281 4.1797,-4.3906 4.04689,-4.42185 3.89064,-4.42185 c -0.375,0 -0.67188,0.14844 -0.89062,0.4375 C 2.78127,-3.7031 2.6719,-3.30076 2.6719,-2.78125 V -5e-5 H 0.875 v -5.6562 h 1.7969 v 0.82812 c 0.28125,-0.33203 0.57031,-0.57812 0.875,-0.73438 0.30078,-0.15625 0.64062,-0.23438 1.0156,-0.23438 0.65625,0 1.1484,0.20312 1.4844,0.60938 0.34375,0.39844 0.51562,0.98047 0.51562,1.75 z"
         inkscape:connector-curvature="0" />
    </symbol>
    <symbol
       overflow="visible"
       id="m-2"
       style="overflow:visible">
      <path
         id="path1638"
         d="m 0.95312,-7.5469 h 3.2188 c 0.95703,0 1.6914,0.21484 2.2031,0.64062 0.51953,0.42969 0.78125,1.0391 0.78125,1.8281 0,0.79297 -0.26172,1.4023 -0.78125,1.8281 -0.51172,0.42969 -1.2461,0.64062 -2.2031,0.64062 H 2.89072 V -6e-5 h -1.9375 z m 1.9375,1.4219 v 2.0938 h 1.0781 c 0.375,0 0.66406,-0.085938 0.875,-0.26562 0.20703,-0.1875 0.3125,-0.44531 0.3125,-0.78125 0,-0.34375 -0.10547,-0.60156 -0.3125,-0.78125 -0.21094,-0.17578 -0.5,-0.26562 -0.875,-0.26562 z"
         inkscape:connector-curvature="0" />
    </symbol>
    <symbol
       overflow="visible"
       id="l-70"
       style="overflow:visible">
      <path
         id="path1641"
         d="m 0.875,-5.6562 h 1.7969 v 5.5625 c 0,0.75 -0.18359,1.3203 -0.54688,1.7188 C 1.75783,2.03135 1.2344,2.23448 0.54692,2.23448 H -0.3437 v -1.1875 h 0.3125 c 0.34375,0 0.57812,-0.078125 0.70312,-0.23438 0.13281,-0.15625 0.20312,-0.46094 0.20312,-0.90625 z m 0,-2.2031 h 1.7969 v 1.4688 H 0.875 Z"
         inkscape:connector-curvature="0" />
    </symbol>
  </defs>
  <g
     inkscape:label="Layer 1"
     inkscape:groupmode="layer"
     id="layer1"
     transform="translate(103.4328,-24.934337)">
    <g
       id="g2080"
       transform="translate(0,1.4809218)">
      <text
         xml:space="preserve"
         style="font-style:normal;font-weight:normal;font-size:10.58329964px;line-height:1.25;font-family:sans-serif;letter-spacing:0px;word-spacing:0px;fill:#000000;fill-opacity:1;stroke:none;stroke-width:0.26458299"
         x="-4.3673515"
         y="30.801781"
         id="text1794"><tspan
           sodipodi:role="line"
           id="tspan1792"
           style="font-style:normal;font-variant:normal;font-weight:normal;font-stretch:normal;font-family:'Times New Roman';-inkscape-font-specification:'Times New Roman, ';stroke-width:0.26458299"
           x="-4.3673515"
           y="30.801781">Explanations in Physics</tspan></text>
      <text
         xml:space="preserve"
         style="font-style:normal;font-weight:normal;font-size:8.46667004px;line-height:1.25;font-family:sans-serif;letter-spacing:0px;word-spacing:0px;fill:#000000;fill-opacity:1;stroke:none;stroke-width:0.26458299"
         x="-20.118053"
         y="46.130821"
         id="text7452"><tspan
           id="tspan2051"
           sodipodi:role="line"
           style="font-style:normal;font-variant:normal;font-weight:normal;font-stretch:normal;font-size:8.46667004px;font-family:'Times New Roman';-inkscape-font-specification:'Times New Roman, ';stroke-width:0.26458299"
           x="-20.118053"
           y="46.130821">1. <tspan
   style="font-weight:bold"
   id="tspan1370">Principles</tspan>  identify any fundamental physics concepts,</tspan><tspan
           id="tspan2057"
           sodipodi:role="line"
           style="font-style:normal;font-variant:normal;font-weight:normal;font-stretch:normal;font-size:8.46667004px;font-family:'Times New Roman';-inkscape-font-specification:'Times New Roman, ';stroke-width:0.26458299"
           x="-20.118053"
           y="56.959629">laws, or definitions you are starting with  </tspan><tspan
           sodipodi:role="line"
           style="font-style:normal;font-variant:normal;font-weight:normal;font-stretch:normal;font-size:8.46667004px;font-family:'Times New Roman';-inkscape-font-specification:'Times New Roman, ';stroke-width:0.26458299"
           x="-20.118053"
           y="67.752174"
           id="tspan1362">2. <tspan
   style="font-weight:bold"
   id="tspan974">Claims</tspan>  clearly state your claims about the situation </tspan><tspan
           sodipodi:role="line"
           style="font-style:normal;font-variant:normal;font-weight:normal;font-stretch:normal;font-size:8.46667004px;font-family:'Times New Roman';-inkscape-font-specification:'Times New Roman, ';stroke-width:0.26458299"
           x="-20.118053"
           y="78.580978"
           id="tspan1364">3. <tspan
   style="font-weight:bold"
   id="tspan982">Reasoning</tspan>  explain all reasoning steps to</tspan><tspan
           sodipodi:role="line"
           style="font-style:normal;font-variant:normal;font-weight:normal;font-stretch:normal;font-size:8.46667004px;font-family:'Times New Roman';-inkscape-font-specification:'Times New Roman, ';stroke-width:0.26458299"
           x="-20.118053"
           y="89.373528"
           id="tspan980">go from your principles and claims to your conclusion</tspan></text>
    </g>
    <g
       id="g2049"
       transform="translate(0,-9.2753603)">
      <g
         transform="matrix(1.088682,0,0,1.088682,2.4582691,4.0064712)"
         id="g2031">
        <path
           id="path1646"
           d="m -78.985808,47.369776 c 0,3.540919 -2.870265,6.411184 -6.410887,6.411184 -3.54092,0 -6.411185,-2.870265 -6.411185,-6.411184 0,-3.540622 2.870265,-6.410887 6.411185,-6.410887 3.540622,0 6.410887,2.870265 6.410887,6.410887"
           inkscape:connector-curvature="0"
           style="stroke-width:0.07422844" />
        <path
           id="path1648"
           d="m -61.11754,62.850116 c -0.762326,-1.174888 -2.332702,-1.508916 -3.507293,-0.746367 -3.11032,2.018642 -5.447402,2.871156 -6.948449,2.533936 -1.171102,-0.263281 -2.114026,-1.280144 -3.555691,-2.917846 -1.625751,-1.846729 -3.649367,-4.145212 -6.933085,-5.388538 -0.238339,-0.09017 -0.481616,-0.141205 -0.723437,-0.158025 -2.668141,-0.795952 -5.935082,-1.008765 -8.026321,1.082696 -0.570051,0.570052 -2.034305,1.690181 -2.034305,6.121247 V 76.75838 h 14.594796 l -0.504234,-11.483882 c 1.62345,1.840939 3.33449,3.696056 6.070476,4.311038 0.578172,0.129902 1.174293,0.195431 1.792468,0.195431 2.549598,0 5.471452,-1.115135 9.028404,-3.423194 1.174888,-0.762846 1.508916,-2.333297 0.746664,-3.507887 z"
           inkscape:connector-curvature="0"
           style="stroke-width:0.07422844" />
        <path
           id="path1650"
           d="m -69.651583,42.252987 c 0,0.715897 -0.580488,1.296697 -1.296696,1.296697 -0.716208,0 -1.296697,-0.580778 -1.296697,-1.296697 0,-0.716185 0.580489,-1.296696 1.296697,-1.296696 0.716208,0 1.296696,0.580489 1.296696,1.296696"
           inkscape:connector-curvature="0"
           style="stroke-width:0.07422844" />
        <path
           id="path1652"
           d="m -70.832557,43.847414 h -0.230517 c -1.018339,0 -1.844131,0.825792 -1.844131,1.844131 v 3.419111 c 0,0.526851 0.222107,1.000599 0.576139,1.336705 v 4.528231 c 0,0.764034 0.619051,1.383099 1.383099,1.383099 0.764048,0 1.383098,-0.61905 1.383098,-1.383099 v -4.528231 c 0.354322,-0.336054 0.576139,-0.810129 0.576139,-1.336705 v -3.419111 c 0,-1.018636 -0.825495,-1.844131 -1.843834,-1.844131 z"
           inkscape:connector-curvature="0"
           style="stroke-width:0.07422844" />
        <path
           id="path1654"
           d="m -72.331229,54.975964 c 0,0.764033 0.61905,1.383098 1.383098,1.383098 0.764049,0 1.383099,-0.61905 1.383099,-1.383098"
           inkscape:connector-curvature="0"
           style="stroke-width:0.07422844" />
        <path
           id="path1656"
           d="m -64.426643,42.252987 c 0,0.715897 -0.580489,1.296697 -1.296697,1.296697 -0.716208,0 -1.296696,-0.580778 -1.296696,-1.296697 0,-0.716185 0.580488,-1.296696 1.296696,-1.296696 0.716208,0 1.296697,0.580489 1.296697,1.296696"
           inkscape:connector-curvature="0"
           style="stroke-width:0.07422844" />
        <path
           id="path1658"
           d="m -65.607618,43.847414 h -0.230516 c -1.01834,0 -1.844131,0.825792 -1.844131,1.844131 v 3.419111 c 0,0.526851 0.222106,1.000599 0.576139,1.336705 v 4.528231 c 0,0.764034 0.61905,1.383099 1.383098,1.383099 0.764048,0 1.383098,-0.61905 1.383098,-1.383099 v -4.528231 c 0.354322,-0.336054 0.576139,-0.810129 0.576139,-1.336705 v -3.419111 c 3.06e-4,-1.018636 -0.825494,-1.844131 -1.843834,-1.844131 z"
           inkscape:connector-curvature="0"
           style="stroke-width:0.07422844" />
        <path
           id="path1660"
           d="m -67.10629,54.975964 c 0,0.764033 0.619051,1.383098 1.383099,1.383098 0.764048,0 1.383098,-0.61905 1.383098,-1.383098"
           inkscape:connector-curvature="0"
           style="stroke-width:0.07422844" />
        <path
           id="path1662"
           d="m -59.355357,42.252987 c 0,0.715897 -0.580778,1.296697 -1.296696,1.296697 -0.716186,0 -1.296697,-0.580778 -1.296697,-1.296697 0,-0.716185 0.580489,-1.296696 1.296697,-1.296696 0.715896,0 1.296696,0.580489 1.296696,1.296696"
           inkscape:connector-curvature="0"
           style="stroke-width:0.07422844" />
        <path
           id="path1664"
           d="m -60.536331,43.847414 h -0.230517 c -1.018339,0 -1.844131,0.825792 -1.844131,1.844131 v 3.419111 c 0,0.526851 0.222107,1.000599 0.576139,1.336705 v 4.528231 c 0,0.764034 0.619051,1.383099 1.383099,1.383099 0.764033,0 1.383098,-0.61905 1.383098,-1.383099 v -4.528231 c 0.354322,-0.336054 0.576139,-0.810129 0.576139,-1.336705 v -3.419111 c 3.05e-4,-1.018636 -0.825198,-1.844131 -1.843834,-1.844131 z"
           inkscape:connector-curvature="0"
           style="stroke-width:0.07422844" />
        <path
           id="path1666"
           d="m -62.035003,54.975964 c 0,0.764033 0.61905,1.383098 1.383098,1.383098 0.764034,0 1.383099,-0.61905 1.383099,-1.383098"
           inkscape:connector-curvature="0"
           style="stroke-width:0.07422844" />
        <path
           id="path1668"
           d="m -54.437723,42.252987 c 0,0.715897 -0.580489,1.296697 -1.296696,1.296697 -0.716186,0 -1.296697,-0.580778 -1.296697,-1.296697 0,-0.716185 0.580489,-1.296696 1.296697,-1.296696 0.716185,0 1.296696,0.580489 1.296696,1.296696"
           inkscape:connector-curvature="0"
           style="stroke-width:0.07422844" />
        <path
           id="path1670"
           d="m -55.618697,43.847414 h -0.230517 c -1.01834,0 -1.844131,0.825792 -1.844131,1.844131 v 3.419111 c 0,0.526851 0.222106,1.000599 0.576139,1.336705 v 4.528231 c 0,0.764034 0.61905,1.383099 1.383098,1.383099 0.764034,0 1.383099,-0.61905 1.383099,-1.383099 v -4.528231 c 0.354322,-0.336054 0.576139,-0.810129 0.576139,-1.336705 v -3.419111 c 2.98e-4,-1.018636 -0.825198,-1.844131 -1.843835,-1.844131 z"
           inkscape:connector-curvature="0"
           style="stroke-width:0.07422844" />
        <path
           id="path1672"
           d="m -57.117369,54.975964 c 0,0.764033 0.61905,1.383098 1.383098,1.383098 0.764033,0 1.383098,-0.61905 1.383098,-1.383098"
           inkscape:connector-curvature="0"
           style="stroke-width:0.07422844" />
      </g>
      <path
         d="m -52.447176,94.162647 h -49.812744 c -0.64845,0 -1.17288,-0.52492 -1.17288,-1.17289 V 43.177024 c 0,-0.647485 0.52443,-1.172888 1.17288,-1.172888 h 49.812744 c 0.648455,0 1.172884,0.524918 1.172884,1.172888 v 49.812733 c 0,0.64797 -0.524429,1.17289 -1.172884,1.17289 z m -48.640204,-2.34582 h 47.467667 v -47.46767 h -47.467667 z"
         id="path12387-5"
         style="stroke-width:0.12500381"
         inkscape:connector-curvature="0" />
    </g>
  </g>
</svg>
