<?xml version="1.0" encoding="UTF-8" standalone="no"?>
<!-- Created with Inkscape (http://www.inkscape.org/) -->

<svg
   xmlns:dc="http://purl.org/dc/elements/1.1/"
   xmlns:cc="http://creativecommons.org/ns#"
   xmlns:rdf="http://www.w3.org/1999/02/22-rdf-syntax-ns#"
   xmlns:svg="http://www.w3.org/2000/svg"
   xmlns="http://www.w3.org/2000/svg"
   xmlns:sodipodi="http://sodipodi.sourceforge.net/DTD/sodipodi-0.dtd"
   xmlns:inkscape="http://www.inkscape.org/namespaces/inkscape"
   id="svg2"
   version="1.1"
   inkscape:version="0.92.4 (5da689c313, 2019-01-14)"
   width="310.05591"
   height="530.89539"
   xml:space="preserve"
   sodipodi:docname="Lifting.svg"><metadata
     id="metadata8"><rdf:RDF><cc:Work
         rdf:about=""><dc:format>image/svg+xml</dc:format><dc:type
           rdf:resource="http://purl.org/dc/dcmitype/StillImage" /><dc:title></dc:title></cc:Work></rdf:RDF></metadata><defs
     id="defs6" /><sodipodi:namedview
     pagecolor="#ffffff"
     bordercolor="#666666"
     borderopacity="1"
     objecttolerance="10"
     gridtolerance="10"
     guidetolerance="10"
     inkscape:pageopacity="0"
     inkscape:pageshadow="2"
     inkscape:window-width="1920"
     inkscape:window-height="1001"
     id="namedview4"
     showgrid="false"
     fit-margin-top="2"
     fit-margin-left="2"
     fit-margin-right="2"
     fit-margin-bottom="2"
     inkscape:zoom="0.50000005"
     inkscape:cx="58.413391"
     inkscape:cy="364.32922"
     inkscape:window-x="1911"
     inkscape:window-y="-9"
     inkscape:window-maximized="1"
     inkscape:current-layer="g10" /><g
     id="g10"
     inkscape:groupmode="layer"
     inkscape:label="ink_ext_XXXXXX"
     transform="matrix(1.25,0,0,-1.25,369.85936,210.78782)">
















<circle
   style="fill:#d73f09;fill-opacity:1;stroke:#000000;stroke-width:4.72921419;stroke-miterlimit:4;stroke-dasharray:none;stroke-dashoffset:0;stroke-opacity:1"
   id="path1009"
   cx="-178.62331"
   cy="-126.72469"
   r="29.83255"
   transform="scale(1,-1)" /><path
   style="fill:#d73f09;fill-opacity:1;stroke:#000000;stroke-width:4.72921419;stroke-linecap:butt;stroke-linejoin:miter;stroke-miterlimit:4;stroke-dasharray:none;stroke-opacity:1"
   d="m -289.3708,-17.786822 c 56.3072,58.809775 95.09663,98.850468 108.86061,100.101711 13.76399,1.251265 65.0661,15.015266 75.07628,13.764001 10.010159,-1.251287 36.286858,-20.020369 36.286858,-40.040694 0,-20.020324 11.261449,-294.048726 2.502552,-302.807666 -8.758927,-8.75887 -35.0356,-6.25632 -38.78941,7.50764 -3.75381,13.764 3.75381,135.1373 -5.0051,135.1373 -8.7589,0 -75.07626,-137.63981 -83.83516,-142.64494 -8.7589,-5.00506 -33.78434,-10.01014 -37.53815,2.50255 -3.75382,12.51272 76.32756,165.167815 76.32756,177.680529 0,12.512736 7.50762,92.594078 -1.25128,98.850446 -8.75889,6.256324 -92.59408,-53.804694 -98.85044,-53.804694 -6.25635,0 -33.78432,3.753817 -33.78432,3.753817 z"
   id="path1019"
   inkscape:connector-curvature="0" /><g
   id="g930"
   transform="translate(-259.99997,1.5999998)"><g
     transform="matrix(0.61465372,0.14278369,-0.14278369,0.61465372,102.97874,-55.663521)"
     id="g914"><path
       style="fill:#4a773c;fill-opacity:1;stroke:#000000;stroke-width:4;stroke-miterlimit:4;stroke-dasharray:none;stroke-dashoffset:0;stroke-opacity:1"
       inkscape:transform-center-y="43.477764"
       d="M 216.97158,305.64072 155.4847,268.338 93.997828,305.64072 Z"
       id="path907"
       inkscape:connector-curvature="0"
       sodipodi:nodetypes="cccc" /><circle
       style="fill:#4a773c;fill-opacity:1;stroke:#000000;stroke-width:4.72921419;stroke-miterlimit:4;stroke-dasharray:none;stroke-dashoffset:0;stroke-opacity:1"
       id="path1009-3"
       cx="153.25723"
       cy="-290.90094"
       r="29.83255"
       transform="scale(1,-1)" /></g><path
     inkscape:connector-curvature="0"
     id="path1019-0"
     d="m 109.61552,89.06414 c 35.53097,37.11015 42.40789,27.97664 51.09324,28.76619 8.68535,0.78957 15.45801,11.07494 21.77464,10.28537 6.31661,-0.78959 22.89774,-12.63326 22.89774,-25.26648 0,-12.633235 7.1062,-70.609916 1.57916,-76.136984 -5.52707,-5.527027 -22.10817,-3.947867 -24.4769,4.737466 -2.36873,8.685359 2.36873,16.024338 -3.15832,16.024338 -5.52704,0 -15.37464,-7.203473 -20.90168,-10.361805 -5.52704,-3.158293 -21.3186,-6.316601 -23.68733,1.57916 -2.36872,7.895778 16.16424,24.574194 16.16424,32.469966 0,7.895791 4.73745,12.737999 -0.78959,16.685894 -5.52703,3.947864 -15.22873,-1.151851 -19.17662,-1.151851 -3.94788,0 -21.31858,2.368736 -21.31858,2.368736 z"
     style="fill:#4a773c;fill-opacity:1;stroke:#000000;stroke-width:2.98422933;stroke-linecap:butt;stroke-linejoin:miter;stroke-miterlimit:4;stroke-dasharray:none;stroke-opacity:1"
     sodipodi:nodetypes="cccsccscsscsc" /></g></g></svg>