<?xml version="1.0" encoding="UTF-8" standalone="no"?>
<svg
   xmlns:dc="http://purl.org/dc/elements/1.1/"
   xmlns:cc="http://creativecommons.org/ns#"
   xmlns:rdf="http://www.w3.org/1999/02/22-rdf-syntax-ns#"
   xmlns:svg="http://www.w3.org/2000/svg"
   xmlns="http://www.w3.org/2000/svg"
   xmlns:sodipodi="http://sodipodi.sourceforge.net/DTD/sodipodi-0.dtd"
   xmlns:inkscape="http://www.inkscape.org/namespaces/inkscape"
   xml:space="preserve"
   version="1.1"
   style="clip-rule:evenodd;fill-rule:evenodd;image-rendering:optimizeQuality;shape-rendering:geometricPrecision;text-rendering:geometricPrecision"
   viewBox="0 0 430.45517 491.72796"
   x="0px"
   y="0px"
   id="svg14"
   sodipodi:docname="RHR.svg"
   width="430.45517"
   height="491.72797"
   inkscape:version="0.92.4 (5da689c313, 2019-01-14)"><metadata
     id="metadata18"><rdf:RDF><cc:Work
         rdf:about=""><dc:format>image/svg+xml</dc:format><dc:type
           rdf:resource="http://purl.org/dc/dcmitype/StillImage" /><dc:title></dc:title></cc:Work></rdf:RDF></metadata><sodipodi:namedview
     pagecolor="#ffffff"
     bordercolor="#666666"
     borderopacity="1"
     objecttolerance="10"
     gridtolerance="10"
     guidetolerance="10"
     inkscape:pageopacity="0"
     inkscape:pageshadow="2"
     inkscape:window-width="1920"
     inkscape:window-height="1001"
     id="namedview16"
     showgrid="false"
     fit-margin-top="2"
     fit-margin-left="2"
     fit-margin-right="2"
     fit-margin-bottom="2"
     inkscape:zoom="1"
     inkscape:cx="334.51565"
     inkscape:cy="326.16576"
     inkscape:window-x="-9"
     inkscape:window-y="-9"
     inkscape:window-maximized="1"
     inkscape:current-layer="svg14" /><defs
     id="defs4"><marker
       inkscape:stockid="Arrow1Mend"
       orient="auto"
       refY="0"
       refX="0"
       id="Arrow1Mend"
       style="overflow:visible"
       inkscape:isstock="true"><path
         id="path847"
         d="M 0,0 5,-5 -12.5,0 5,5 Z"
         style="fill:#000000;fill-opacity:1;fill-rule:evenodd;stroke:#000000;stroke-width:1.00000003pt;stroke-opacity:1"
         transform="matrix(-0.4,0,0,-0.4,-4,0)"
         inkscape:connector-curvature="0" /></marker><style
       type="text/css"
       id="style2">
   
    .fil0 {fill:black;fill-rule:nonzero}
   
  </style><marker
       inkscape:stockid="Arrow1Mend"
       orient="auto"
       refY="0"
       refX="0"
       id="Arrow1Mend-8"
       style="overflow:visible"
       inkscape:isstock="true"><path
         inkscape:connector-curvature="0"
         id="path847-9"
         d="M 0,0 5,-5 -12.5,0 5,5 Z"
         style="fill:#000000;fill-opacity:1;fill-rule:evenodd;stroke:#000000;stroke-width:1.00000003pt;stroke-opacity:1"
         transform="matrix(-0.4,0,0,-0.4,-4,0)" /></marker></defs><g
     id="g8"
     transform="matrix(0.00957566,0,0,0.00957566,12.989044,-17.049503)"><path
       class="fil0"
       d="m 43155.31,26902.09 c 327.51,17.96 300.25,516 -27.34,498.04 -2256.08,-125.27 -4102.11,-855.88 -5712.13,-1943.52 355.94,425.91 720.64,855.15 1156.89,1330.13 222.23,241.5 -144.97,579.38 -367.18,337.9 -524.57,-571.14 -960.85,-1095.1 -1404.62,-1628.06 -547.39,-657.42 -1106.49,-1328.88 -1889.81,-2151.36 -2475.59,-2491.14 -4521.91,-5483.74 -6982.74,-8087.69 -2006.56,-2123.2 -3485.43,-3688.04 -5015.22,-5551.53 -1334.7,-1625.87 -1976.55,-2974.48 -2839,-4866.92 -1269.09,-2784.7 -3447.38,-3399.45 -4172.83,-159.39 -327.27,1461.62 -173.33,3480.66 813.77,5665.72 270.41,598.62 974.65,1976.42 1723.47,2058.59 326.26,34.68 273.55,530.78 -52.74,496.1 -61.08,-6.7 -121.86,-18.93 -182.19,-36.16 1828.68,2477.12 2673.5,3704.09 3306.25,6496.16 192.64,850.1 397.67,1770.28 388.98,2643.94 -3.58,356.79 -9.46,941.56 152.35,1124.57 216.82,245.06 -156.25,575.11 -373.04,330.08 -288.73,-326.55 -281.66,-1029.6 -277.35,-1458.55 0.98,-117.88 -1.24,-230.88 -9.97,-348.39 -149.08,215.46 -327,409.04 -475.64,623.41 -186.02,269.42 -596.18,-13.78 -410.16,-283.2 214.57,-309.42 505.73,-588.4 640.78,-942.5 -1176.78,1053.04 -4037.55,1787.21 -6049.54,2303.42 -2386.6,612.34 -5717.96,1327.96 -7264.66,3331.59 -630.21,816.39 -868.23,1691.95 -654.94,2733.45 134.77,658.06 361.21,1073.61 992.99,1251.22 2706.83,761.11 8036.66,-196.49 10775.96,-798.31 1350.19,-296.62 2206.77,-659.98 2706.41,-1103.91 951.66,-845.54 748.52,-2650.92 -540.01,-3078.33 -1253.04,-415.64 -4880.71,-205.56 -6366.48,-57.87 -405.81,40.33 -874.35,62.29 -1268.12,21.64 -337.16,-34.8 -629.71,-118.44 -810.5,-278.2 -245.03,-216.79 85.02,-589.86 330.08,-373.04 93.21,82.37 289.3,130.17 531.2,155.14 391.61,40.43 808.78,13.83 1200.06,-24.75 -84.35,-97.96 -188.27,-180.08 -305.37,-235.35 -296.74,-140.03 -83.81,-591.2 212.9,-451.18 262.83,130.12 549.87,337.52 742.99,631.99 778.48,-57.52 1473.72,-73.29 2253.93,-91.93 145.32,-134.27 251.73,-358.02 227.82,-558.02 -38.54,-326.28 457.56,-384.87 496.1,-58.6 24.72,206.72 -19.01,416.57 -108.19,603.46 1297.43,-22.64 2294.12,3.32 3019.84,244.05 1677.93,556.57 1952.38,2825.33 715.79,3924.03 -201.71,179.22 -450.24,345.75 -752.17,500.22 309.83,35.16 615.2,103.46 895.81,215.68 630.04,251.96 1135.88,716.45 1307.41,1504.76 87.47,402.02 103.2,758.62 59.34,1076.39 2070.42,1199.33 6945.47,1447.15 9092.47,433 296.71,-140.02 509.64,311.15 212.9,451.18 -2281.36,1077.61 -7197.69,820.44 -9433.19,-385.47 -174.6,451.39 -490.15,808.9 -893.95,1101.02 -201.9,146.05 -425.32,274.11 -663.34,388.43 272,62.57 505.35,165.55 705.69,296.48 1382.21,903.34 1527.56,3039.69 211.44,4178.48 -373.72,323.37 -861.61,613.35 -1459.69,878.15 2986.66,298.12 2717.82,3707.47 215.59,4452.43 -282.5,377.69 -154.93,1375.99 233.17,1648.81 268.13,188.59 -18.97,596.79 -287.1,408.2 -500.69,-351.91 -695.34,-1308.9 -556.21,-1891.74 -504.63,136.07 -1092.71,297.74 -1665.29,474.65 -418.65,226.87 -496.16,953.78 -395.2,1368.05 77.06,318.6 -407.33,435.72 -484.38,117.18 -93.68,-384.4 -67.53,-847.32 70.37,-1218.85 -948.24,335.76 -1696.97,703.68 -1693.22,1045.87 2.55,327.58 -495.49,331.42 -498.04,3.9 -6.61,-603.06 1003.31,-1132.37 2196.56,-1562.94 980.86,-353.9 1867.11,-583.05 2874.21,-853.81 2552.29,-688.6 2257.27,-4398.55 -1622.47,-3385.16 -2055.55,536.92 -4553.85,1264.29 -6808.06,1753.13 -780.81,200.73 -1108.85,1030.95 -1154.27,1763.29 -61.38,989.33 354.42,2161.69 1311.16,2588.05 2310.22,1029.51 6313.48,1217.2 10679.21,877.46 4198.97,-326.78 8721.97,-1142.8 12399.69,-2169.28 1038.67,-289.9 1915.35,-533.08 2803.21,-1197.66 526.03,-393.75 937.93,-872.68 1061.39,-1411.04 73.22,-319.85 559.53,-208.52 486.32,111.32 -124.01,540.74 -465.5,1019.9 -917.18,1426.42 1163.95,-349.1 2345.87,-625.9 3548.21,-805.98 325,-47.52 397.24,446.63 72.26,494.14 -2488.95,372.79 -4579.62,1212.16 -6954.79,1873.08 -3702.78,1030.51 -8245.7,1848.92 -12462.01,2177.04 -4437.82,345.35 -8525.84,146.24 -10919.43,-920.42 -1153.89,-514.22 -1680.56,-1871.41 -1606.08,-3072.43 35.76,-576.41 215.08,-1177.36 592.89,-1624.48 -3268.6,7.33 -4329.03,-3948.67 -2280.82,-5687.31 -2957.08,-627.36 -2715.53,-4107.28 -1898.69,-5569.76 -490.34,-269.34 -788.55,-834.04 -919.4,-1472.92 -236.53,-1154.95 16.49,-2155.86 699.39,-3076.24 1618.42,-2181.21 5026.86,-2914.33 7585.45,-3570.82 2358.48,-605.1 5945.08,-1525.51 6199.05,-2701.26 -43.35,-219.4 -87.99,-430.25 -134.19,-633.58 -589.93,-2596.18 -1435.24,-3966.94 -3113.98,-6253.66 -578.54,-788.07 -1146.62,-1611.04 -1621.54,-2643.16 -1072.07,-2329.9 -1238.76,-4498.19 -887.59,-6066.53 819.45,-3659.87 3608.66,-3239.53 5112.27,59.77 842.53,1848.74 1467.11,3169.64 2770.64,4757.56 1513.09,1843.15 2989.94,3405.85 4993.74,5526.13 2464.99,2608.34 4517.54,5617.69 7003.14,8104.68 2106.79,2107.99 4529.33,3696.71 7860.51,3881.68 z m -1865.83,9745.2 c -21.58,195.76 -319.24,162.95 -297.66,-32.82 61.6,-549.31 21.52,-1482.85 -123.18,-2013.94 -51.64,-189.6 236.64,-268.11 288.28,-78.52 154.91,568.53 198.48,1537.61 132.56,2125.28 z m -922.17,641.83 c -45.47,191.91 -337.27,122.77 -291.8,-69.14 186.7,-785.29 57.37,-2513.67 -256.59,-3251.27 -77.06,-181.14 198.35,-298.29 275.4,-117.18 339.12,796.68 474.46,2590.21 272.99,3437.59 z m -20885.54,2602.5 c 1320.29,-392.5 2301.51,-834.52 2918.56,-1368.45 1056.32,-914 944.19,-2662.76 -158.7,-3383.56 -776.66,-507.59 -1720.84,-224.85 -2542.31,-8.06 -2745.93,724.61 -6600.54,1717.31 -9410.95,1529.45 -2076.87,841.98 -1904.74,5721.69 2293.94,5016.73 2199.89,-369.22 4733.38,-1142.27 6899.46,-1786.11 z m -430.66,-9532.51 c -2850.45,626.23 -8145.46,1569.67 -10974.45,802.54 -786.4,1316.46 -1016.59,4611.71 1876.1,4966.25 2688.25,329.5 6950.98,-774.58 9619.6,-1478.77 940.95,-248.31 1931.47,-527.72 2607.4,-1016.69 632.95,-457.89 994.51,-1121.22 767.11,-2166.36 -130.24,-598.54 -519.26,-953.2 -1004.67,-1147.32 -983.05,-393.12 -1918.29,-173.35 -2891.09,40.35 z"
       id="path6"
       inkscape:connector-curvature="0"
       style="fill:#000000;fill-rule:nonzero" /></g><path
     style="fill:none;stroke:#000000;stroke-width:3;stroke-linecap:butt;stroke-linejoin:miter;stroke-miterlimit:4;stroke-dasharray:none;stroke-opacity:1;marker-end:url(#Arrow1Mend)"
     d="M 363.99104,150.2275 V 10.227496"
     id="path836"
     inkscape:connector-curvature="0" /><text
     xml:space="preserve"
     style="font-size:18.66666603px;line-height:1.25;font-family:'Book Antiqua';-inkscape-font-specification:'Book Antiqua';letter-spacing:0px;word-spacing:0px"
     x="377.99146"
     y="95.227493"
     id="text1122"><tspan
       sodipodi:role="line"
       id="tspan1120"
       x="377.99146"
       y="95.227493"
       style="font-size:37.33333206px">C</tspan></text>
<path
     style="fill:none;stroke:#000000;stroke-width:3;stroke-linecap:butt;stroke-linejoin:miter;stroke-miterlimit:4;stroke-dasharray:none;stroke-opacity:1;marker-end:url(#Arrow1Mend-8);image-rendering:optimizeQuality;shape-rendering:geometricPrecision;text-rendering:geometricPrecision"
     d="M 147.91204,161.1835 H 7.912044"
     id="path836-7"
     inkscape:connector-curvature="0" /><text
     xml:space="preserve"
     style="font-size:18.66666603px;line-height:1.25;font-family:'Book Antiqua';-inkscape-font-specification:'Book Antiqua';letter-spacing:0px;word-spacing:0px;image-rendering:optimizeQuality;shape-rendering:geometricPrecision;text-rendering:geometricPrecision"
     x="66.911369"
     y="139.18257"
     id="text1122-3"><tspan
       sodipodi:role="line"
       id="tspan1120-2"
       x="66.911369"
       y="139.18257"
       style="font-size:37.33333206px">A</tspan></text>
<text
     xml:space="preserve"
     style="font-size:18.66666603px;line-height:1.25;font-family:'Book Antiqua';-inkscape-font-specification:'Book Antiqua';letter-spacing:0px;word-spacing:0px;image-rendering:optimizeQuality;shape-rendering:geometricPrecision;text-rendering:geometricPrecision"
     x="254.48169"
     y="481.17087"
     id="text1122-3-7"><tspan
       sodipodi:role="line"
       id="tspan1120-2-1"
       x="254.48169"
       y="481.17087"
       style="font-size:37.33333206px">B</tspan></text>
<circle
     style="fill:none;stroke:#000000;stroke-width:4;stroke-miterlimit:4;stroke-dasharray:none"
     id="path1611"
     cx="222.99144"
     cy="470.22797"
     r="18.508474" /><circle
     style="fill:#000000;stroke:#000000;stroke-width:0.84027582;stroke-miterlimit:4;stroke-dasharray:none;image-rendering:optimizeQuality;shape-rendering:geometricPrecision;text-rendering:geometricPrecision"
     id="path1611-5"
     cx="222.99144"
     cy="470.22797"
     r="7.8425736" /></svg>