<?xml version="1.0" encoding="UTF-8" standalone="no"?>
<!-- Created with Inkscape (http://www.inkscape.org/) -->

<svg
   xmlns:dc="http://purl.org/dc/elements/1.1/"
   xmlns:cc="http://creativecommons.org/ns#"
   xmlns:rdf="http://www.w3.org/1999/02/22-rdf-syntax-ns#"
   xmlns:svg="http://www.w3.org/2000/svg"
   xmlns="http://www.w3.org/2000/svg"
   xmlns:sodipodi="http://sodipodi.sourceforge.net/DTD/sodipodi-0.dtd"
   xmlns:inkscape="http://www.inkscape.org/namespaces/inkscape"
   id="svg2"
   version="1.1"
   inkscape:version="0.92.4 (5da689c313, 2019-01-14)"
   width="1041.9506"
   height="380.85043"
   xml:space="preserve"
   sodipodi:docname="Rope-systems.svg"><metadata
     id="metadata8"><rdf:RDF><cc:Work
         rdf:about=""><dc:format>image/svg+xml</dc:format><dc:type
           rdf:resource="http://purl.org/dc/dcmitype/StillImage" /><dc:title></dc:title></cc:Work></rdf:RDF></metadata><defs
     id="defs6"><marker
   inkscape:stockid="Arrow1Mend"
   orient="auto"
   refY="0"
   refX="0"
   id="marker1139"
   style="overflow:visible"
   inkscape:isstock="true"><path
     id="path1137"
     d="M -4.2666667,0 -6.4,2.1333333 1.0666667,0 -6.4,-2.1333333 Z"
     style="fill:#000000;fill-opacity:1;fill-rule:evenodd;stroke:#000000;stroke-width:0.42666668pt;stroke-opacity:1"
     inkscape:connector-curvature="0" /></marker><marker
   inkscape:stockid="Arrow1Mend"
   orient="auto"
   refY="0"
   refX="0"
   id="Arrow1Mend"
   style="overflow:visible"
   inkscape:isstock="true"><path
     id="path836"
     d="M -4.2666667,0 -6.4,2.1333333 1.0666667,0 -6.4,-2.1333333 Z"
     style="fill:#000000;fill-opacity:1;fill-rule:evenodd;stroke:#000000;stroke-width:0.42666668pt;stroke-opacity:1"
     inkscape:connector-curvature="0" /></marker><clipPath
   clipPathUnits="userSpaceOnUse"
   id="clipPath18"><path
     d="M 0,0 H 1677 V 937.891 H 0 Z"
     id="path20"
     inkscape:connector-curvature="0" /></clipPath><marker
   inkscape:stockid="Arrow1Mend"
   orient="auto"
   refY="0"
   refX="0"
   id="marker1139-6"
   style="overflow:visible"
   inkscape:isstock="true"><path
     id="path1137-2"
     d="M -4.2666667,0 -6.4,2.1333333 1.0666667,0 -6.4,-2.1333333 Z"
     style="fill:#000000;fill-opacity:1;fill-rule:evenodd;stroke:#000000;stroke-width:0.42666668pt;stroke-opacity:1"
     inkscape:connector-curvature="0" /></marker>




</defs><sodipodi:namedview
     pagecolor="#ffffff"
     bordercolor="#666666"
     borderopacity="1"
     objecttolerance="10"
     gridtolerance="10"
     guidetolerance="10"
     inkscape:pageopacity="0"
     inkscape:pageshadow="2"
     inkscape:window-width="1920"
     inkscape:window-height="1001"
     id="namedview4"
     showgrid="false"
     fit-margin-top="2"
     fit-margin-left="2"
     fit-margin-right="2"
     fit-margin-bottom="2"
     inkscape:zoom="0.70710678"
     inkscape:cx="422.96648"
     inkscape:cy="413.20861"
     inkscape:window-x="1911"
     inkscape:window-y="-9"
     inkscape:window-maximized="1"
     inkscape:current-layer="g10" /><g
     id="g10"
     inkscape:groupmode="layer"
     inkscape:label="ink_ext_XXXXXX"
     transform="matrix(1.25,0,0,-1.25,400.7238,-116.64684)">
<path
   style="fill:none;fill-rule:evenodd;stroke:#000000;stroke-width:6.60397482px;stroke-linecap:butt;stroke-linejoin:miter;stroke-opacity:1"
   d="M 511.3814,-311.05397 H -318.97904"
   id="path4293"
   inkscape:connector-curvature="0"
   sodipodi:nodetypes="cc" />
<path
   style="fill:#b3b3b3;stroke:#808080;stroke-width:6.19122648px;stroke-linecap:butt;stroke-linejoin:miter;stroke-opacity:1"
   d="M 151.45016,-189.98287 H 511.3814"
   id="path902"
   inkscape:connector-curvature="0"
   sodipodi:nodetypes="cc" /><path
   style="fill:#b3b3b3;stroke:#808080;stroke-width:6.19122648px;stroke-linecap:butt;stroke-linejoin:miter;stroke-opacity:1"
   d="M -107.0572,-186.61801 H 83.2157"
   id="path902-9"
   inkscape:connector-curvature="0"
   sodipodi:nodetypes="cc" /><path
   style="fill:#003b5c;fill-opacity:1;stroke:#000000;stroke-width:3.20863461;stroke-miterlimit:4;stroke-dasharray:none;stroke-dashoffset:0;stroke-opacity:1"
   d="M 50.34184,-283.54719 H 170.0363 l 20.30553,8 -18.85859,-23.42334 -16.18265,-8 H 31.48325 Z"
   id="rect911-9"
   inkscape:connector-curvature="0"
   sodipodi:nodetypes="ccccccc" /><g
   id="g1502-9-9"
   transform="matrix(-1.2987365,0.03551174,0.03551174,1.2987365,555.53031,-29.418574)"
   style="fill:#d73f09;fill-opacity:1"><circle
     transform="scale(1,-1)"
     r="10.632758"
     cy="76.961906"
     cx="348.74118"
     id="path1009-2-4"
     style="fill:#d73f09;fill-opacity:1;stroke:#000000;stroke-width:1.68556118;stroke-miterlimit:4;stroke-dasharray:none;stroke-dashoffset:0;stroke-opacity:1" /><path
     inkscape:connector-curvature="0"
     id="path1019-0-8"
     d="m 297.00849,-133.6003 c 20.06872,20.96066 33.89384,35.231753 38.79952,35.677713 4.90569,0.44597 23.19051,5.35166 26.75829,4.9057 3.56776,-0.44598 12.93317,-7.135563 12.93317,-14.271093 0,-7.13554 4.01374,-104.80328 0.89194,-107.92509 -3.12181,-3.12179 -12.4872,-2.22985 -13.82511,2.67583 -1.33791,4.90569 1.33791,48.16491 -1.78389,48.16491 -3.1218,0 -26.75828,-49.05684 -29.88008,-50.84074 -3.1218,-1.78388 -12.04124,-3.56776 -13.37915,0.89195 -1.33792,4.45971 27.20426,58.86822 27.20426,63.32794 0,4.45972 2.67583,33.00188 -0.44597,35.23174 -3.1218,2.22985 -33.00189,-19.17678 -35.23175,-19.17678 -2.22985,0 -12.04123,1.33792 -12.04123,1.33792 z"
     style="fill:#d73f09;fill-opacity:1;stroke:#000000;stroke-width:1.68556118;stroke-linecap:butt;stroke-linejoin:miter;stroke-miterlimit:4;stroke-dasharray:none;stroke-opacity:1" /></g><path
   style="fill:#d45500;fill-opacity:1;stroke:#000000;stroke-width:3.20863461;stroke-miterlimit:4;stroke-dasharray:none;stroke-dashoffset:0;stroke-opacity:1"
   d="m -209.25173,-282.64431 h 119.69447 l 20.305525,8 -18.858591,-23.42334 -16.182654,-8 h -123.81734 z"
   id="rect911"
   inkscape:connector-curvature="0"
   sodipodi:nodetypes="ccccccc" /><g
   id="g1502"
   transform="matrix(-1.3462817,0,0,1.3462817,303.1999,-6.754374)"><circle
     transform="scale(1,-1)"
     r="10.632758"
     cy="76.961906"
     cx="348.74118"
     id="path1009"
     style="fill:#003b5c;fill-opacity:1;stroke:#000000;stroke-width:1.68556118;stroke-miterlimit:4;stroke-dasharray:none;stroke-dashoffset:0;stroke-opacity:1" /><path
     inkscape:connector-curvature="0"
     id="path1019"
     d="m 297.00849,-133.6003 c 20.06872,20.96066 33.89384,35.231753 38.79952,35.677713 4.90569,0.44597 23.19051,5.35166 26.75829,4.9057 3.56776,-0.44598 12.93317,-7.135563 12.93317,-14.271093 0,-7.13554 4.01374,-104.80328 0.89194,-107.92509 -3.12181,-3.12179 -12.4872,-2.22985 -13.82511,2.67583 -1.33791,4.90569 1.33791,48.16491 -1.78389,48.16491 -3.1218,0 -26.75828,-49.05684 -29.88008,-50.84074 -3.1218,-1.78388 -12.04124,-3.56776 -13.37915,0.89195 -1.33792,4.45971 27.20426,58.86822 27.20426,63.32794 0,4.45972 2.67583,33.00188 -0.44597,35.23174 -3.1218,2.22985 -33.00189,-19.17678 -35.23175,-19.17678 -2.22985,0 -12.04123,1.33792 -12.04123,1.33792 z"
     style="fill:#003b5c;fill-opacity:1;stroke:#000000;stroke-width:1.68556118;stroke-linecap:butt;stroke-linejoin:miter;stroke-miterlimit:4;stroke-dasharray:none;stroke-opacity:1" /></g><text
   xml:space="preserve"
   style="font-style:normal;font-variant:normal;font-weight:normal;font-stretch:normal;font-size:99.05962372px;line-height:0%;font-family:'Times New Roman';-inkscape-font-specification:'Times New Roman, ';text-align:start;letter-spacing:0px;word-spacing:0px;text-anchor:start;fill:#000000;fill-opacity:1;stroke:none;stroke-width:2.18412685px;stroke-linecap:butt;stroke-linejoin:miter;stroke-opacity:1"
   x="62.1171"
   y="376.58591"
   id="text823-0-5-3-3-6-1-5"
   transform="scale(1,-1)"><tspan
     sodipodi:role="line"
     x="62.1171"
     y="376.58591"
     style="font-style:normal;font-size:99.05962372px;line-height:125%;text-align:start;text-anchor:start;stroke-width:2.18412685px"
     id="tspan873-7-2-0-39-4-6"><tspan
       style="font-style:italic;stroke-width:2.18412685px"
       id="tspan4223-4-4">m</tspan><tspan
       style="font-size:51.51099777px;baseline-shift:sub;stroke-width:2.18412685px"
       id="tspan4221-0-0">2</tspan></tspan></text>
<text
   xml:space="preserve"
   style="font-style:normal;font-variant:normal;font-weight:normal;font-stretch:normal;font-size:99.05962372px;line-height:0%;font-family:'Times New Roman';-inkscape-font-specification:'Times New Roman, ';text-align:start;letter-spacing:0px;word-spacing:0px;text-anchor:start;fill:#000000;fill-opacity:1;stroke:none;stroke-width:2.18412685px;stroke-linecap:butt;stroke-linejoin:miter;stroke-opacity:1"
   x="-203.75505"
   y="376.58591"
   id="text823-0-5-3-3-6-1-5-4"
   transform="scale(1,-1)"><tspan
     sodipodi:role="line"
     x="-203.75505"
     y="376.58591"
     style="font-style:normal;font-size:99.05962372px;line-height:125%;text-align:start;text-anchor:start;stroke-width:2.18412685px"
     id="tspan873-7-2-0-39-4-6-3"><tspan
       style="font-style:italic;stroke-width:2.18412685px"
       id="tspan4223-4-4-1">m</tspan><tspan
       style="font-size:51.51099777px;baseline-shift:sub;stroke-width:2.18412685px"
       id="tspan4221-0-0-8">1</tspan></tspan></text>
</g></svg>