<?xml version="1.0" encoding="UTF-8" standalone="no"?>
<!-- Created with Inkscape (http://www.inkscape.org/) -->

<svg
   xmlns:dc="http://purl.org/dc/elements/1.1/"
   xmlns:cc="http://creativecommons.org/ns#"
   xmlns:rdf="http://www.w3.org/1999/02/22-rdf-syntax-ns#"
   xmlns:svg="http://www.w3.org/2000/svg"
   xmlns="http://www.w3.org/2000/svg"
   xmlns:sodipodi="http://sodipodi.sourceforge.net/DTD/sodipodi-0.dtd"
   xmlns:inkscape="http://www.inkscape.org/namespaces/inkscape"
   version="1.1"
   id="svg2"
   xml:space="preserve"
   width="344"
   height="374.66666"
   viewBox="0 0 344 374.66666"
   sodipodi:docname="SpecialCases.svg"
   inkscape:version="0.92.4 (5da689c313, 2019-01-14)"
   inkscape:export-filename="C:\Users\HP\Downloads\bitmap.png"
   inkscape:export-xdpi="96"
   inkscape:export-ydpi="96"><metadata
     id="metadata8"><rdf:RDF><cc:Work
         rdf:about=""><dc:format>image/svg+xml</dc:format><dc:type
           rdf:resource="http://purl.org/dc/dcmitype/StillImage" /><dc:title></dc:title></cc:Work></rdf:RDF></metadata><defs
     id="defs6" /><sodipodi:namedview
     pagecolor="#ffffff"
     bordercolor="#666666"
     borderopacity="1"
     objecttolerance="10"
     gridtolerance="10"
     guidetolerance="10"
     inkscape:pageopacity="0"
     inkscape:pageshadow="2"
     inkscape:window-width="1920"
     inkscape:window-height="1001"
     id="namedview4"
     showgrid="false"
     inkscape:zoom="1.2597865"
     inkscape:cx="172"
     inkscape:cy="187.33333"
     inkscape:window-x="-9"
     inkscape:window-y="-9"
     inkscape:window-maximized="1"
     inkscape:current-layer="g10" /><g
     id="g10"
     inkscape:groupmode="layer"
     inkscape:label="ink_ext_XXXXXX"
     transform="matrix(1.3333333,0,0,-1.3333333,0,374.66667)"><g
       id="g12"
       transform="scale(0.1)"><g
         id="g14"
         transform="scale(10)"><text
           transform="matrix(1,0,0,-1,40.7098,270.445)"
           style="font-variant:normal;font-weight:normal;font-size:14px;font-family:'Times New Roman';-inkscape-font-specification:TimesNewRomanPSMT;writing-mode:lr-tb;fill:#000000;fill-opacity:1;fill-rule:nonzero;stroke:none"
           id="text18"><tspan
             x="0 7.7839999 11.676 17.892 24.892 31.108 36.554001 40.054001 47.054001 51.716 55.216 63 70 76.216003 82.431999 86.323997 92.540001 96.431999 101.094 107.31 113.526 118.92992 125.14592 127.87579 137.98378 144.98378 151.19978 155.09178 162.09178 167.53778 171.42978"
             y="0"
             sodipodi:role="line"
             id="tspan16">Stages of Special-case Analysis</tspan></text>
</g><path
         d="m 838.871,2590.86 h 908.669 c 92.11,0 166.21,-74.14 166.21,-166.21 v -135.12 c 0,-92.07 -74.1,-166.21 -166.21,-166.21 H 838.871 c -92.109,0 -166.211,74.14 -166.211,166.21 v 135.12 c 0,92.07 74.102,166.21 166.211,166.21 z"
         style="fill:#ffeeaa;fill-opacity:1;fill-rule:nonzero;stroke:none"
         id="path20"
         inkscape:connector-curvature="0" /><path
         d="m 838.871,2590.86 h 908.669 c 92.11,0 166.21,-74.14 166.21,-166.21 v -135.12 c 0,-92.07 -74.1,-166.21 -166.21,-166.21 H 838.871 c -92.109,0 -166.211,74.14 -166.211,166.21 v 135.12 c 0,92.07 74.102,166.21 166.211,166.21 z"
         style="fill:none;stroke:#000000;stroke-width:12.47570038;stroke-linecap:butt;stroke-linejoin:miter;stroke-miterlimit:4;stroke-dasharray:none;stroke-opacity:1"
         id="path22"
         inkscape:connector-curvature="0" /><g
         id="g24"
         transform="scale(10)"><text
           transform="matrix(1,0,0,-1,98.5297,240.58)"
           style="font-variant:normal;font-weight:normal;font-size:12px;font-family:'Times New Roman';-inkscape-font-specification:TimesNewRomanPSMT;writing-mode:lr-tb;fill:#000000;fill-opacity:1;fill-rule:nonzero;stroke:none"
           id="text30"><tspan
             x="0 3.9960001 9.9960003 15.324 21.323999 24.66 27.996 31.992001 37.992001 40.992001"
             y="0"
             sodipodi:role="line"
             id="tspan26">Identify a</tspan><tspan
             x="0 6.6719999 12.672 18 23.327999 26.664 31.992001 35.327999 38.327999 46.332001 51.66 56.327999"
             y="15.507"
             sodipodi:role="line"
             id="tspan28">Special Case</tspan></text>
</g><path
         d="m 838.871,1003.83 h 908.669 c 92.11,0 166.21,-74.139 166.21,-166.209 V 702.539 c 0,-92.07 -74.1,-166.207 -166.21,-166.207 H 838.871 c -92.109,0 -166.211,74.137 -166.211,166.207 v 135.082 c 0,92.07 74.102,166.209 166.211,166.209 z"
         style="fill:#ffeeaa;fill-opacity:1;fill-rule:nonzero;stroke:none"
         id="path32"
         inkscape:connector-curvature="0" /><path
         d="m 838.871,1003.83 h 908.669 c 92.11,0 166.21,-74.139 166.21,-166.209 V 702.539 c 0,-92.07 -74.1,-166.207 -166.21,-166.207 H 838.871 c -92.109,0 -166.211,74.137 -166.211,166.207 v 135.082 c 0,92.07 74.102,166.209 166.211,166.209 z"
         style="fill:none;stroke:#000000;stroke-width:12.47570038;stroke-linecap:butt;stroke-linejoin:miter;stroke-miterlimit:4;stroke-dasharray:none;stroke-opacity:1"
         id="path34"
         inkscape:connector-curvature="0" /><path
         d="m 838.871,474.84 h 908.669 c 92.11,0 166.21,-74.141 166.21,-166.211 V 173.52 c 0,-92.0708 -74.1,-166.21922 -166.21,-166.21922 H 838.871 C 746.762,7.30078 672.66,81.4492 672.66,173.52 v 135.109 c 0,92.07 74.102,166.211 166.211,166.211 z"
         style="fill:#ffeeaa;fill-opacity:1;fill-rule:nonzero;stroke:none"
         id="path36"
         inkscape:connector-curvature="0" /><path
         d="m 838.871,474.84 h 908.669 c 92.11,0 166.21,-74.141 166.21,-166.211 V 173.52 c 0,-92.0708 -74.1,-166.21922 -166.21,-166.21922 H 838.871 C 746.762,7.30078 672.66,81.4492 672.66,173.52 v 135.109 c 0,92.07 74.102,166.211 166.211,166.211 z"
         style="fill:none;stroke:#000000;stroke-width:12.47570038;stroke-linecap:butt;stroke-linejoin:miter;stroke-miterlimit:4;stroke-dasharray:none;stroke-opacity:1"
         id="path38"
         inkscape:connector-curvature="0" /><path
         d="m 180.781,1532.85 h 908.709 c 92.07,0 166.21,-74.14 166.21,-166.21 v -135.12 c 0,-92.07 -74.14,-166.21 -166.21,-166.21 H 180.781 c -92.0701,0 -166.2107,74.14 -166.2107,166.21 v 135.12 c 0,92.07 74.1406,166.21 166.2107,166.21 z"
         style="fill:#ffe6d5;fill-opacity:1;fill-rule:nonzero;stroke:none"
         id="path40"
         inkscape:connector-curvature="0" /><path
         d="m 180.781,1532.85 h 908.709 c 92.07,0 166.21,-74.14 166.21,-166.21 v -135.12 c 0,-92.07 -74.14,-166.21 -166.21,-166.21 H 180.781 c -92.0701,0 -166.2107,74.14 -166.2107,166.21 v 135.12 c 0,92.07 74.1406,166.21 166.2107,166.21 z"
         style="fill:none;stroke:#000000;stroke-width:12.47570038;stroke-linecap:butt;stroke-linejoin:miter;stroke-miterlimit:4;stroke-dasharray:none;stroke-opacity:1"
         id="path42"
         inkscape:connector-curvature="0" /><path
         d="m 180.781,2061.84 h 908.709 c 92.07,0 166.21,-74.14 166.21,-166.22 v -135.07 c 0,-92.07 -74.14,-166.21 -166.21,-166.21 H 180.781 c -92.0701,0 -166.2107,74.14 -166.2107,166.21 v 135.07 c 0,92.08 74.1406,166.22 166.2107,166.22 z"
         style="fill:#ffe6d5;fill-opacity:1;fill-rule:nonzero;stroke:none"
         id="path44"
         inkscape:connector-curvature="0" /><path
         d="m 180.781,2061.84 h 908.709 c 92.07,0 166.21,-74.14 166.21,-166.22 v -135.07 c 0,-92.07 -74.14,-166.21 -166.21,-166.21 H 180.781 c -92.0701,0 -166.2107,74.14 -166.2107,166.21 v 135.07 c 0,92.08 74.1406,166.22 166.2107,166.22 z"
         style="fill:none;stroke:#000000;stroke-width:12.47570038;stroke-linecap:butt;stroke-linejoin:miter;stroke-miterlimit:4;stroke-dasharray:none;stroke-opacity:1"
         id="path46"
         inkscape:connector-curvature="0" /><path
         d="m 1496.91,2061.84 h 908.72 c 92.07,0 166.21,-74.14 166.21,-166.22 v -652.03 c 0,-92.07 -74.14,-166.21 -166.21,-166.21 h -908.72 c -92.07,0 -166.21,74.14 -166.21,166.21 v 652.03 c 0,92.08 74.14,166.22 166.21,166.22 z"
         style="fill:#ffaaaa;fill-opacity:1;fill-rule:nonzero;stroke:none"
         id="path48"
         inkscape:connector-curvature="0" /><path
         d="m 1496.91,2061.84 h 908.72 c 92.07,0 166.21,-74.14 166.21,-166.22 v -652.03 c 0,-92.07 -74.14,-166.21 -166.21,-166.21 h -908.72 c -92.07,0 -166.21,74.14 -166.21,166.21 v 652.03 c 0,92.08 74.14,166.22 166.21,166.22 z"
         style="fill:none;stroke:#000000;stroke-width:12.47570038;stroke-linecap:butt;stroke-linejoin:miter;stroke-miterlimit:4;stroke-dasharray:none;stroke-opacity:1"
         id="path50"
         inkscape:connector-curvature="0" /><g
         id="g52"
         transform="scale(10)"><text
           transform="matrix(1,0,0,-1,82.123,80.6859)"
           style="font-variant:normal;font-weight:normal;font-size:12px;font-family:'Times New Roman';-inkscape-font-specification:TimesNewRomanPSMT;writing-mode:lr-tb;fill:#000000;fill-opacity:1;fill-rule:nonzero;stroke:none"
           id="text82"><tspan
             x="0 8.0039997 14.004 23.34 29.34 34.667999 38.664001 43.992001 46.992001 54.324001 60.324001 66.323997 71.652 76.980003 80.316002 85.643997"
             y="0"
             sodipodi:role="line"
             id="tspan54">Compare Expected</tspan><tspan
             x="0 9.3360004 12.336 19.667999 25.667999 30.996 34.332001 40.332001 45.66 48.995998 54.324001 60.324001 63.324001 71.328003 76.655998 81.323997 87.323997 90.624138"
             y="15.507"
             sodipodi:role="line"
             id="tspan56">&amp; Evaluated Result</tspan><tspan
             x="11.9621 20.626101 25.9541 31.282101 36.6101 42.6101 45.946098 48.946098 54.946098"
             y="51.5937"
             sodipodi:role="line"
             id="tspan58">Accept or</tspan><tspan
             x="11.9621 19.966101 25.2941 28.6301 33.958099 39.286098 42.622101 44.950249 53.61425 59.61425 64.282249 72.946251 78.274246"
             y="67.1007"
             sodipodi:role="line"
             id="tspan60">Reject Answer</tspan><tspan
             x="-64.666397 -60.670399 -54.670399 -49.3424 -43.3424 -40.006401 -36.670399 -32.6744 -26.6744 -23.6744 -15.6704 -10.3424 -7.0064001 -1.6784 4.3216 9.6496 15.6496"
             y="-105.8013"
             sodipodi:role="line"
             id="tspan62">Identify Relevant</tspan><tspan
             x="-64.666397 -57.334423 -52.006424 -48.670425 -42.670425 -37.342422 -34.342422 -28.342424 -24.346424 -21.346424 -14.674424 -9.3464241 -5.3504238 -0.022423999 9.3135757 14.641576 17.977575 23.305576"
             y="-90.294296"
             sodipodi:role="line"
             id="tspan64">Value or Parameter</tspan><tspan
             x="-76.710098 -69.378098 -63.378101 -58.050098 -54.7141 -48.7141 -43.386101 -40.050098 -34.722099 -32.406048 -23.742048 -17.742048 -13.074048 -4.4100485 0.91795158"
             y="-52.9006"
             sodipodi:role="line"
             id="tspan66">Evaluate Answer</tspan><tspan
             x="-76.710098 -68.046097 -64.710098 -61.3741 -55.3741 -52.590099 -45.258125 -39.930122 -36.594124 -30.594124 -25.266125 -22.266125 -16.266125 -12.270124 -9.2701244 -2.598124 2.729876 6.7258759 12.053876 21.389875 26.717876 30.053877 35.381878"
             y="-37.3936"
             sodipodi:role="line"
             id="tspan68">with Value of Parameter</tspan><tspan
             x="70.092903 74.088898 80.088898 85.416901 91.416901 94.752899 98.088898 102.0849 108.0849 111.0849 118.4169 124.4169 130.4169 135.7449 141.07291 144.40891 149.73689"
             y="-112.1725"
             sodipodi:role="line"
             id="tspan70">Identify Expected</tspan><tspan
             x="97.573402 105.5774 110.9054 115.5734 121.5734 124.9094"
             y="-96.665497"
             sodipodi:role="line"
             id="tspan72">Result</tspan><tspan
             x="99.905434 105.90543 110.57343 113.90943 119.90943"
             y="-81.158501"
             sodipodi:role="line"
             id="tspan74">using</tspan><tspan
             x="65.733528 71.733528 74.733528 77.733528 84.405533 88.401527 91.737534 97.737534 101.73353 104.73353 113.39753 119.39753 125.39753 134.09752 137.43352 142.76152 148.76152 154.76152"
             y="-65.651497"
             sodipodi:role="line"
             id="tspan76">1. Prior Knowledge</tspan><tspan
             x="107.89763 113.89763"
             y="-50.144501"
             sodipodi:role="line"
             id="tspan78">or</tspan><tspan
             x="64.421028 70.421028 73.421028 76.421028 83.093033 89.093033 95.093033 99.761032 103.09703 108.42503 113.75303 117.08903 120.08903 124.08503 130.08504 133.42104 139.42104 142.75703 146.09303 149.39317 155.39317"
             y="-34.637501"
             sodipodi:role="line"
             id="tspan80">2. Physical Intuition</tspan></text>
</g></g></g></svg>