<?xml version="1.0" encoding="UTF-8" standalone="no"?>
<!-- Created with Inkscape (http://www.inkscape.org/) -->

<svg
   xmlns:dc="http://purl.org/dc/elements/1.1/"
   xmlns:cc="http://creativecommons.org/ns#"
   xmlns:rdf="http://www.w3.org/1999/02/22-rdf-syntax-ns#"
   xmlns:svg="http://www.w3.org/2000/svg"
   xmlns="http://www.w3.org/2000/svg"
   xmlns:sodipodi="http://sodipodi.sourceforge.net/DTD/sodipodi-0.dtd"
   xmlns:inkscape="http://www.inkscape.org/namespaces/inkscape"
   id="svg2"
   version="1.1"
   inkscape:version="0.92.4 (5da689c313, 2019-01-14)"
   width="1044.5916"
   height="701.16046"
   xml:space="preserve"
   sodipodi:docname="Tortoise-slide.svg"><metadata
     id="metadata8"><rdf:RDF><cc:Work
         rdf:about=""><dc:format>image/svg+xml</dc:format><dc:type
           rdf:resource="http://purl.org/dc/dcmitype/StillImage" /><dc:title></dc:title></cc:Work></rdf:RDF></metadata><defs
     id="defs6"><marker
       inkscape:stockid="Arrow1Mend"
       orient="auto"
       refY="0"
       refX="0"
       id="marker1139"
       style="overflow:visible"
       inkscape:isstock="true"><path
         id="path1137"
         d="M -4.2666667,0 -6.4,2.1333333 1.0666667,0 -6.4,-2.1333333 Z"
         style="fill:#000000;fill-opacity:1;fill-rule:evenodd;stroke:#000000;stroke-width:0.42666668pt;stroke-opacity:1"
         inkscape:connector-curvature="0" /></marker><marker
       inkscape:stockid="Arrow1Mend"
       orient="auto"
       refY="0"
       refX="0"
       id="Arrow1Mend"
       style="overflow:visible"
       inkscape:isstock="true"><path
         id="path836"
         d="M -4.2666667,0 -6.4,2.1333333 1.0666667,0 -6.4,-2.1333333 Z"
         style="fill:#000000;fill-opacity:1;fill-rule:evenodd;stroke:#000000;stroke-width:0.42666668pt;stroke-opacity:1"
         inkscape:connector-curvature="0" /></marker><clipPath
       clipPathUnits="userSpaceOnUse"
       id="clipPath18"><path
         d="M 0,0 H 1677 V 937.891 H 0 Z"
         id="path20"
         inkscape:connector-curvature="0" /></clipPath><marker
       inkscape:stockid="Arrow1Mend"
       orient="auto"
       refY="0"
       refX="0"
       id="marker1139-6"
       style="overflow:visible"
       inkscape:isstock="true"><path
         id="path1137-2"
         d="M -4.2666667,0 -6.4,2.1333333 1.0666667,0 -6.4,-2.1333333 Z"
         style="fill:#000000;fill-opacity:1;fill-rule:evenodd;stroke:#000000;stroke-width:0.42666668pt;stroke-opacity:1"
         inkscape:connector-curvature="0" /></marker><pattern
       y="0"
       x="0"
       height="6"
       width="6"
       patternUnits="userSpaceOnUse"
       id="EMFhbasepattern" /></defs><sodipodi:namedview
     pagecolor="#ffffff"
     bordercolor="#666666"
     borderopacity="1"
     objecttolerance="10"
     gridtolerance="10"
     guidetolerance="10"
     inkscape:pageopacity="0"
     inkscape:pageshadow="2"
     inkscape:window-width="1920"
     inkscape:window-height="1001"
     id="namedview4"
     showgrid="false"
     fit-margin-top="2"
     fit-margin-left="2"
     fit-margin-right="2"
     fit-margin-bottom="2"
     inkscape:zoom="1"
     inkscape:cx="475.27591"
     inkscape:cy="468.09704"
     inkscape:window-x="1911"
     inkscape:window-y="-9"
     inkscape:window-maximized="1"
     inkscape:current-layer="g10" /><g
     id="g10"
     inkscape:groupmode="layer"
     inkscape:label="ink_ext_XXXXXX"
     transform="matrix(1.25,0,0,-1.25,525.57924,408.18596)">

<path
   style="fill:none;fill-opacity:1;stroke:#000000;stroke-width:8;stroke-miterlimit:4;stroke-dasharray:none;stroke-opacity:1"
   inkscape:transform-center-x="2.4999999e-06"
   inkscape:transform-center-y="-195.74728"
   d="m 398.84277,-228.77959 -813.70616,1e-5 v 475.72491 z"
   id="path888"
   inkscape:connector-curvature="0"
   sodipodi:nodetypes="cccc" /><text
   id="text900"
   y="-188.14711"
   x="-400.8533"
   transform="scale(1,-1)"
   style="font-style:normal;font-variant:normal;font-weight:400;font-size:28.48769188px;line-height:125%;font-family:'Times New Roman';text-align:start;letter-spacing:0px;word-spacing:0px;text-anchor:start;fill:#000000;fill-opacity:1;stroke:none;stroke-width:1.93958771"
   xml:space="preserve"><tspan
     id="tspan898"
     y="-188.14711"
     x="-400.8533"
     sodipodi:role="line"
     style="fill:#000000;stroke-width:1.93958771"><tspan
       id="tspan894"
       style="font-style:italic;font-variant:normal;font-weight:400;font-size:28.48769188px;font-family:'Times New Roman';fill:#000000;stroke-width:1.93958771"
       dy="0"
       dx="0">θ</tspan><tspan
       id="tspan896"
       style="font-style:normal;font-variant:normal;font-weight:400;font-size:31.0334034px;font-family:'Times New Roman';fill:#000000;stroke-width:1.93958771"
       dy="0"
       dx="0"> </tspan></tspan></text>

<g
   id="g989"
   style="stroke:#4a773c;stroke-opacity:1"
   transform="matrix(0.38202741,-0.17424059,0.17424059,0.38202741,-441.55427,83.336319)"><path
     style="stroke:#4a773c;stroke-width:3.08765173;stroke-opacity:1"
     id="path2"
     d="m -120.80737,445.39997 c -1.64031,0 -3.31675,0.22926 -4.95722,0.79604 -0.94081,0.32574 -1.7368,1.02517 -2.11072,1.9177 -0.37399,0.89252 -0.37399,1.96598 0.0482,2.85847 4.3542,9.54023 12.15762,16.41519 19.74398,23.06105 6.45258,5.65658 12.543588,11.03589 16.560006,17.82625 0.65134,1.07346 1.266439,2.24337 1.869496,3.36492 2.810264,5.19837 5.982325,11.03589 12.302439,13.29142 2.569003,0.89252 5.234496,0.97697 7.574318,1.07346 2.569004,0.0965 4.776289,0.14473 6.368282,1.1217 1.314645,0.796 2.388105,2.38811 3.557901,4.06459 1.399092,2.06243 2.991162,4.4385 5.524117,6.03049 3.931816,2.48459 8.286022,2.19513 12.157629,1.96595 2.339861,-0.14474 4.58331,-0.27751 6.452574,0.19297 3.135819,0.7478 5.9462,3.28063 8.889041,5.9462 4.161228,3.69067 8.840873,7.94824 15.293448,7.49003 3.6063767,-0.22926 6.6940283,-1.9177 9.4077654,-3.46157 2.52079739,-1.39909 4.7278122,-2.61728 6.826489,-2.52079 2.014191,0.0482 4.0284592,1.26643 6.3682816,2.71377 1.68856,1.02522 3.461566,2.11068 5.475641,2.85851 9.033852,3.36492 18.055661,-0.97697 26.522311,-6.45257 5.379306,0.6513 10.481033,0.22925 14.787072,-0.27751 6.742197,-0.79599 12.495418,-3.88364 15.860341,-8.41879 1.821212,-2.48459 2.85847,-5.19837 3.835481,-7.81546 0.373991,-0.97693 0.74779,-1.96595 1.169949,-2.94288 3.787314,-8.65994 11.976692,-15.24528 21.19148,-17.356 0.09649,0 0.229258,-0.0482 0.325748,-0.0965 1.44734,-0.32575 2.89467,-0.51865 4.35421,-0.60306 l 0.51864,-0.0482 c 1.35085,-0.0482 3.08766,-0.14473 4.77629,-0.84432 2.89468,-1.16991 4.72781,-3.83548 4.53515,-6.64555 -0.14474,-2.85847 -2.24338,-4.67965 -3.23247,-5.57229 -2.01419,-1.77296 -4.11275,-3.46156 -6.22347,-5.10172 -1.54382,-1.16991 -6.223469,-4.67965 -11.035883,-2.76198 -2.388105,0.94076 -3.835481,2.85847 -4.957224,4.3542 -0.651302,0.89253 -1.447337,1.8695 -1.965985,2.01419 -1.121667,0.27751 -2.014191,1.12171 -2.388106,2.19513 -0.373992,1.07346 -0.229258,2.29166 0.470365,3.23246 1.350848,1.91774 3.039446,3.98029 5.234496,5.75322 -7.86394,3.88365 -14.461325,10.43287 -17.959017,18.47775 -0.470365,1.07346 -0.892486,2.14688 -1.314645,3.23246 -0.892524,2.29165 -1.68856,4.4385 -2.942918,6.12714 -2.195127,2.99116 -6.223471,5.05355 -11.035885,5.60841 -4.402373,0.51864 -9.16662,0.89252 -14.220179,0.0965 -0.84428,-0.14473 -1.736804,0.0482 -2.484595,0.5669 -7.24888,4.77629 -14.871366,8.88904 -21.336291,6.45257 -1.399053,-0.51865 -2.810264,-1.35085 -4.30573,-2.29165 -2.761982,-1.68856 -5.8980321,-3.60638 -9.7816804,-3.69067 -4.06458464,-0.14474 -7.441858,1.773 -10.4328662,3.4134 -2.2433719,1.26643 -4.4023737,2.43635 -6.4525744,2.56904 -3.557901,0.22926 -6.645553,-2.5208 -10.203763,-5.75322 -3.316755,-2.99117 -7.116111,-6.36828 -11.928525,-7.52615 -2.894673,-0.69955 -5.801388,-0.51865 -8.563293,-0.32575 -3.183986,0.19298 -5.946199,0.37399 -7.948233,-0.89253 -1.314644,-0.84428 -2.388105,-2.3881 -3.509733,-4.06458 -1.447337,-2.11068 -3.039407,-4.53514 -5.656578,-6.12714 -3.183986,-1.96594 -6.694029,-2.06243 -9.781681,-2.14684 -2.014191,-0.0482 -3.931815,-0.14473 -5.475641,-0.65134 -3.787314,-1.31465 -6.030493,-5.52412 -8.466958,-9.96262 -0.651302,-1.21815 -1.314645,-2.48459 -2.014191,-3.65454 -4.631478,-7.7673 -11.4098,-13.74962 -17.959016,-19.55101 -5.89803,-5.19837 -11.55461,-10.20376 -15.48643,-16.18609 2.89468,0.56689 5.60841,2.24337 7.49003,3.98029 1.07346,1.02522 2.06247,2.19517 3.03941,3.5579 1.1217,1.59207 3.31675,1.96599 4.90874,0.84432 1.59207,-1.1217 1.96599,-3.31675 0.84432,-4.90875 -1.26644,-1.7368 -2.52079,-3.23246 -3.93181,-4.58331 -3.46157,-2.90675 -8.65994,-5.81343 -14.22018,-5.81343 z M 92.987811,481.8003 c 0.566854,-0.60306 1.073422,-1.26644 1.543826,-1.8695 0.699507,-0.94077 1.399053,-1.86946 1.965946,-2.11068 0.422159,-0.19298 1.592109,-0.19298 4.257567,1.82121 1.96598,1.49562 3.93181,3.08766 5.80138,4.72782 0.19298,0.19297 0.32575,0.32574 0.47037,0.42216 -0.69951,0.22925 -1.44734,0.2775 -2.24333,0.32574 l -0.60306,0.0482 c -1.64032,0.0965 -3.23246,0.32574 -4.824456,0.60305 -2.400148,-0.55481 -4.354207,-1.82121 -6.368282,-3.96825 z"
     inkscape:connector-curvature="0" /><path
     style="stroke:#4a773c;stroke-width:3.08765173;stroke-opacity:1"
     id="path4"
     d="m -101.11185,438.90046 h -0.65134 c -2.56901,0.0965 -5.15021,0.47037 -7.6228,1.21816 -1.59203,0.4704 -3.65454,1.16995 -5.23449,2.81027 -2.14685,2.19512 -2.76199,5.33113 -1.54383,7.86394 0.84432,1.7368 2.94296,2.43635 4.67965,1.59207 1.64031,-0.79604 2.33986,-2.71378 1.7368,-4.35421 0.60306,-0.6513 1.54383,-0.97697 2.24337,-1.16995 1.9177,-0.56685 3.93182,-0.84428 5.9462,-0.94077 1.640315,-0.0482 2.014191,0.22926 2.014191,0.22926 0.325748,0.2775 0.470404,1.91774 0.518649,2.81026 0.796035,10.28806 9.118144,25.3524 15.764005,31.62373 1.399092,1.31469 3.654545,1.26644 4.957225,-0.14473 1.314645,-1.39909 1.266439,-3.65455 -0.144734,-4.95723 -6.127136,-5.80139 -12.953625,-19.27374 -13.568685,-26.76376 -0.192978,-2.5208 -0.42212,-5.57229 -2.810226,-7.7673 -1.941863,-1.773 -4.366248,-2.05039 -6.283985,-2.05039 z"
     inkscape:connector-curvature="0" /><path
     style="stroke:#4a773c;stroke-width:3.08765173;stroke-opacity:1"
     id="path6"
     d="m -79.171001,435.34349 c -6.645553,0 -12.953625,1.68856 -19.092803,3.31676 -1.869496,0.51864 -2.991166,2.43635 -2.484636,4.30573 0.51865,1.86949 2.436353,2.99116 4.305733,2.48459 6.030493,-1.59203 12.302439,-3.28063 18.381099,-3.03941 1.218195,0.0482 1.821252,0.27751 1.917741,0.374 -0.144734,-0.0482 -0.422159,0.74779 -0.566893,1.26643 -3.461566,11.92853 3.931816,30.68354 9.407766,39.71647 0.976971,1.68856 3.135819,2.19512 4.824456,1.16995 1.640314,-0.97697 2.195165,-3.13582 1.169949,-4.82446 -5.234496,-8.69606 -11.228863,-25.40087 -8.696062,-34.05988 0.470365,-1.64032 1.16995,-3.9803 0.144734,-6.36829 -0.84428,-1.86949 -2.894674,-4.16122 -7.948233,-4.3542 -0.470365,0.0602 -0.892524,0.0116 -1.362928,0.0116 z"
     inkscape:connector-curvature="0" /><path
     style="stroke:#4a773c;stroke-width:3.08765173;stroke-opacity:1"
     id="path8"
     d="m -56.71451,431.65066 c -1.073461,0 -2.01423,0.14473 -2.762021,0.22926 l -16.282422,2.14684 c -1.917702,0.22926 -3.28063,2.01423 -3.039407,3.93182 0.229258,1.91774 2.014191,3.28063 3.931816,3.03944 l 16.282422,-2.14688 c 0.651302,-0.0965 2.43635,-0.32575 2.942879,0 0.144734,0.0965 0.42216,0.60306 0.42216,1.31464 0,0.97698 -0.277503,2.11072 -0.603057,3.36493 -1.772969,6.77832 -0.192979,18.80318 1.169949,29.42902 0.747791,5.57229 1.399093,10.75862 1.447337,13.99077 0,1.91774 1.59207,3.46157 3.509734,3.46157 h 0.04824 c 1.917741,0 3.509734,-1.59204 3.461567,-3.5579 -0.04825,-3.60638 -0.699508,-8.79271 -1.495582,-14.83524 -1.266439,-9.45594 -2.810264,-21.23965 -1.447336,-26.43802 0.470365,-1.82121 0.940768,-3.60638 0.892524,-5.57229 -0.09649,-2.89467 -1.314684,-5.42747 -3.364923,-6.87496 -1.652395,-1.20608 -3.521775,-1.4835 -5.113769,-1.4835 z"
     inkscape:connector-curvature="0" /><path
     style="stroke:#4a773c;stroke-width:3.08765173;stroke-opacity:1"
     id="path10"
     d="m -32.581425,431.97795 h -0.566893 l -20.395483,0.0965 c -1.917702,0 -3.509734,1.59207 -3.509734,3.50973 0,1.9177 1.592071,3.50974 3.509734,3.50974 l 20.395483,-0.0965 c 1.350848,0 3.413399,0 4.30573,0.69954 0.566893,0.47037 0.892525,1.49558 0.844319,2.61729 -0.04824,1.31464 -0.470404,2.81023 -0.892525,4.35421 l -0.192978,0.6513 c -2.810265,10.05895 -1.965985,35.41227 -1.121705,44.25222 0.192978,1.9177 1.869496,3.36492 3.835481,3.18399 1.91774,-0.19298 3.364923,-1.8695 3.183986,-3.83548 -0.940769,-9.78168 -1.447336,-33.39604 0.892525,-41.7327 l 0.192978,-0.6513 c 0.518648,-1.82126 1.073461,-3.88365 1.16995,-6.07897 0.09649,-3.36493 -1.121667,-6.32012 -3.364923,-8.18938 -2.629329,-2.11072 -5.994367,-2.29166 -8.286022,-2.29166 z"
     inkscape:connector-curvature="0" /><path
     style="stroke:#4a773c;stroke-width:3.08765173;stroke-opacity:1"
     id="path12"
     d="m -11.894158,428.65872 c -1.025217,0 -2.062475,0.0965 -3.087652,0.19298 -4.30573,0.56686 -8.696063,2.43635 -12.724522,5.28267 -1.59207,1.12166 -1.91774,3.31675 -0.796035,4.90874 1.121667,1.59207 3.316755,1.91771 4.908749,0.79604 3.087652,-2.19513 6.404407,-3.60638 9.588702,-4.06459 3.413399,-0.47036 6.778322,0.22926 9.3111227,1.86946 2.6172865,1.6886 4.35420634,4.48667 4.48666659,7.34522 0.0964891,1.59211 -0.27750269,3.36492 -0.69954608,5.23449 -0.19297821,0.79604 -0.32574721,1.54383 -0.47036511,2.33986 -0.603057,3.36493 -0.6995461,6.77833 -0.7960352,10.01079 -0.048245,1.44733 -0.096489,2.94292 -0.1929782,4.40237 l -0.1447337,2.38811 c -0.8442798,16.08944 -1.9659464,20.86573 -2.7619816,22.08381 -1.0734607,1.59207 -0.6513015,3.78731 0.9407688,4.86058 1.592109,1.07346 3.78731358,0.65134 4.86058129,-0.94077 2.33986101,-3.50973 3.28062991,-12.39877 3.98029181,-25.64202 l 0.1447336,-2.29162 c 0.096489,-1.54382 0.1447337,-3.08765 0.1929783,-4.63147 0.096489,-3.13582 0.1929782,-6.12714 0.699546,-8.98569 0.1447337,-0.69954 0.2775027,-1.39909 0.4221206,-2.11068 0.4703652,-2.24337 0.9769716,-4.53514 0.8442798,-7.11611 C 6.5350309,439.5855 3.580071,434.67675 -0.85842823,431.77003 -4.0424146,429.73168 -7.8778955,428.6583 -11.894313,428.6583 Z"
     inkscape:connector-curvature="0" /><path
     style="stroke:#4a773c;stroke-width:3.08765173;stroke-opacity:1"
     id="path14"
     d="m 15.326579,444.88125 c -1.350848,0 -2.762021,0.0482 -4.112752,0.0965 -2.5207978,0.0965 -4.9572251,0.19297 -7.200404,-0.0965 -1.9177405,-0.22926 -3.69067008,1.12166 -3.93181568,3.0394 -0.22925814,1.91774 1.12166668,3.69067 3.03940708,3.93182 2.8584707,0.37399 5.705054,0.22926 8.4187906,0.14473 3.835481,-0.19298 7.490026,-0.32574 10.52951,0.94077 4.776289,1.96599 7.345215,7.24888 8.237855,11.55461 1.025177,5.28266 0.518648,16.3309 -0.229258,22.26475 -0.229258,1.9177 1.121705,3.69067 3.039445,3.93181 1.917702,0.27751 3.69067,-1.12166 3.931816,-3.0394 0.84428,-6.36828 1.447337,-18.20017 0.144734,-24.55641 -1.543826,-7.86394 -6.175304,-14.08741 -12.398774,-16.65633 -3.147861,-1.2182 -6.332156,-1.55591 -9.467975,-1.55591 z"
     inkscape:connector-curvature="0" /><path
     style="stroke:#4a773c;stroke-width:3.08765173;stroke-opacity:1"
     id="path16"
     d="m 30.860554,450.55017 c -0.65134,0 -1.314683,0.0482 -2.014229,0.0965 -1.917702,0.22926 -3.316756,1.96599 -3.087652,3.88365 0.229258,1.9177 1.91774,3.31676 3.883648,3.08765 3.787314,-0.42216 7.200404,1.16995 11.132528,3.03941 l 19.41855,9.06998 c 0.192979,0.0965 0.325748,0.14473 0.470404,0.22926 -5.234496,3.60637 -10.613802,10.95159 -13.47235,16.23425 -0.940808,1.7368 -0.277503,3.83548 1.447336,4.77629 1.736804,0.94077 3.835481,0.2775 4.776289,-1.44734 2.484594,-4.63148 7.248879,-10.99976 11.27703,-13.7981 1.314645,-0.89252 3.461566,-2.3881 3.835481,-5.10172 0.277502,-2.06248 -0.422159,-4.95723 -5.33114,-7.24888 l -19.41855,-9.06998 c -4.028459,-1.8333 -8.105085,-3.75089 -12.917499,-3.75089 z"
     inkscape:connector-curvature="0" /><path
     style="stroke:#4a773c;stroke-width:3.08765173;stroke-opacity:1"
     id="path18"
     d="m 64.957492,465.98843 c -1.49562,0 -2.894674,0.97697 -3.364923,2.5208 -0.566893,1.86946 0.518609,3.78731 2.388105,4.35421 7.067944,2.06243 15.016177,4.40237 21.420584,10.71044 1.399092,1.35085 3.606377,1.31465 4.957224,-0.0482 1.350848,-1.39906 1.350848,-3.60638 -0.04824,-4.95723 -7.670962,-7.52615 -16.933917,-10.23988 -24.375466,-12.44694 -0.313397,-0.0845 -0.639221,-0.13277 -0.976933,-0.13277 z"
     inkscape:connector-curvature="0" /><path
     style="stroke:#4a773c;stroke-width:3.08765173;stroke-opacity:1"
     id="path20-4"
     d="m 87.367667,477.54551 c -8.370315,0 -16.837273,5.10173 -23.676113,9.26296 l -2.520797,1.49558 c -1.688598,0.97697 -2.195127,3.13582 -1.218194,4.82445 0.976971,1.68864 3.135819,2.19517 4.824455,1.2182 l 2.569042,-1.54383 c 6.549218,-3.98029 14.039244,-8.46695 20.491818,-8.23785 1.965946,0.0482 3.557901,-1.44734 3.606377,-3.4134 0.04825,-1.9177 -1.447337,-3.5579 -3.413399,-3.60638 h -0.663343 z"
     inkscape:connector-curvature="0" /><path
     style="stroke:#4a773c;stroke-width:3.08765173;stroke-opacity:1"
     id="path22"
     d="m -85.590229,474.50418 c -2.858509,0 -5.572285,0.2775 -8.189378,0.89252 -1.869496,0.42212 -3.087652,2.29162 -2.665531,4.2094 0.422159,1.86945 2.291616,3.08765 4.209395,2.66549 6.223471,-1.39906 13.243247,-0.74779 22.180455,2.01419 3.232462,0.97697 6.404407,2.14688 9.588702,3.31675 4.402374,1.64032 8.985684,3.28063 13.665329,4.53515 7.622794,2.01423 15.438258,2.81026 22.313223,3.5579 8.466959,0.89252 18.0556612,1.86949 27.6440547,0.89252 5.6084105,-0.56685 11.1806953,-1.82121 16.6081693,-3.0394 9.962617,-2.24338 19.321907,-4.35421 28.584862,-2.43635 3.606377,0.74779 7.116111,2.11068 10.806781,3.5579 2.062474,0.79603 4.064584,1.59207 6.127136,2.29161 7.9964,2.71378 14.642261,3.03945 20.298839,1.02522 1.821213,-0.65134 2.76202,-2.66553 2.11068,-4.48667 -0.651301,-1.82117 -2.665492,-2.76202 -4.486666,-2.11072 -4.112752,1.44734 -9.262955,1.12171 -15.667362,-1.07342 -1.965947,-0.65134 -3.883649,-1.39909 -5.849557,-2.19516 -3.787313,-1.49555 -7.719129,-3.03937 -11.928524,-3.88365 -10.710446,-2.24334 -21.336291,0.14473 -31.577414,2.48463 -5.19837,1.16991 -10.5776769,2.38811 -15.7640054,2.89467 -8.8890403,0.94077 -18.1038276,-0.0482 -26.1968726,-0.89252 -6.645552,-0.69955 -14.171703,-1.49562 -21.287814,-3.36492 -4.402374,-1.16995 -8.563293,-2.71378 -13.001792,-4.30573 -3.28063,-1.2182 -6.549218,-2.38811 -9.914141,-3.46157 -6.56126,-2.06247 -12.314481,-3.08765 -17.609186,-3.08765 z"
     inkscape:connector-curvature="0" /><path
     style="stroke:#4a773c;stroke-width:3.08765173;stroke-opacity:1"
     id="path24"
     d="m -84.046403,476.47101 c -1.073461,0 -2.146883,0.51865 -2.810265,1.39909 -1.169949,1.54383 -0.844279,3.73884 0.747791,4.90875 8.370315,6.1753 14.871365,14.54562 18.851657,24.18249 0.747791,1.77297 2.810265,2.66549 4.58331,1.9177 1.773007,-0.74779 2.617287,-2.81026 1.917702,-4.58331 -4.438499,-10.80678 -11.783714,-20.16607 -21.191479,-27.13768 -0.639222,-0.50657 -1.338768,-0.6875 -2.098639,-0.6875 z"
     inkscape:connector-curvature="0" /><path
     style="stroke:#4a773c;stroke-width:3.08765173;stroke-opacity:1"
     id="path26"
     d="m -38.383122,488.39861 c -0.229259,0 -0.42216,0 -0.651341,0.0482 -1.917701,0.37399 -3.183986,2.19517 -2.810226,4.06459 0.651302,3.46156 1.314645,7.06794 2.858471,10.52951 2.43635,5.52412 6.645553,9.63687 10.058952,12.57971 7.393382,6.50105 15.764006,11.65094 24.930317,15.29345 1.8212128,0.69954 3.83548094,-0.14474 4.58331018,-1.96595 0.69954612,-1.77301 -0.14473368,-3.83548 -1.96598498,-4.58331 -8.4187911,-3.36492 -16.0894442,-8.14121 -22.9282842,-14.08741 -4.257563,-3.69067 -6.778322,-6.87497 -8.286022,-10.20376 -1.218156,-2.71378 -1.821213,-5.89804 -2.388106,-8.98569 -0.265538,-1.47146 -1.760926,-2.68961 -3.401357,-2.68961 z"
     inkscape:connector-curvature="0" /><path
     style="stroke:#4a773c;stroke-width:3.08765173;stroke-opacity:1"
     id="path28"
     d="m 2.2287603,491.95558 c -0.1929782,0 -0.3739918,0 -0.5668929,0.0482 -1.91770181,0.2775 -3.2324625,2.11072 -2.8946734,4.02846 1.0734607,6.69403 5.5241176,11.92852 10.0107842,16.70481 7.2970468,7.81546 15.3419238,15.76401 25.5938538,20.1179 1.773006,0.74783 3.835481,-0.0965 4.58331,-1.86945 0.747829,-1.77301 -0.09649,-3.83549 -1.869458,-4.58331 -9.033851,-3.83549 -16.415191,-11.22887 -23.253722,-18.47775 -3.883648,-4.16123 -7.4418578,-8.28602 -8.1893782,-13.00179 -0.2292582,-1.76093 -1.6885981,-2.96704 -3.413399,-2.96704 z"
     inkscape:connector-curvature="0" /><path
     style="stroke:#4a773c;stroke-width:3.08765173;stroke-opacity:1"
     id="path30"
     d="m 66.368548,491.34114 c -1.447336,0 -2.76202,0.89252 -3.28063,2.29162 -4.161228,11.27703 -12.121502,20.81756 -22.457725,26.9447 -1.68856,0.97697 -2.195166,3.13582 -1.218195,4.82445 0.976972,1.6886 3.135819,2.19513 4.824456,1.2182 11.699421,-6.92313 20.720922,-17.77808 25.449043,-30.55077 0.651301,-1.82125 -0.277503,-3.83548 -2.062436,-4.48667 -0.410079,-0.14473 -0.832238,-0.24122 -1.254358,-0.24122 z"
     inkscape:connector-curvature="0" /><path
     style="stroke:#4a773c;stroke-width:3.08765173;stroke-opacity:1"
     id="path32"
     d="m -23.414187,412.75114 c -9.262955,0 -18.332932,0.6513 -26.667121,2.56901 -1.025216,0.22925 -2.062474,0.51864 -3.135819,0.74783 -4.860582,1.21815 -9.455934,2.33982 -13.894433,1.77296 -1.59207,-0.22925 -3.28063,-0.6513 -5.005392,-1.12166 -2.388144,-0.6513 -4.860581,-1.31469 -7.574318,-1.49558 -0.796035,-0.0482 -1.640315,-0.0482 -2.484634,0 -1.917701,0.14473 -3.413398,1.82121 -3.280629,3.73883 0.144733,1.9177 1.869495,3.4134 3.738837,3.28063 0.518648,-0.0482 1.025216,-0.0482 1.543826,0 2.014229,0.0965 4.028459,0.6513 6.127136,1.26644 1.869496,0.51865 3.835481,1.07346 5.946199,1.35085 5.753222,0.69955 11.228863,-0.60306 16.511835,-1.9177 0.976972,-0.22926 2.01423,-0.51865 2.991163,-0.74779 17.126895,-3.93182 38.317757,-2.19517 56.9764363,-0.65134 l 5.5241177,0.4704 c 1.965985,0.14473 3.606377,-1.26644 3.787313,-3.23246 0.192979,-1.96599 -1.2664,-3.60638 -3.232462,-3.78732 l -5.4756416,-0.4704 c -10.312139,-0.89248 -21.4446674,-1.77297 -32.3956414,-1.77297 z"
     inkscape:connector-curvature="0" /><path
     style="stroke:#4a773c;stroke-width:3.08765173;stroke-opacity:1"
     id="path34"
     d="m -104.34401,427.57496 c -0.74783,0 -1.49562,0.22926 -2.14688,0.74779 -7.49003,5.84956 -14.87137,12.15763 -16.41519,19.9734 -0.37399,1.9177 0.84428,3.73884 2.76198,4.11275 1.9177,0.37399 3.73884,-0.84428 4.11275,-2.76198 1.16995,-5.84956 9.11815,-12.07333 13.84627,-15.81217 1.54382,-1.16995 1.773,-3.4134 0.60305,-4.90875 -0.69954,-0.88048 -1.7368,-1.35085 -2.76198,-1.35085 z"
     inkscape:connector-curvature="0" /><path
     style="stroke:#4a773c;stroke-width:3.08765173;stroke-opacity:1"
     id="path36"
     d="m -100.08675,390.99246 c -7.44186,0 -14.87137,1.54383 -21.7099,4.53514 -1.39909,0.60306 -2.24337,2.06248 -2.06247,3.55791 0.79603,7.57431 1.9177,14.78707 7.2004,19.92492 0.89252,0.84428 1.8695,1.64032 2.85847,2.38811 0.74783,0.56685 1.54383,1.16995 2.19517,1.82121 4.11275,4.02846 4.72781,13.99077 5.05356,19.37007 0.0965,1.91774 1.7368,3.4134 3.69067,3.28063 1.9177,-0.0965 3.413395,-1.77297 3.280626,-3.69067 -0.518646,-8.74423 -1.543826,-18.52591 -7.152236,-24.00155 -0.89252,-0.84428 -1.8695,-1.59203 -2.85851,-2.33982 -0.74779,-0.56689 -1.54383,-1.16995 -2.19513,-1.82125 -3.08765,-3.00321 -4.16122,-7.7673 -4.81241,-13.01384 5.70505,-2.14684 11.78371,-3.13582 17.922891,-2.94288 3.557901,0.0965 5.849556,0.74779 7.248879,2.01419 1.965986,1.73681 2.617287,5.15021 3.232463,8.37032 l 0.144734,0.6513 c 1.821212,9.21479 5.982325,20.67276 10.951591,29.89958 0.940769,1.6886 3.039407,2.33987 4.776289,1.44734 1.736804,-0.89252 2.339822,-3.03941 1.447336,-4.77629 -4.58331,-8.51512 -8.611769,-19.46671 -10.239888,-27.93367 l -0.144733,-0.60306 c -0.796035,-4.2094 -1.736804,-8.98568 -5.475642,-12.30244 -3.557901,-3.18399 -8.370315,-3.69067 -11.699421,-3.78731 -0.578934,-0.0482 -1.133747,-0.0482 -1.652399,-0.0482 z"
     inkscape:connector-curvature="0" /><path
     style="stroke:#4a773c;stroke-width:3.08765173;stroke-opacity:1"
     id="path38"
     d="m 22.6227,378.36397 c -4.112752,0 -9.455934,0.51864 -13.2914146,4.06458 -2.6172865,2.43635 -4.3057302,6.12714 -4.6314775,10.3847 -0.2775027,3.46157 0.2775027,6.82649 0.7959966,9.82985 0.8443184,4.95722 1.7730068,10.6138 4.5351425,15.58307 3.787314,6.82649 10.058952,11.69942 16.089444,16.41519 3.980292,3.08765 7.670962,5.98232 10.66197,9.31112 6.694029,7.49003 16.415192,11.69942 26.052061,11.37367 11.373674,-0.42216 15.583069,-6.82649 17.126895,-12.07333 0.09649,-0.22926 0.144734,-0.51865 0.144734,-0.79604 0.566854,-9.21478 -2.810265,-18.94799 -9.16662,-26.76376 -5.608411,-6.82649 -13.520518,-12.30244 -22.928284,-15.81217 l -2.243372,-0.79604 c -2.339861,-0.84428 -4.58331,-1.64031 -6.501051,-2.81023 -2.388105,-1.44733 -3.931815,-3.46156 -4.209395,-5.33113 -0.09649,-0.69955 -0.09649,-1.44734 -0.09649,-2.19517 0,-2.38811 -0.04824,-5.70505 -2.617287,-8.09304 -2.291616,-2.11068 -5.282663,-2.19513 -7.067943,-2.24334 -0.783955,0 -1.664399,-0.0482 -2.653451,-0.0482 z m 39.114371,69.94148 c -7.24888,0 -14.545618,-3.31675 -19.647654,-9.03385 -3.413399,-3.78731 -7.574318,-7.01947 -11.602777,-10.15559 -5.753222,-4.48667 -11.228863,-8.69607 -14.268348,-14.26835 -2.146882,-3.93182 -2.991162,-8.74423 -3.738837,-13.37571 -0.470404,-2.71377 -0.940807,-5.52412 -0.699546,-8.09304 0.09649,-1.44734 0.566854,-4.11275 2.388106,-5.80139 2.43635,-2.24337 6.742196,-2.29162 10.951591,-2.14688 0.566854,0 2.146883,0.0482 2.520798,0.37399 0.325747,0.32574 0.373991,1.91774 0.373991,2.94292 0,1.07346 0.04824,2.14688 0.192979,3.18398 0.603057,4.02846 3.316755,7.7673 7.526151,10.33653 2.520797,1.54383 5.19837,2.4846 7.815464,3.4134 l 2.11068,0.74779 c 8.237854,3.08765 15.160987,7.81547 19.973401,13.70146 5.19837,6.32011 7.948233,14.12353 7.622794,21.46875 -0.976971,3.03944 -3.135819,6.36828 -10.52951,6.69403 -0.434162,0.0116 -0.711588,0.0116 -0.989013,0.0116 z"
     inkscape:connector-curvature="0" /><path
     style="stroke:#4a773c;stroke-width:3.08765173;stroke-opacity:1"
     id="path40"
     d="m 72.219648,416.58601 c -0.844318,0 -1.736804,0.0482 -2.569042,0.0965 -1.917702,0.19297 -3.364923,1.86949 -3.183986,3.78731 0.192978,1.9177 1.869496,3.36492 3.787313,3.18399 5.282664,-0.47037 10.806781,1.02517 15.160988,4.11275 l 1.169949,0.89252 c 1.350848,1.07346 2.942918,2.29162 4.824456,3.13582 2.43635,1.07346 4.957225,1.31465 7.200404,1.54383 0.74779,0.0965 1.54383,0.14473 2.29162,0.2775 7.44185,1.16995 13.99076,7.01947 16.04127,14.31651 -2.76198,-0.74779 -5.52411,-1.68856 -8.41879,-2.66549 -2.99116,-0.97697 -6.07897,-2.06247 -9.262953,-2.89467 -6.694029,-1.77301 -17.63327,-2.56904 -24.797548,-0.5669 -1.869457,0.51865 -2.942879,2.48464 -2.43635,4.35421 0.518648,1.8695 2.484633,2.94292 4.30573,2.43635 5.656578,-1.59203 15.341924,-0.94077 21.094836,0.56686 2.991165,0.79603 5.898035,1.773 8.840875,2.76202 3.18398,1.07346 6.50105,2.19512 9.91414,3.0394 1.02522,0.22926 2.85851,0.6513 4.67964,-0.14473 2.81027,-1.39909 3.88365,-4.48667 2.99117,-8.18938 -2.56901,-10.20376 -11.55461,-18.3811 -21.89084,-19.9734 -0.89248,-0.14473 -1.77296,-0.22926 -2.617244,-0.2775 -1.917741,-0.19298 -3.69067,-0.37399 -5.101727,-0.97694 -1.073461,-0.4704 -2.195166,-1.35084 -3.364923,-2.24337 l -1.350848,-1.02521 c -5.005392,-3.5823 -11.180695,-5.54821 -17.307831,-5.54821 z"
     inkscape:connector-curvature="0" /><path
     style="stroke:#4a773c;stroke-width:3.08765173;stroke-opacity:1"
     id="path42"
     d="m 133.63304,443.20465 c -4.40237,0 -8.74423,0.6513 -12.72452,1.26644 -1.91774,0.2775 -3.23246,2.11068 -2.94292,3.98029 0.2775,1.9177 2.06247,3.23246 3.98029,2.94288 5.60841,-0.84428 11.4098,-1.7368 16.78911,-0.74779 3.31675,0.60306 6.64555,1.9177 9.86597,3.23246 3.98029,1.59207 8.46696,3.4134 11.22886,6.54922 3.73884,4.25756 4.25757,10.90312 4.35421,15.58307 0,0.60306 0.0482,2.14688 -0.32575,2.61729 -0.14473,0.14473 -0.56685,0.47036 -2.01419,0.79603 -4.58331,0.97697 -9.35929,0.74779 -14.41316,0.47037 -1.86945,-0.0965 -3.73883,-0.19298 -5.60841,-0.22926 -2.24337,-0.0483 -4.48666,0 -6.74219,0.0482 l -23.35037,0.47037 c -1.9177,0.0482 -3.46156,1.64031 -3.4134,3.60638 0.0482,1.9177 1.64032,3.50973 3.60638,3.41339 l 23.35037,-0.47036 c 2.14688,-0.0482 4.30573,-0.0965 6.45257,-0.0482 1.77301,0.0482 3.5579,0.14473 5.37931,0.22925 5.28266,0.27751 10.80678,0.56686 16.28242,-0.60305 1.9177,-0.42212 4.30573,-1.16995 5.98232,-3.23247 1.96599,-2.43635 1.91771,-5.52411 1.8695,-7.15223 -0.0965,-5.75322 -0.84428,-14.08741 -6.07897,-20.06974 -3.88365,-4.40237 -9.45593,-6.64555 -13.89443,-8.41879 -3.36492,-1.35085 -7.2004,-2.89467 -11.22886,-3.60638 -2.14689,-0.49452 -4.29369,-0.62714 -6.40441,-0.62714 z"
     inkscape:connector-curvature="0" /><path
     style="stroke:#4a773c;stroke-width:3.08765173;stroke-opacity:1"
     id="path44"
     d="m 144.53863,471.54929 c -0.32575,0 -0.69955,0.0482 -1.02522,0.14474 l -1.31465,0.42212 c -1.86949,0.56685 -2.89467,2.5208 -2.33986,4.40237 0.56686,1.8695 2.56901,2.89467 4.40238,2.33986 l 1.31464,-0.42216 c 1.8695,-0.56685 2.89468,-2.52076 2.33986,-4.40237 -0.47036,-1.54383 -1.88153,-2.4846 -3.37727,-2.4846 z"
     inkscape:connector-curvature="0" /><path
     style="stroke:#4a773c;stroke-width:3.08765173;stroke-opacity:1"
     id="path46"
     d="m 154.9224,461.35696 c -4.16123,0 -8.32215,0.2775 -12.44694,0.89252 -1.91774,0.2775 -3.23247,2.06244 -2.94296,3.98029 0.2775,1.9177 2.01419,3.23246 3.98029,2.94288 7.01947,-1.02518 14.12354,-1.07342 21.14331,-0.22926 1.91771,0.19298 3.69067,-1.1217 3.93182,-3.03944 0.22926,-1.9177 -1.12167,-3.69067 -3.03941,-3.93182 -3.5579,-0.43416 -7.11611,-0.6151 -10.62584,-0.6151 z"
     inkscape:connector-curvature="0" /><path
     style="stroke:#4a773c;stroke-width:3.08765173;stroke-opacity:1"
     id="path48"
     d="m 109.72844,393.2835 c -4.82446,0 -8.88904,3.46157 -9.5887,8.28602 -0.796037,5.42748 -1.821253,22.36139 -1.399094,27.78887 0.144734,1.9177 1.821214,3.41339 3.738834,3.23246 1.91771,-0.14474 3.36493,-1.82121 3.23247,-3.73884 -0.32575,-4.53514 0.60305,-20.9139 1.35084,-26.29321 0.19298,-1.35084 1.35085,-2.43635 2.81027,-2.29161 l 15.81217,0.89252 c 1.12167,0.0482 2.11068,0.796 2.43635,1.9177 2.24333,7.39339 6.12714,31.39525 3.98029,39.19774 -0.51864,1.86946 0.56686,3.78732 2.43631,4.30573 1.8695,0.51861 3.78732,-0.56685 4.30574,-2.43635 2.8585,-10.33653 -1.86946,-36.11008 -4.02846,-43.1314 -1.16992,-3.88365 -4.72782,-6.64556 -8.74423,-6.87497 l -15.81218,-0.89252 c -0.15669,0.0347 -0.33771,0.0347 -0.53069,0.0347 z"
     inkscape:connector-curvature="0" /></g></g></svg>