<?xml version="1.0" encoding="UTF-8" standalone="no"?>
<!-- Created with Inkscape (http://www.inkscape.org/) -->

<svg
   id="svg2"
   version="1.1"
   inkscape:version="1.4 (86a8ad7, 2024-10-11)"
   width="2145.6367"
   height="611.96698"
   xml:space="preserve"
   sodipodi:docname="TwoSources.svg"
   inkscape:export-filename="TwoSources.png"
   inkscape:export-xdpi="400"
   inkscape:export-ydpi="400"
   xmlns:inkscape="http://www.inkscape.org/namespaces/inkscape"
   xmlns:sodipodi="http://sodipodi.sourceforge.net/DTD/sodipodi-0.dtd"
   xmlns="http://www.w3.org/2000/svg"
   xmlns:svg="http://www.w3.org/2000/svg"
   xmlns:rdf="http://www.w3.org/1999/02/22-rdf-syntax-ns#"
   xmlns:cc="http://creativecommons.org/ns#"
   xmlns:dc="http://purl.org/dc/elements/1.1/"><metadata
     id="metadata8"><rdf:RDF><cc:Work
         rdf:about=""><dc:format>image/svg+xml</dc:format><dc:type
           rdf:resource="http://purl.org/dc/dcmitype/StillImage" /><dc:title /></cc:Work></rdf:RDF></metadata><defs
     id="defs6"><marker
       inkscape:stockid="Arrow1Lend"
       orient="auto"
       refY="0"
       refX="0"
       id="Arrow1Lend"
       style="overflow:visible"><path
         id="path3835"
         d="M -10.666667,0 -14.933333,4.2666667 0,0 -14.933333,-4.2666667 Z"
         style="fill-rule:evenodd;stroke:#000000;stroke-width:0.85333335pt;marker-start:none"
         inkscape:connector-curvature="0" /></marker><marker
       inkscape:stockid="Arrow1Mend"
       orient="auto"
       refY="0"
       refX="0"
       id="Arrow1Mend"
       style="overflow:visible"><path
         id="path3804"
         d="M -4.2666667,0 -6.4,2.1333333 1.0666667,0 -6.4,-2.1333333 Z"
         style="fill-rule:evenodd;stroke:#000000;stroke-width:0.42666668pt"
         inkscape:connector-curvature="0" /></marker><clipPath
       clipPathUnits="userSpaceOnUse"
       id="clipPath18"><path
         d="M 0,0 H 1677 V 937.891 H 0 Z"
         id="path20"
         inkscape:connector-curvature="0" /></clipPath><marker
       inkscape:stockid="Arrow1Mend"
       orient="auto"
       refY="0"
       refX="0"
       id="Arrow1Mend-1"
       style="overflow:visible"><path
         inkscape:connector-curvature="0"
         id="path3804-7"
         d="M -4.2666667,0 -6.4,2.1333333 1.0666667,0 -6.4,-2.1333333 Z"
         style="fill-rule:evenodd;stroke:#000000;stroke-width:0.42666668pt" /></marker><marker
       inkscape:stockid="Arrow1Mend"
       orient="auto"
       refY="0"
       refX="0"
       id="Arrow1Mend-0"
       style="overflow:visible"><path
         inkscape:connector-curvature="0"
         id="path3804-9"
         d="M -4.2666667,0 -6.4,2.1333333 1.0666667,0 -6.4,-2.1333333 Z"
         style="fill-rule:evenodd;stroke:#000000;stroke-width:0.42666668pt" /></marker><marker
       inkscape:stockid="Arrow1Mend"
       orient="auto"
       refY="0"
       refX="0"
       id="Arrow1Mend-5"
       style="overflow:visible"><path
         inkscape:connector-curvature="0"
         id="path3804-1"
         d="M -4.2666667,0 -6.4,2.1333333 1.0666667,0 -6.4,-2.1333333 Z"
         style="fill-rule:evenodd;stroke:#000000;stroke-width:0.42666668pt" /></marker><marker
       inkscape:stockid="Arrow1Lend"
       orient="auto"
       refY="0"
       refX="0"
       id="Arrow1Lend-7"
       style="overflow:visible"><path
         id="path3835-6"
         d="M -10.666667,0 -14.933333,4.2666667 0,0 -14.933333,-4.2666667 Z"
         style="fill-rule:evenodd;stroke:#000000;stroke-width:0.85333335pt;marker-start:none"
         inkscape:connector-curvature="0" /></marker><marker
       inkscape:stockid="Arrow1Lend"
       orient="auto"
       refY="0"
       refX="0"
       id="Arrow1Lend-2"
       style="overflow:visible"><path
         id="path3835-2"
         d="M -10.666667,0 -14.933333,4.2666667 0,0 -14.933333,-4.2666667 Z"
         style="fill-rule:evenodd;stroke:#000000;stroke-width:0.85333335pt;marker-start:none"
         inkscape:connector-curvature="0" /></marker><marker
       inkscape:stockid="Arrow1Lend"
       orient="auto"
       refY="0"
       refX="0"
       id="marker4177"
       style="overflow:visible"><path
         id="path4179"
         d="M -10.666667,0 -14.933333,4.2666667 0,0 -14.933333,-4.2666667 Z"
         style="fill-rule:evenodd;stroke:#000000;stroke-width:0.85333335pt;marker-start:none"
         inkscape:connector-curvature="0" /></marker><marker
       inkscape:stockid="Arrow1Lend"
       orient="auto"
       refY="0"
       refX="0"
       id="marker4181"
       style="overflow:visible"><path
         id="path4183"
         d="M -10.666667,0 -14.933333,4.2666667 0,0 -14.933333,-4.2666667 Z"
         style="fill-rule:evenodd;stroke:#000000;stroke-width:0.85333335pt;marker-start:none"
         inkscape:connector-curvature="0" /></marker><marker
       inkscape:stockid="Arrow1Lend"
       orient="auto"
       refY="0"
       refX="0"
       id="Arrow1Lend-3"
       style="overflow:visible"><path
         id="path3835-1"
         d="M -10.666667,0 -14.933333,4.2666667 0,0 -14.933333,-4.2666667 Z"
         style="fill-rule:evenodd;stroke:#000000;stroke-width:0.85333335pt;marker-start:none"
         inkscape:connector-curvature="0" /></marker><marker
       inkscape:stockid="Arrow1Lend"
       orient="auto"
       refY="0"
       refX="0"
       id="marker4177-2"
       style="overflow:visible"><path
         id="path4179-3"
         d="M -10.666667,0 -14.933333,4.2666667 0,0 -14.933333,-4.2666667 Z"
         style="fill-rule:evenodd;stroke:#000000;stroke-width:0.85333335pt;marker-start:none"
         inkscape:connector-curvature="0" /></marker><marker
       inkscape:stockid="Arrow1Lend"
       orient="auto"
       refY="0"
       refX="0"
       id="marker4181-3"
       style="overflow:visible"><path
         id="path4183-4"
         d="M -10.666667,0 -14.933333,4.2666667 0,0 -14.933333,-4.2666667 Z"
         style="fill-rule:evenodd;stroke:#000000;stroke-width:0.85333335pt;marker-start:none"
         inkscape:connector-curvature="0" /></marker><marker
       inkscape:stockid="Arrow1Lend"
       orient="auto"
       refY="0"
       refX="0"
       id="Arrow1Lend-6"
       style="overflow:visible"><path
         id="path3835-0"
         d="M -10.666667,0 -14.933333,4.2666667 0,0 -14.933333,-4.2666667 Z"
         style="fill-rule:evenodd;stroke:#000000;stroke-width:0.85333335pt;marker-start:none"
         inkscape:connector-curvature="0" /></marker><marker
       inkscape:stockid="Arrow1Lend"
       orient="auto"
       refY="0"
       refX="0"
       id="Arrow1Lend-4"
       style="overflow:visible"><path
         id="path3835-8"
         d="M -10.666667,0 -14.933333,4.2666667 0,0 -14.933333,-4.2666667 Z"
         style="fill-rule:evenodd;stroke:#000000;stroke-width:0.85333335pt;marker-start:none"
         inkscape:connector-curvature="0" /></marker><marker
       inkscape:stockid="Arrow1Lend"
       orient="auto"
       refY="0"
       refX="0"
       id="Arrow1Lend-0"
       style="overflow:visible"><path
         id="path3835-61"
         d="M -10.666667,0 -14.933333,4.2666667 0,0 -14.933333,-4.2666667 Z"
         style="fill-rule:evenodd;stroke:#000000;stroke-width:0.85333335pt;marker-start:none"
         inkscape:connector-curvature="0" /></marker><marker
       inkscape:stockid="Arrow1Lend"
       orient="auto"
       refY="0"
       refX="0"
       id="Arrow1Lend-8"
       style="overflow:visible"><path
         id="path3835-9"
         d="M -10.666667,0 -14.933333,4.2666667 0,0 -14.933333,-4.2666667 Z"
         style="fill-rule:evenodd;stroke:#000000;stroke-width:0.85333335pt;marker-start:none"
         inkscape:connector-curvature="0" /></marker><marker
       inkscape:stockid="Arrow1Lend"
       orient="auto"
       refY="0"
       refX="0"
       id="Arrow1Lend-44"
       style="overflow:visible"><path
         id="path3835-60"
         d="M -10.666667,0 -14.933333,4.2666667 0,0 -14.933333,-4.2666667 Z"
         style="fill-rule:evenodd;stroke:#000000;stroke-width:0.85333335pt;marker-start:none"
         inkscape:connector-curvature="0" /></marker><marker
       inkscape:stockid="Arrow1Mend"
       orient="auto"
       refY="0"
       refX="0"
       id="Arrow1Mend-2"
       style="overflow:visible"><path
         id="path3804-97"
         d="M -4.2666667,0 -6.4,2.1333333 1.0666667,0 -6.4,-2.1333333 Z"
         style="fill-rule:evenodd;stroke:#000000;stroke-width:0.42666668pt"
         inkscape:connector-curvature="0" /></marker><marker
       inkscape:stockid="Arrow1Mend"
       orient="auto"
       refY="0"
       refX="0"
       id="marker4194"
       style="overflow:visible"><path
         id="path4196"
         d="M -4.2666667,0 -6.4,2.1333333 1.0666667,0 -6.4,-2.1333333 Z"
         style="fill-rule:evenodd;stroke:#000000;stroke-width:0.42666668pt"
         inkscape:connector-curvature="0" /></marker><marker
       inkscape:stockid="Arrow1Mend"
       orient="auto"
       refY="0"
       refX="0"
       id="marker4198"
       style="overflow:visible"><path
         id="path4200"
         d="M -4.2666667,0 -6.4,2.1333333 1.0666667,0 -6.4,-2.1333333 Z"
         style="fill-rule:evenodd;stroke:#000000;stroke-width:0.42666668pt"
         inkscape:connector-curvature="0" /></marker><marker
       inkscape:stockid="Arrow1Mend"
       orient="auto"
       refY="0"
       refX="0"
       id="marker4202"
       style="overflow:visible"><path
         id="path4204"
         d="M -4.2666667,0 -6.4,2.1333333 1.0666667,0 -6.4,-2.1333333 Z"
         style="fill-rule:evenodd;stroke:#000000;stroke-width:0.42666668pt"
         inkscape:connector-curvature="0" /></marker><marker
       inkscape:stockid="Arrow1Mend"
       orient="auto"
       refY="0"
       refX="0"
       id="Arrow1Mend-3"
       style="overflow:visible"><path
         id="path3804-4"
         d="M -4.2666667,0 -6.4,2.1333333 1.0666667,0 -6.4,-2.1333333 Z"
         style="fill-rule:evenodd;stroke:#000000;stroke-width:0.42666668pt"
         inkscape:connector-curvature="0" /></marker><marker
       inkscape:stockid="Arrow1Mend"
       orient="auto"
       refY="0"
       refX="0"
       id="Arrow1Mend-7"
       style="overflow:visible"><path
         id="path3804-0"
         d="M -4.2666667,0 -6.4,2.1333333 1.0666667,0 -6.4,-2.1333333 Z"
         style="fill-rule:evenodd;stroke:#000000;stroke-width:0.42666668pt"
         inkscape:connector-curvature="0" /></marker><marker
       inkscape:stockid="Arrow1Mend"
       orient="auto"
       refY="0"
       refX="0"
       id="Arrow1Mend-05"
       style="overflow:visible"><path
         id="path3804-93"
         d="M -4.2666667,0 -6.4,2.1333333 1.0666667,0 -6.4,-2.1333333 Z"
         style="fill-rule:evenodd;stroke:#000000;stroke-width:0.42666668pt"
         inkscape:connector-curvature="0" /></marker><marker
       inkscape:stockid="Arrow1Mend"
       orient="auto"
       refY="0"
       refX="0"
       id="Arrow1Mend-00"
       style="overflow:visible"><path
         id="path3804-3"
         d="M -4.2666667,0 -6.4,2.1333333 1.0666667,0 -6.4,-2.1333333 Z"
         style="fill-rule:evenodd;stroke:#000000;stroke-width:0.42666668pt"
         inkscape:connector-curvature="0" /></marker><marker
       inkscape:stockid="Arrow1Mend"
       orient="auto"
       refY="0"
       refX="0"
       id="Arrow1Mend-9"
       style="overflow:visible"><path
         id="path3804-6"
         d="M -4.2666667,0 -6.4,2.1333333 1.0666667,0 -6.4,-2.1333333 Z"
         style="fill-rule:evenodd;stroke:#000000;stroke-width:0.42666668pt"
         inkscape:connector-curvature="0" /></marker><marker
       inkscape:stockid="Arrow1Mend"
       orient="auto"
       refY="0"
       refX="0"
       id="Arrow1Mend-19"
       style="overflow:visible"><path
         id="path3804-5"
         d="M -4.2666667,0 -6.4,2.1333333 1.0666667,0 -6.4,-2.1333333 Z"
         style="fill-rule:evenodd;stroke:#000000;stroke-width:0.42666668pt"
         inkscape:connector-curvature="0" /></marker><marker
       inkscape:stockid="Arrow1Mend"
       orient="auto"
       refY="0"
       refX="0"
       id="Arrow1Mend-30"
       style="overflow:visible"><path
         id="path3804-62"
         d="M -4.2666667,0 -6.4,2.1333333 1.0666667,0 -6.4,-2.1333333 Z"
         style="fill-rule:evenodd;stroke:#000000;stroke-width:0.42666668pt"
         inkscape:connector-curvature="0" /></marker><marker
       inkscape:stockid="Arrow1Mend"
       orient="auto"
       refY="0"
       refX="0"
       id="Arrow1Mend-07"
       style="overflow:visible"><path
         id="path3804-09"
         d="M -4.2666667,0 -6.4,2.1333333 1.0666667,0 -6.4,-2.1333333 Z"
         style="fill-rule:evenodd;stroke:#000000;stroke-width:0.42666668pt"
         inkscape:connector-curvature="0" /></marker><marker
       inkscape:stockid="Arrow1Mend"
       orient="auto"
       refY="0"
       refX="0"
       id="Arrow1Mend-197"
       style="overflow:visible"><path
         id="path3804-56"
         d="M -4.2666667,0 -6.4,2.1333333 1.0666667,0 -6.4,-2.1333333 Z"
         style="fill-rule:evenodd;stroke:#000000;stroke-width:0.42666668pt"
         inkscape:connector-curvature="0" /></marker></defs><sodipodi:namedview
     pagecolor="#ffffff"
     bordercolor="#666666"
     borderopacity="1"
     objecttolerance="10"
     gridtolerance="10"
     guidetolerance="10"
     inkscape:pageopacity="0"
     inkscape:pageshadow="2"
     inkscape:window-width="2880"
     inkscape:window-height="1514"
     id="namedview4"
     showgrid="false"
     fit-margin-top="0"
     fit-margin-left="0"
     fit-margin-right="0"
     fit-margin-bottom="0"
     inkscape:zoom="0.59352979"
     inkscape:cx="1072.3977"
     inkscape:cy="305.79762"
     inkscape:window-x="-11"
     inkscape:window-y="97"
     inkscape:window-maximized="1"
     inkscape:current-layer="g10"
     showguides="true"
     inkscape:guide-bbox="true"
     inkscape:showpageshadow="2"
     inkscape:pagecheckerboard="0"
     inkscape:deskcolor="#d1d1d1" /><g
     id="g10"
     inkscape:groupmode="layer"
     inkscape:label="ink_ext_XXXXXX"
     transform="matrix(1.25,0,0,-1.25,773.58335,342.31619)">




<path
   style="fill:#e6e6e6;stroke:#4d4d4d;stroke-width:1.2;stroke-dasharray:none"
   d="M 241.98783,216.34202 V -159.04491"
   id="path1"
   sodipodi:nodetypes="cc" /><path
   style="fill:#e6e6e6;stroke:#4d4d4d;stroke-width:1.2;stroke-dasharray:none"
   d="M -586.52125,-158.28901 H 1070.4969"
   id="path2"
   sodipodi:nodetypes="cc" /><text
   xml:space="preserve"
   style="font-style:normal;font-variant:normal;font-weight:normal;font-stretch:normal;font-size:31.8595px;line-height:0%;font-family:'Times New Roman';-inkscape-font-specification:Sans;letter-spacing:0px;word-spacing:0px;fill:#000000;fill-opacity:1;stroke:none;stroke-width:2.65496"
   x="1067.7338"
   y="167.31749"
   id="text3019"
   transform="scale(1,-1)"><tspan
     sodipodi:role="line"
     id="tspan3021"
     x="1067.7338"
     y="167.31749"
     style="font-style:italic;font-size:50.9754px;line-height:1.25;stroke-width:2.65496">y</tspan></text><text
   xml:space="preserve"
   style="font-style:normal;font-variant:normal;font-weight:normal;font-stretch:normal;font-size:31.8595px;line-height:0%;font-family:'Times New Roman';-inkscape-font-specification:Sans;letter-spacing:0px;word-spacing:0px;fill:#000000;fill-opacity:1;stroke:none;stroke-width:2.65496"
   x="230.12154"
   y="206.24451"
   id="text3019-4"
   transform="scale(1,-1)"><tspan
     sodipodi:role="line"
     id="tspan3021-8"
     x="230.12154"
     y="206.24451"
     style="font-style:normal;font-size:50.9754px;line-height:1.25;stroke-width:2.65496">0</tspan></text><text
   xml:space="preserve"
   style="font-style:normal;font-variant:normal;font-weight:normal;font-stretch:normal;font-size:31.8595px;line-height:0%;font-family:'Times New Roman';-inkscape-font-specification:Sans;letter-spacing:0px;word-spacing:0px;fill:#000000;fill-opacity:1;stroke:none;stroke-width:2.65496"
   x="339.50882"
   y="198.24448"
   id="text3019-4-8"
   transform="scale(1,-1)"><tspan
     sodipodi:role="line"
     id="tspan3021-8-2"
     x="339.50882"
     y="198.24448"
     style="font-style:normal;font-size:50.9754px;line-height:1.25;stroke-width:2.65496"><tspan
       style="font-style:italic"
       id="tspan3">y</tspan><tspan
       style="font-size:65%;baseline-shift:sub"
       id="tspan4">1</tspan></tspan></text><text
   xml:space="preserve"
   style="font-style:normal;font-variant:normal;font-weight:normal;font-stretch:normal;font-size:31.8595px;line-height:0%;font-family:'Times New Roman';-inkscape-font-specification:Sans;letter-spacing:0px;word-spacing:0px;fill:#000000;fill-opacity:1;stroke:none;stroke-width:2.65496"
   x="232.33038"
   y="-230.42772"
   id="text3019-0"
   transform="scale(1,-1)"><tspan
     sodipodi:role="line"
     id="tspan3021-9"
     x="232.33038"
     y="-230.42772"
     style="font-style:italic;font-size:50.9754px;line-height:1.25;stroke-width:2.65496">I</tspan></text><g
   id="g3"
   transform="translate(-1.75182)"><path
     style="fill:#e6e6e6;stroke:#4d4d4d;stroke-width:3.2;stroke-dasharray:none"
     d="m 243.73964,-142.96907 v -25.54341"
     id="path3" /><path
     style="fill:#e6e6e6;stroke:#4d4d4d;stroke-width:3.2;stroke-dasharray:none"
     d="m 353.82549,-142.96907 v -25.54341"
     id="path3-4" /><path
     style="fill:#e6e6e6;stroke:#4d4d4d;stroke-width:3.2;stroke-dasharray:none"
     d="m 463.91134,-142.96907 v -25.54341"
     id="path3-4-5" /><path
     style="fill:#e6e6e6;stroke:#4d4d4d;stroke-width:3.2;stroke-dasharray:none"
     d="m 573.99718,-142.96907 v -25.54341"
     id="path3-4-51" /><path
     style="fill:#e6e6e6;stroke:#4d4d4d;stroke-width:3.2;stroke-dasharray:none"
     d="m 684.08303,-142.96907 v -25.54341"
     id="path3-4-7" /><path
     style="fill:#e6e6e6;stroke:#4d4d4d;stroke-width:3.2;stroke-dasharray:none"
     d="m 794.16887,-142.96907 v -25.54341"
     id="path3-4-1" /><path
     style="fill:#e6e6e6;stroke:#4d4d4d;stroke-width:3.2;stroke-dasharray:none"
     d="m 904.25472,-142.96907 v -25.54341"
     id="path3-4-15" /><path
     style="fill:#e6e6e6;stroke:#4d4d4d;stroke-width:3.2;stroke-dasharray:none"
     d="m -416.77543,-142.96907 v -25.54341"
     id="path3-4-2" /><path
     style="fill:#e6e6e6;stroke:#4d4d4d;stroke-width:3.2;stroke-dasharray:none"
     d="m -306.68958,-142.96907 v -25.54341"
     id="path3-4-5-7" /><path
     style="fill:#e6e6e6;stroke:#4d4d4d;stroke-width:3.2;stroke-dasharray:none"
     d="m -196.60374,-142.96907 v -25.54341"
     id="path3-4-51-6" /><path
     style="fill:#e6e6e6;stroke:#4d4d4d;stroke-width:3.2;stroke-dasharray:none"
     d="m -86.517893,-142.96907 v -25.54341"
     id="path3-4-7-1" /><path
     style="fill:#e6e6e6;stroke:#4d4d4d;stroke-width:3.2;stroke-dasharray:none"
     d="m 23.567953,-142.96907 v -25.54341"
     id="path3-4-1-4" /><path
     style="fill:#e6e6e6;stroke:#4d4d4d;stroke-width:3.2;stroke-dasharray:none"
     d="m 133.6538,-142.96907 v -25.54341"
     id="path3-4-15-2" /></g><g
   id="surface1"
   transform="matrix(4.4608224,0,0,-1.8301979,-561.00218,229.51467)"
   style="stroke-width:0.558995;stroke-dasharray:none"><path
     style="fill:none;stroke:#000000;stroke-width:0.558995;stroke-linecap:square;stroke-linejoin:miter;stroke-miterlimit:3.25;stroke-dasharray:none;stroke-opacity:1"
     d="m 73.199219,216.36719 0.105469,-0.008 0.105468,-0.0273 0.109375,-0.0469 0.105469,-0.0625 0.105469,-0.082 0.105469,-0.10156 0.105468,-0.11719 0.105469,-0.13671 0.105469,-0.15625 0.109375,-0.17188 0.105469,-0.19141 0.105468,-0.20703 0.105469,-0.22656 0.105469,-0.24609 0.210937,-0.54297 L 75,213.74609 l 0.109375,-0.3164 0.210938,-0.6836 0.105468,-0.36718 0.105469,-0.38672 0.210938,-0.82422 0.109375,-0.44141 0.105468,-0.45312 0.210938,-0.96094 0.425781,-2.12891 0.105469,-0.57422 0.105469,-0.58984 0.210937,-1.22656 0.425781,-2.64844 0.105469,-0.70312 0.105469,-0.71875 0.210937,-1.48047 0.425782,-3.14063 0.105468,-0.82031 0.105469,-0.83594 0.210938,-1.71484 0.425781,-3.59766 0.847656,-7.8164 0.113281,-1.11719 0.117188,-1.13672 0.226562,-2.30469 0.460938,-4.76562 0.917969,-10.08985 L 83.660156,140 l 0.117188,-1.42578 0.113281,-1.42969 0.230469,-2.87109 0.460937,-5.78907 0.917969,-11.68359 1.839844,-23.230467 0.105469,-1.328125 0.105468,-1.324219 0.214844,-2.636719 0.429688,-5.207031 0.859375,-10.101563 0.105468,-1.226562 0.109375,-1.222656 0.214844,-2.414063 0.429688,-4.71875 0.855468,-8.957031 0.109375,-1.070313 0.105469,-1.058593 0.214844,-2.078125 0.429687,-4.011719 0.109375,-0.96875 0.105469,-0.957031 0.214844,-1.875 0.429687,-3.582032 0.105469,-0.859375 0.109375,-0.847656 0.214844,-1.644531 0.429687,-3.109375 0.105469,-0.738281 0.109375,-0.722657 0.214844,-1.398437 0.425781,-2.601563 0.105469,-0.597656 0.105469,-0.582031 0.210937,-1.113281 0.105469,-0.53125 0.105469,-0.515625 0.210937,-0.980469 0.105469,-0.464844 0.105469,-0.449219 0.210937,-0.847656 0.105469,-0.394531 0.101562,-0.382813 0.210938,-0.707031 0.105469,-0.328125 0.105468,-0.3125 0.105469,-0.292969 0.105469,-0.277343 0.105469,-0.257813 0.105468,-0.238281 0.105469,-0.226563 0.105469,-0.203125 0.105469,-0.1875 0.105468,-0.171875 0.105469,-0.152343 0.101563,-0.132813 0.105468,-0.117187 0.105469,-0.09766 0.105469,-0.08203 0.105469,-0.0625 0.105468,-0.04297 0.105469,-0.02734 0.105469,-0.0078 0.105469,0.0078 0.105468,0.02734 0.105469,0.04687 0.105469,0.0625 0.105469,0.07813 0.105468,0.101563 0.101563,0.117187 0.105469,0.132813 0.105468,0.152344 0.105469,0.171875 0.105469,0.1875 0.105469,0.203125 0.105468,0.226562 0.105469,0.238281 0.105469,0.257813 0.210937,0.570312 0.105469,0.3125 0.105469,0.328125 0.207031,0.710938 0.10547,0.378906 0.10547,0.398438 0.21094,0.847656 0.42187,1.894531 0.11328,0.5625 0.11328,0.578125 0.23047,1.21875 0.45703,2.660156 0.11328,0.710938 0.11329,0.730469 0.22656,1.515625 0.45703,3.242187 0.11328,0.855469 0.11719,0.871094 0.22656,1.792968 0.45703,3.78125 0.91406,8.296875 0.11329,1.101563 0.11328,1.117187 0.22656,2.269532 0.45703,4.699218 0.91406,9.949219 1.82422,21.644531 0.10938,1.316407 0.10547,1.320312 0.21093,2.652344 0.42578,5.347659 0.85547,10.80469 1.70313,21.61328 0.10547,1.33203 0.10547,1.32812 0.21484,2.64844 0.42578,5.24219 0.85156,10.21484 1.70313,18.95703 0.11719,1.19532 0.11328,1.18359 0.23047,2.32422 0.46484,4.48828 0.11328,1.08984 0.11719,1.07032 0.23047,2.09765 0.46093,4.01563 0.11329,0.96094 0.11718,0.94921 0.23047,1.84375 0.46094,3.48047 0.11719,0.82422 0.11328,0.8086 0.23047,1.5625 0.46484,2.90234 0.11328,0.67578 0.11719,0.66016 0.23047,1.25781 0.11328,0.60156 0.11719,0.58203 0.23047,1.09766 0.11328,0.52344 0.11718,0.5 0.23047,0.9375 0.11719,0.4375 0.11328,0.41797 0.23047,0.77343 0.11719,0.35547 0.11328,0.33594 0.11719,0.3125 0.11328,0.29297 0.11719,0.27344 0.11718,0.25 0.11328,0.22656 0.11719,0.20703 0.11328,0.1875 0.11719,0.16406 0.11328,0.14063 0.11719,0.12109 0.11328,0.10156 0.11719,0.0781 0.11328,0.0586 0.11719,0.0352 0.11328,0.0117 0.11328,-0.008 0.11328,-0.0273 0.11328,-0.0508 0.11328,-0.0664 0.11328,-0.0937 0.11329,-0.10937 0.11328,-0.13281 0.11328,-0.15235 0.11328,-0.17187 0.11328,-0.19532 0.11328,-0.21484 0.11328,-0.23437 0.11328,-0.25782 0.22657,-0.57031 0.11328,-0.32031 0.11328,-0.33594 0.22656,-0.73437 0.11328,-0.39844 0.11328,-0.41797 0.22657,-0.89453 0.11328,-0.47656 0.11328,-0.4961 0.22656,-1.05078 0.45313,-2.33594 0.11328,-0.6289 0.11328,-0.64844 0.22656,-1.35547 0.45313,-2.92578 0.11328,-0.77734 0.11328,-0.79297 0.22656,-1.63672 0.45313,-3.48047 0.11328,-0.91016 0.11328,-0.92578 0.22656,-1.90234 0.45313,-3.98828 0.90625,-8.66016 0.10546,-1.06641 0.10547,-1.07421 0.21485,-2.1875 0.42187,-4.49219 0.84375,-9.4336 1.69141,-20.26171 0.10547,-1.3125 0.10547,-1.31641 0.21093,-2.64453 0.42578,-5.32031 0.84375,-10.73828 1.69141,-21.421883 0.11328,-1.429687 0.11719,-1.425782 0.22656,-2.835937 0.46094,-5.609375 0.91406,-10.878906 0.11719,-1.324219 0.11328,-1.3125 0.23047,-2.597656 0.45703,-5.078125 0.91797,-9.605469 0.11328,-1.144531 0.11328,-1.128907 0.23047,-2.222656 0.45703,-4.269531 0.11719,-1.03125 0.11328,-1.015625 0.23047,-1.984375 0.45703,-3.78125 0.11719,-0.902344 0.11328,-0.886719 0.23047,-1.722656 0.45703,-3.234375 0.11328,-0.761719 0.11719,-0.746093 0.22656,-1.4375 0.46094,-2.644532 0.10547,-0.574218 0.10547,-0.554688 0.21484,-1.0625 0.10937,-0.507812 0.10547,-0.488282 0.21485,-0.921875 0.10547,-0.4375 0.10546,-0.417968 0.21485,-0.78125 0.10937,-0.367188 0.10547,-0.34375 0.21485,-0.640625 0.10546,-0.292969 0.10938,-0.273437 0.10547,-0.257813 0.10547,-0.238281 0.10937,-0.21875 0.10547,-0.203125 0.10938,-0.183594 0.10546,-0.164062 0.10547,-0.144531 0.10938,-0.128907 0.10547,-0.109375 0.10547,-0.08984 0.10937,-0.07422 0.10547,-0.05078 0.10937,-0.03516 0.10547,-0.01953 0.10547,0.0039 0.10938,0.01953 0.10547,0.03906 0.10937,0.05859 0.10547,0.07422 0.10547,0.09766 0.10937,0.113281 0.10547,0.128906 0.10938,0.152344 0.10547,0.167969 0.10546,0.1875 0.10938,0.203125 0.10547,0.226562 0.10547,0.238282 0.21484,0.539062 0.10938,0.296875 0.10546,0.316406 0.21485,0.683594 0.10547,0.367188 0.10937,0.386718 0.21094,0.824219 0.10937,0.441406 0.10547,0.457032 0.21485,0.964843 0.42578,2.140625 0.10547,0.566407 0.10547,0.582031 0.21093,1.210937 0.41797,2.609375 0.10547,0.691407 0.10547,0.707031 0.21094,1.457031 0.41797,3.09375 0.10546,0.8125 0.10547,0.820313 0.20703,1.691406 0.42188,3.539062 0.83984,7.695313 0.10547,1.015625 0.10156,1.03125 0.21094,2.085937 0.41797,4.308594 0.83984,9.09375 1.67969,19.714844 0.11328,1.394531 0.11328,1.398438 0.22657,2.816406 0.45703,5.683594 0.91015,11.519533 1.82032,23.10547 0.11328,1.42578 0.11328,1.42187 0.23047,2.82813 0.45312,5.60156 0.91016,10.88281 1.82031,20.03516 0.10938,1.07812 0.10547,1.07032 0.21093,2.10156 0.42578,4.0625 0.10547,0.98437 0.10547,0.97266 0.21485,1.90234 0.42187,3.65235 0.10938,0.8789 0.10546,0.86719 0.21094,1.6875 0.42578,3.19922 0.10547,0.76172 0.10547,0.75 0.21484,1.44922 0.42188,2.71094 0.10547,0.63671 0.10937,0.6211 0.21094,1.19531 0.10547,0.57422 0.10547,0.55469 0.21484,1.0625 0.10547,0.5039 0.10547,0.48828 0.21094,0.92579 0.10937,0.4375 0.10547,0.41796 0.21094,0.78907 0.10547,0.36328 0.10937,0.35156 0.10547,0.33203 0.10547,0.3125 0.10547,0.29688 0.10547,0.27734 0.21484,0.50391 0.10547,0.22265 0.10547,0.20703 0.10547,0.1875 0.10547,0.17188 0.10937,0.15234 0.10547,0.13282 0.10547,0.11718 0.10547,0.0977 0.11718,0.082 0.11329,0.0664 0.11718,0.0391 0.11328,0.0234 0.11329,-0.004 0.11718,-0.0195 0.11328,-0.0469 0.11719,-0.0625 0.11328,-0.0898 0.11719,-0.10547 0.11328,-0.13281 0.11719,-0.14844 0.11328,-0.17187 0.11719,-0.19532 0.11328,-0.21484 0.11719,-0.23828 0.11328,-0.25391 0.11328,-0.28125 0.11719,-0.29687 0.11328,-0.32422 0.11719,-0.33984 0.11328,-0.36329 0.23047,-0.78515 0.11718,-0.42578 0.11328,-0.44532 0.23047,-0.94921 0.46094,-2.14454 0.11328,-0.58593 0.11719,-0.60547 0.23047,-1.26953 0.46094,-2.76563 0.11328,-0.74219 0.11718,-0.7539 0.23047,-1.57031 0.45703,-3.35547 0.11719,-0.87891 0.11328,-0.90234 0.23047,-1.84766 0.46094,-3.89062 0.92187,-8.52344 0.11329,-1.10938 0.11328,-1.12109 0.22656,-2.28516 0.44922,-4.71093 0.90625,-9.95704 1.80859,-21.5625 0.10938,-1.40234 0.11328,-1.40625 0.22656,-2.82422 0.45313,-5.6914 0.90234,-11.48828 1.80859,-22.851568 0.10547,-1.308594 0.10547,-1.304688 0.21094,-2.59375 0.42187,-5.128906 0.84375,-9.957031 0.10547,-1.214844 0.10547,-1.203125 0.21094,-2.386719 0.42187,-4.671875 0.84375,-8.875 0.10157,-1.0625 0.10546,-1.054687 0.21094,-2.066406 0.42188,-3.996094 0.10547,-0.96875 0.10546,-0.957031 0.21094,-1.875 0.42188,-3.589844 0.10547,-0.863281 0.10546,-0.847657 0.21094,-1.660156 0.42188,-3.140625 0.10547,-0.75 0.10546,-0.730469 0.21094,-1.421875 0.42188,-2.65625 0.11328,-0.679687 0.11328,-0.65625 0.23047,-1.261719 0.11328,-0.597656 0.11328,-0.582031 0.23047,-1.105469 0.11328,-0.523438 0.11328,-0.5 0.23047,-0.949218 0.11328,-0.441407 0.11328,-0.421875 0.23047,-0.785156 0.11328,-0.359375 0.11328,-0.34375 0.11719,-0.316406 0.11328,-0.300781 0.11328,-0.277344 0.11329,-0.257813 0.11718,-0.238281 0.11328,-0.214844 0.11329,-0.195312 0.11718,-0.175781 0.11328,-0.152344 0.11329,-0.132813 0.11328,-0.109375 0.11718,-0.08984 0.11329,-0.07031 0.11328,-0.04687 0.11328,-0.02734 0.11719,-0.0039 0.11328,0.01563 0.11328,0.03906 0.11328,0.05859 0.11719,0.07813 0.11328,0.101563 0.11328,0.121094 0.11328,0.144531 0.11719,0.164062 0.11328,0.183594 0.11328,0.207031 0.11328,0.226563 0.11719,0.25 0.22656,0.558594 0.11719,0.308593 0.11328,0.332032 0.22656,0.722656 0.11719,0.394531 0.11328,0.410156 0.22656,0.886719 0.11719,0.472656 0.11328,0.496094 0.22657,1.046875 0.45703,2.324219 0.10937,0.589844 0.10547,0.605468 0.21484,1.253907 0.42579,2.710937 0.10546,0.71875 0.10938,0.730469 0.21094,1.511719 0.42578,3.203125 0.10937,0.839843 0.10547,0.851563 0.21485,1.746094 0.42578,3.664062 0.85156,7.949219 0.10937,1.046875 0.10547,1.0625 0.21485,2.15625 0.42578,4.441406 0.85156,9.359375 1.70703,20.234375 0.11719,1.425781 0.11328,1.429688 0.23438,2.875 0.46093,5.804687 0.92578,11.73437 1.84766,23.41406 0.11719,1.4375 0.11328,1.4336 0.23437,2.85156 0.46094,5.63281 0.92578,10.91016 0.11328,1.32812 0.11719,1.3125 0.23047,2.60157 0.46094,5.07421 0.92578,9.57813 0.11328,1.12109 0.11328,1.10157 0.22656,2.16796 0.45704,4.16797 0.11328,1.00391 0.11328,0.99219 0.22656,1.92968 0.45313,3.67579 0.11328,0.8789 0.11328,0.86328 0.22656,1.67188 0.45703,3.13672 0.11328,0.73828 0.11328,0.72265 0.22657,1.39063 0.45312,2.55469 0.11328,0.58984 0.11328,0.57422 0.22657,1.08594 0.11328,0.51562 0.11328,0.4961 0.22656,0.92968 0.11328,0.4375 0.11328,0.41407 0.23047,0.76953 0.11328,0.35547 0.11329,0.33593 0.22656,0.60938 0.11328,0.27344 0.11328,0.2539 0.11328,0.23047 0.11328,0.21484 0.11328,0.19141 0.11329,0.16797 0.11328,0.15234 0.11328,0.12891 0.11328,0.10547 0.11328,0.0898 0.11328,0.0664 0.11328,0.0469 0.11719,0.0234 0.11328,0.004 0.11328,-0.0195 0.11328,-0.0352 0.10547,-0.0547 0.10547,-0.0742 0.10547,-0.0898 0.10547,-0.10938 0.10547,-0.125 0.10547,-0.14453 0.10547,-0.16406 0.10937,-0.17969 0.10547,-0.19922 0.10547,-0.21484 0.10547,-0.23828 0.10547,-0.25 0.10546,-0.26953 0.10547,-0.28906 0.21094,-0.62891 0.10547,-0.34375 0.10937,-0.35938 0.21094,-0.76953 0.10547,-0.41015 0.10547,-0.42969 0.21094,-0.90625 0.10547,-0.48047 0.10546,-0.49609 0.21485,-1.04297 0.42187,-2.28906 0.10547,-0.61329 0.10547,-0.625 0.21094,-1.30859 0.42578,-2.79687 0.10547,-0.73829 0.10547,-0.7539 0.21093,-1.55078 0.42579,-3.28125 0.10546,-0.85547 0.10547,-0.8711 0.21094,-1.77734 0.42578,-3.72266 0.84375,-8.04687 0.11719,-1.14844 0.11328,-1.16015 0.23047,-2.36329 0.45703,-4.86718 0.92188,-10.26563 1.83593,-22.13281 0.11328,-1.43359 0.11719,-1.4375 0.22656,-2.88672 0.46094,-5.80469 0.91797,-11.69141 1.83594,-23.109367 0.10937,-1.316406 0.10547,-1.3125 0.21485,-2.609375 0.42968,-5.144532 0.85547,-9.957031 0.10938,-1.207031 0.10547,-1.199219 0.21484,-2.371094 0.42969,-4.628906 0.85547,-8.746094 0.10937,-1.042968 0.10547,-1.027344 0.21484,-2.023438 0.42969,-3.886718 0.10547,-0.941407 0.10937,-0.925781 0.21094,-1.808594 0.42969,-3.449218 0.10937,-0.824219 0.10547,-0.8125 0.21485,-1.578125 0.42968,-2.964844 0.10547,-0.703125 0.10938,-0.6875 0.21094,-1.324219 0.42968,-2.449218 0.10547,-0.558594 0.10547,-0.542969 0.21094,-1.039062 0.10547,-0.492188 0.10547,-0.476562 0.20703,-0.902344 0.10547,-0.429688 0.10546,-0.410156 0.21094,-0.765625 0.10547,-0.359375 0.10547,-0.339844 0.21094,-0.628906 0.10156,-0.289062 0.10547,-0.269532 0.10547,-0.253906 0.10547,-0.238281 0.10546,-0.21875 0.10547,-0.199219 0.10547,-0.183594 0.10547,-0.164062 0.10547,-0.148438 0.10547,-0.128906 0.10156,-0.109375 0.10547,-0.09375 0.10547,-0.07813 0.10547,-0.05859 0.10547,-0.03906 0.10546,-0.02344 0.10547,-0.0039 0.10547,0.01172 0.10547,0.03516 0.10547,0.04687 0.10156,0.06641 0.10547,0.08594 0.10547,0.101562 0.10547,0.121094 0.10547,0.140625 0.10547,0.15625 0.10546,0.171875 0.10547,0.195313 0.10547,0.207031 0.10156,0.226562 0.21094,0.507813 0.10547,0.28125 0.10547,0.296875 0.21094,0.648437 0.10547,0.347657 0.10546,0.367187 0.20704,0.785156 0.10546,0.417969 0.10547,0.433594 0.21094,0.921875 0.42188,2.042969 0.11328,0.597656 0.11328,0.617187 0.22656,1.296875 0.45703,2.808594 0.11328,0.746094 0.11328,0.769531 0.23047,1.585938 0.45703,3.378906 0.11329,0.886719 0.11328,0.902343 0.22656,1.859375 0.45703,3.902344 0.91016,8.523438 0.11718,1.128906 0.11329,1.140625 0.22656,2.320312 0.45703,4.789063 0.91016,10.109375 1.82421,21.855469 0.10938,1.324218 0.10547,1.328125 0.21094,2.664063 0.42578,5.367181 0.85156,10.81641 1.70312,21.53515 0.10547,1.32422 0.10547,1.32031 0.21485,2.625 0.42578,5.19532 0.84765,10.09765 1.70313,18.63672 0.11719,1.16797 0.11328,1.16016 0.23047,2.27343 0.46093,4.375 0.11719,1.0586 0.11328,1.04297 0.23047,2.03906 0.46094,3.89062 0.11719,0.92969 0.11328,0.91797 0.23047,1.77734 0.46093,3.34766 0.11719,0.78906 0.11328,0.77344 0.23438,1.49219 0.46093,2.75781 0.11329,0.64453 0.11718,0.6211 0.23047,1.18359 0.11328,0.56641 0.11719,0.54296 0.23047,1.02344 0.11328,0.48438 0.11719,0.46093 0.23047,0.86329 0.11328,0.39843 0.11719,0.37891 0.23046,0.69531 0.11329,0.32031 0.11718,0.29297 0.11328,0.27344 0.11719,0.25391 0.11328,0.23437 0.11719,0.21094 0.11328,0.1875 0.11719,0.16797 0.11328,0.14453 0.11719,0.125 0.11328,0.10547 0.11719,0.082 0.11328,0.0586 0.11719,0.0391 0.11718,0.0195 0.11328,-0.004 0.11329,-0.0273 0.11328,-0.043 0.11328,-0.0664 0.11328,-0.0898 0.11328,-0.10547 0.11328,-0.12891 0.11328,-0.15234 0.11328,-0.16797 0.11329,-0.19141 0.11328,-0.21093 0.11328,-0.23047 0.11328,-0.25391 0.11328,-0.27344 0.11328,-0.29296 0.22656,-0.64454 0.11329,-0.35546 0.11328,-0.375 0.22656,-0.8086 0.10937,-0.43359 0.11329,-0.45313 0.22656,-0.96484 0.11328,-0.51172 0.11328,-0.53125 0.22656,-1.12109 0.45313,-2.46875 0.11328,-0.66407 0.11328,-0.68359 0.22656,-1.41797 0.45313,-3.05078 0.11328,-0.80859 0.11328,-0.82422 0.22656,-1.69531 0.45313,-3.59375 0.11328,-0.94141 0.11328,-0.95313 0.22656,-1.95703 0.45313,-4.08593 0.90234,-8.84766 0.10547,-1.08594 0.10547,-1.09765 0.21484,-2.22266 0.42188,-4.5625 0.84375,-9.55078 1.6875,-20.41797 0.10547,-1.31641 0.10547,-1.32031 0.21093,-2.65234 0.42188,-5.33594 0.84765,-10.74609 1.6875,-21.339842 0.11329,-1.421875 0.11718,-1.417969 0.22657,-2.8125 0.46093,-5.558594 0.91407,-10.761719 0.11328,-1.308593 0.11718,-1.296875 0.22657,-2.5625 0.46093,-4.996094 0.91407,-9.433594 0.11328,-1.121094 0.11719,-1.105468 0.22656,-2.171875 0.45703,-4.167969 0.11719,-1.007813 0.11328,-0.988281 0.23047,-1.929687 0.45703,-3.664063 0.11328,-0.875 0.11719,-0.859375 0.22656,-1.664062 0.45703,-3.113282 0.11719,-0.730468 0.11328,-0.714844 0.23047,-1.375 0.45703,-2.519531 0.10547,-0.542969 0.10937,-0.523438 0.21094,-1.003906 0.10938,-0.472656 0.10546,-0.457031 0.21485,-0.863282 0.10547,-0.402343 0.10547,-0.386719 0.21484,-0.722656 0.10937,-0.332032 0.10547,-0.316406 0.21485,-0.574219 0.10547,-0.261718 0.10546,-0.242188 0.10938,-0.226562 0.10547,-0.203125 0.10547,-0.191407 0.10937,-0.167968 0.10547,-0.152344 0.10547,-0.132813 0.10937,-0.113281 0.10547,-0.09375 0.10938,-0.07813 0.10547,-0.05859 0.10547,-0.03906 0.10937,-0.02344 0.10547,-0.0039 0.10547,0.01563 0.10937,0.03516 0.10547,0.05078 0.10547,0.07031 0.10938,0.08984 0.10546,0.109375 0.10547,0.125 0.10938,0.144531 0.10547,0.164063 0.10937,0.179687 0.10547,0.199219 0.10547,0.21875 0.10937,0.238281 0.10547,0.253906 0.10547,0.273438 0.21485,0.597656 0.10546,0.328125 0.10938,0.34375 0.21484,0.742188 0.10547,0.398437 0.10547,0.417969 0.21484,0.882812 0.10547,0.46875 0.10938,0.488282 0.21094,1.023437 0.42968,2.25 0.10547,0.59375 0.10156,0.605469 0.21094,1.265625 0.41797,2.714844 0.10547,0.714843 0.10547,0.730469 0.21094,1.507813 0.41796,3.1875 0.10547,0.832031 0.10547,0.847656 0.20703,1.734375 0.42188,3.625 0.83594,7.851563 0.10546,1.035156 0.10547,1.046875 0.20703,2.121094 0.42188,4.375 0.83594,9.203125 1.67578,19.871093 0.11328,1.398438 0.11719,1.40625 0.22656,2.828125 0.45312,5.70312 0.91016,11.53125 1.82031,23.04688 0.11328,1.41797 0.11329,1.41406 0.22656,2.8125 0.45312,5.55859 0.91016,10.78907 1.82031,19.76171 0.10547,1.0586 0.10547,1.05078 0.21094,2.0625 0.42578,3.98437 0.10547,0.96094 0.10547,0.95313 0.21484,1.86328 0.42187,3.5664 0.10547,0.85547 0.10938,0.83985 0.21094,1.64453 0.42578,3.10547 0.10547,0.73828 0.10546,0.72265 0.21094,1.40235 0.42578,2.60937 0.10547,0.61328 0.10547,0.59766 0.21094,1.14063 0.10937,0.54687 0.10547,0.53125 0.21094,1.00781 0.10547,0.48047 0.10547,0.46094 0.21484,0.875 0.10547,0.41016 0.10547,0.39062 0.21094,0.73438 0.10546,0.33984 0.10938,0.32031 0.10547,0.30469 0.10547,0.28906 0.10547,0.26953 0.10546,0.25 0.21094,0.44922 0.10938,0.19531 0.10547,0.17969 0.10546,0.16406 0.10547,0.14063 0.10547,0.125 0.10547,0.10547 0.10938,0.0898 0.10546,0.0703 0.11329,0.0547 0.11718,0.0352 0.11328,0.0117 0.11329,-0.008 0.11718,-0.0312 0.11328,-0.0508 0.11719,-0.0742 0.11328,-0.0937 0.11719,-0.11718 0.11328,-0.13672 0.11328,-0.15625 0.11719,-0.17969 0.11328,-0.20312 0.11719,-0.22266 0.11328,-0.24219 0.11719,-0.26562 0.11328,-0.28516 0.11719,-0.30859 0.22656,-0.67578 0.11719,-0.36719 0.11328,-0.39063 0.23047,-0.83984 0.11718,-0.45313 0.11329,-0.47265 0.23046,-1.00391 0.46094,-2.24609 0.11328,-0.61328 0.11328,-0.62891 0.23047,-1.32031 0.46094,-2.86328 0.11719,-0.76563 0.11328,-0.78125 0.23047,-1.61328 0.46094,-3.44141 0.11328,-0.90625 0.11328,-0.91796 0.23047,-1.89063 0.46093,-3.97266 0.92188,-8.66796 0.10547,-1.06641 0.10937,-1.08203 0.21485,-2.19922 0.42578,-4.52344 0.85937,-9.51562 1.71875,-20.51172 0.10938,-1.32813 0.10547,-1.33593 0.21484,-2.67969 0.42969,-5.40235 0.85937,-10.90624 1.71875,-21.765629 0.21094,-2.625 0.20703,-2.605469 0.42188,-5.164062 0.84375,-10.054688 0.10547,-1.226562 0.10546,-1.21875 0.21094,-2.414063 0.41797,-4.734375 0.84375,-9.027343 0.10547,-1.085938 0.10547,-1.070312 0.21094,-2.113282 0.42187,-4.089843 0.10547,-0.992188 0.10156,-0.980469 0.21094,-1.925781 0.42187,-3.691406 0.10547,-0.890625 0.10547,-0.878906 0.21094,-1.710938 0.42187,-3.257812 0.10547,-0.777344 0.10547,-0.765625 0.21094,-1.480469 0.41797,-2.78125 0.11719,-0.710937 0.11328,-0.695313 0.22656,-1.328125 0.11328,-0.636719 0.11719,-0.617187 0.22656,-1.179688 0.11328,-0.558593 0.11719,-0.542969 0.22656,-1.019531 0.11328,-0.480469 0.11719,-0.460938 0.22656,-0.859375 0.11328,-0.402343 0.11329,-0.378907 0.11718,-0.359375 0.11328,-0.339843 0.11329,-0.316407 0.11328,-0.300781 0.23047,-0.53125 0.11328,-0.234375 0.11328,-0.214844 0.11719,-0.195312 0.11328,-0.171875 0.11328,-0.152344 0.11328,-0.128906 0.11328,-0.109375 0.11719,-0.08984 0.11328,-0.06641 0.11328,-0.04297 0.11328,-0.02734 0.11719,-0.0039 0.11328,0.01953 0.11328,0.03516 0.11328,0.0625 0.11719,0.07813 0.11328,0.105468 0.11328,0.121094 0.11328,0.144531 0.11329,0.164063 0.11718,0.1875 0.11328,0.207031 0.11329,0.226563 0.11328,0.25 0.11718,0.269531 0.11329,0.289062 0.22656,0.640625 0.11328,0.355469 0.11719,0.371094 0.22656,0.804687 0.11328,0.433594 0.11719,0.453125 0.22656,0.96875 0.45703,2.171875 0.10547,0.550781 0.10938,0.570313 0.21093,1.183594 0.42578,2.570312 0.10938,0.683594 0.10547,0.699219 0.21094,1.445312 0.42968,3.070313 0.10547,0.804687 0.10547,0.824219 0.21484,1.683594 0.42579,3.539062 0.85156,7.722656 0.10547,1.019532 0.10937,1.035156 0.21094,2.105469 0.42578,4.34375 0.85156,9.183593 1.70703,19.972657 0.11719,1.410156 0.11328,1.417969 0.23047,2.855468 0.46094,5.761719 0.92578,11.687503 1.84766,23.44531 0.11718,1.44531 0.11329,1.44141 0.23046,2.87109 0.46094,5.67579 0.92578,11.03125 0.11719,1.33984 0.11328,1.33594 0.23047,2.63672 0.46094,5.16015 0.92578,9.77344 0.11328,1.14453 0.11328,1.12891 0.22656,2.22265 0.45313,4.28516 0.11328,1.03516 0.11328,1.01953 0.22656,1.99609 0.45313,3.80859 0.11328,0.91016 0.11328,0.89844 0.22656,1.74219 0.45704,3.28125 0.11328,0.77734 0.11328,0.75781 0.22656,1.46485 0.45313,2.71484 0.11328,0.63281 0.11328,0.60938 0.22656,1.17187 0.11328,0.55469 0.11328,0.53516 0.22657,1.01562 0.11328,0.47656 0.11328,0.46094 0.22656,0.85547 0.11328,0.39844 0.11328,0.3789 0.22657,0.69532 0.11328,0.32031 0.11328,0.29687 0.11328,0.27735 0.11328,0.2539 0.11328,0.23828 0.11328,0.21485 0.11328,0.19531 0.11329,0.17188 0.11328,0.15234 0.11328,0.13281 0.11328,0.11328 0.11328,0.0898 0.11328,0.0703 0.11328,0.0508 0.11328,0.0273 0.11719,0.008 0.10547,-0.0117 0.10547,-0.0312 0.10547,-0.0469 0.10547,-0.0664 0.10547,-0.082 0.10546,-0.10157 0.10547,-0.12109 0.10547,-0.14063 0.10547,-0.15625 0.10547,-0.17187 0.10547,-0.19141 0.10547,-0.21093 0.10547,-0.23047 0.10937,-0.2461 0.21094,-0.54297 0.10547,-0.30078 0.10547,-0.3164 0.21093,-0.6875 0.10547,-0.36719 0.10547,-0.39063 0.21094,-0.82421 0.10547,-0.4375 0.10547,-0.45704 0.21484,-0.96093 0.42187,-2.12891 0.10547,-0.57422 0.10547,-0.58984 0.21094,-1.22656 0.42578,-2.64454 0.10547,-0.70312 0.10547,-0.71484 0.21094,-1.48047 0.42187,-3.13672 0.10547,-0.82031 0.10547,-0.83204 0.21094,-1.71484 0.42578,-3.58594 0.84375,-7.80078 0.11718,-1.11719 0.11329,-1.13281 0.23046,-2.30078 0.45704,-4.75781 0.91796,-10.06641 1.83594,-21.85156 0.11328,-1.42188 0.11328,-1.42578 0.23047,-2.86718 0.46094,-5.77344 0.91406,-11.66016 1.83594,-23.183594 0.10938,-1.328125 0.10546,-1.324219 0.21485,-2.628906 0.42578,-5.199219 0.85937,-10.089844 0.10547,-1.226562 0.10547,-1.21875 0.21485,-2.414063 0.42968,-4.71875 0.85547,-8.953125 0.10938,-1.070312 0.10547,-1.054688 0.21484,-2.082031 0.42578,-4.015625 0.10938,-0.96875 0.10546,-0.960937 0.21485,-1.875 0.42969,-3.585938 0.10546,-0.863281 0.10938,-0.847656 0.21094,-1.648438 0.42968,-3.117187 0.10547,-0.742188 0.10938,-0.726562 0.21484,-1.402344 0.42578,-2.613281 0.10547,-0.601563 0.10547,-0.585937 0.21094,-1.117188 0.10547,-0.539062 0.10156,-0.519532 0.21094,-0.988281 0.10547,-0.46875 0.10546,-0.453125 0.21094,-0.855469 0.10547,-0.402343 0.10156,-0.382813 0.21094,-0.71875 0.10547,-0.332031 0.10547,-0.316406 0.10547,-0.300782 0.10547,-0.28125 0.10156,-0.261718 0.10547,-0.246094 0.21093,-0.441406 0.10547,-0.191407 0.10547,-0.175781 0.10547,-0.160156 0.10547,-0.136719 0.10156,-0.125 0.10547,-0.101562 0.10547,-0.08984 0.10547,-0.06641 0.10547,-0.05078 0.10547,-0.03516 0.10546,-0.01563 0.10547,0.0039 0.10157,0.01953 0.10546,0.03906 0.10547,0.05469 0.10547,0.07422 0.10547,0.09375 0.10547,0.109375 0.10547,0.125 0.10156,0.144532 0.10547,0.164062 0.10547,0.179688 0.10547,0.199218 0.10547,0.214844 0.10546,0.234375 0.10547,0.253906 0.20703,0.554688 0.10547,0.300781 0.10547,0.320313 0.21094,0.695312 0.10547,0.371094 0.10547,0.390625 0.20703,0.832031 0.42187,1.863281 0.11328,0.550782 0.11329,0.570312 0.22656,1.199219 0.45703,2.625 0.11328,0.703125 0.11328,0.722656 0.23047,1.496094 0.45313,3.207031 0.11328,0.84375 0.11718,0.863281 0.22657,1.773438 0.45312,3.746094 0.91406,8.226562 0.11329,1.09375 0.11328,1.105469 0.22656,2.253906 0.45703,4.664063 0.91016,9.886718 1.82422,21.539063 0.21093,2.625 0.21094,2.644531 0.42578,5.328121 0.85156,10.77344 1.69922,21.57422 0.10547,1.33203 0.10547,1.32812 0.21484,2.64844 0.42579,5.24219 0.84765,10.22656 1.69922,19.01172 0.12109,1.23437 0.11719,1.22266 0.23828,2.40625 0.47266,4.64453 0.12109,1.12109 0.11719,1.10938 0.23828,2.16797 0.47266,4.14062 0.12109,0.99219 0.11719,0.97656 0.23828,1.89844 0.47266,3.58203 0.12109,0.84766 0.11719,0.83203 0.23828,1.60156 0.47266,2.96485 0.11718,0.69531 0.1211,0.66797 0.23828,1.28125 0.11719,0.61328 0.11718,0.58594 0.23828,1.11328 0.11719,0.52734 0.1211,0.50391 0.23437,0.9414 0.12109,0.4375 0.11719,0.41797 0.23828,0.76563 0.11719,0.35156 0.12109,0.32812 0.11719,0.30469 0.11719,0.28516 0.12109,0.26172 0.11719,0.23828 0.12109,0.21484 0.11719,0.19141 0.11719,0.17187 0.12109,0.14844 0.11719,0.125 0.11719,0.10156 0.12109,0.082 0.11719,0.0547 0.11719,0.0352 0.12109,0.0117"
     transform="translate(-66,-5)"
     id="path1-3" /></g></g></svg>
