<?xml version="1.0" encoding="UTF-8" standalone="no"?>
<!-- Created with Inkscape (http://www.inkscape.org/) -->

<svg
   id="svg2"
   version="1.1"
   inkscape:version="1.4 (86a8ad7, 2024-10-11)"
   width="1357.5933"
   height="588.77612"
   xml:space="preserve"
   sodipodi:docname="UnknownMask.svg"
   inkscape:export-filename="UnknownMask.png"
   inkscape:export-xdpi="400"
   inkscape:export-ydpi="400"
   xmlns:inkscape="http://www.inkscape.org/namespaces/inkscape"
   xmlns:sodipodi="http://sodipodi.sourceforge.net/DTD/sodipodi-0.dtd"
   xmlns="http://www.w3.org/2000/svg"
   xmlns:svg="http://www.w3.org/2000/svg"
   xmlns:rdf="http://www.w3.org/1999/02/22-rdf-syntax-ns#"
   xmlns:cc="http://creativecommons.org/ns#"
   xmlns:dc="http://purl.org/dc/elements/1.1/"><metadata
     id="metadata8"><rdf:RDF><cc:Work
         rdf:about=""><dc:format>image/svg+xml</dc:format><dc:type
           rdf:resource="http://purl.org/dc/dcmitype/StillImage" /></cc:Work></rdf:RDF></metadata><defs
     id="defs6"><marker
       inkscape:stockid="Arrow1Lend"
       orient="auto"
       refY="0"
       refX="0"
       id="Arrow1Lend"
       style="overflow:visible"><path
         id="path3835"
         d="M -10.666667,0 -14.933333,4.2666667 0,0 -14.933333,-4.2666667 Z"
         style="fill-rule:evenodd;stroke:#000000;stroke-width:0.853333pt;marker-start:none"
         inkscape:connector-curvature="0" /></marker><marker
       inkscape:stockid="Arrow1Mend"
       orient="auto"
       refY="0"
       refX="0"
       id="Arrow1Mend"
       style="overflow:visible"><path
         id="path3804"
         d="M -4.2666667,0 -6.4,2.1333333 1.0666667,0 -6.4,-2.1333333 Z"
         style="fill-rule:evenodd;stroke:#000000;stroke-width:0.426667pt"
         inkscape:connector-curvature="0" /></marker><clipPath
       clipPathUnits="userSpaceOnUse"
       id="clipPath18"><path
         d="M 0,0 H 1677 V 937.891 H 0 Z"
         id="path20"
         inkscape:connector-curvature="0" /></clipPath><marker
       inkscape:stockid="Arrow1Mend"
       orient="auto"
       refY="0"
       refX="0"
       id="Arrow1Mend-1"
       style="overflow:visible"><path
         inkscape:connector-curvature="0"
         id="path3804-7"
         d="M -4.2666667,0 -6.4,2.1333333 1.0666667,0 -6.4,-2.1333333 Z"
         style="fill-rule:evenodd;stroke:#000000;stroke-width:0.426667pt" /></marker><marker
       inkscape:stockid="Arrow1Mend"
       orient="auto"
       refY="0"
       refX="0"
       id="Arrow1Mend-0"
       style="overflow:visible"><path
         inkscape:connector-curvature="0"
         id="path3804-9"
         d="M -4.2666667,0 -6.4,2.1333333 1.0666667,0 -6.4,-2.1333333 Z"
         style="fill-rule:evenodd;stroke:#000000;stroke-width:0.426667pt" /></marker><marker
       inkscape:stockid="Arrow1Mend"
       orient="auto"
       refY="0"
       refX="0"
       id="Arrow1Mend-5"
       style="overflow:visible"><path
         inkscape:connector-curvature="0"
         id="path3804-1"
         d="M -4.2666667,0 -6.4,2.1333333 1.0666667,0 -6.4,-2.1333333 Z"
         style="fill-rule:evenodd;stroke:#000000;stroke-width:0.426667pt" /></marker><marker
       inkscape:stockid="Arrow1Lend"
       orient="auto"
       refY="0"
       refX="0"
       id="Arrow1Lend-7"
       style="overflow:visible"><path
         id="path3835-6"
         d="M -10.666667,0 -14.933333,4.2666667 0,0 -14.933333,-4.2666667 Z"
         style="fill-rule:evenodd;stroke:#000000;stroke-width:0.853333pt;marker-start:none"
         inkscape:connector-curvature="0" /></marker><marker
       inkscape:stockid="Arrow1Lend"
       orient="auto"
       refY="0"
       refX="0"
       id="Arrow1Lend-2"
       style="overflow:visible"><path
         id="path3835-2"
         d="M -10.666667,0 -14.933333,4.2666667 0,0 -14.933333,-4.2666667 Z"
         style="fill-rule:evenodd;stroke:#000000;stroke-width:0.853333pt;marker-start:none"
         inkscape:connector-curvature="0" /></marker><marker
       inkscape:stockid="Arrow1Lend"
       orient="auto"
       refY="0"
       refX="0"
       id="marker4177"
       style="overflow:visible"><path
         id="path4179"
         d="M -10.666667,0 -14.933333,4.2666667 0,0 -14.933333,-4.2666667 Z"
         style="fill-rule:evenodd;stroke:#000000;stroke-width:0.853333pt;marker-start:none"
         inkscape:connector-curvature="0" /></marker><marker
       inkscape:stockid="Arrow1Lend"
       orient="auto"
       refY="0"
       refX="0"
       id="marker4181"
       style="overflow:visible"><path
         id="path4183"
         d="M -10.666667,0 -14.933333,4.2666667 0,0 -14.933333,-4.2666667 Z"
         style="fill-rule:evenodd;stroke:#000000;stroke-width:0.853333pt;marker-start:none"
         inkscape:connector-curvature="0" /></marker><marker
       inkscape:stockid="Arrow1Lend"
       orient="auto"
       refY="0"
       refX="0"
       id="Arrow1Lend-3"
       style="overflow:visible"><path
         id="path3835-1"
         d="M -10.666667,0 -14.933333,4.2666667 0,0 -14.933333,-4.2666667 Z"
         style="fill-rule:evenodd;stroke:#000000;stroke-width:0.853333pt;marker-start:none"
         inkscape:connector-curvature="0" /></marker><marker
       inkscape:stockid="Arrow1Lend"
       orient="auto"
       refY="0"
       refX="0"
       id="marker4177-2"
       style="overflow:visible"><path
         id="path4179-3"
         d="M -10.666667,0 -14.933333,4.2666667 0,0 -14.933333,-4.2666667 Z"
         style="fill-rule:evenodd;stroke:#000000;stroke-width:0.853333pt;marker-start:none"
         inkscape:connector-curvature="0" /></marker><marker
       inkscape:stockid="Arrow1Lend"
       orient="auto"
       refY="0"
       refX="0"
       id="marker4181-3"
       style="overflow:visible"><path
         id="path4183-4"
         d="M -10.666667,0 -14.933333,4.2666667 0,0 -14.933333,-4.2666667 Z"
         style="fill-rule:evenodd;stroke:#000000;stroke-width:0.853333pt;marker-start:none"
         inkscape:connector-curvature="0" /></marker><marker
       inkscape:stockid="Arrow1Lend"
       orient="auto"
       refY="0"
       refX="0"
       id="Arrow1Lend-6"
       style="overflow:visible"><path
         id="path3835-0"
         d="M -10.666667,0 -14.933333,4.2666667 0,0 -14.933333,-4.2666667 Z"
         style="fill-rule:evenodd;stroke:#000000;stroke-width:0.853333pt;marker-start:none"
         inkscape:connector-curvature="0" /></marker><marker
       inkscape:stockid="Arrow1Lend"
       orient="auto"
       refY="0"
       refX="0"
       id="Arrow1Lend-4"
       style="overflow:visible"><path
         id="path3835-8"
         d="M -10.666667,0 -14.933333,4.2666667 0,0 -14.933333,-4.2666667 Z"
         style="fill-rule:evenodd;stroke:#000000;stroke-width:0.853333pt;marker-start:none"
         inkscape:connector-curvature="0" /></marker><marker
       inkscape:stockid="Arrow1Lend"
       orient="auto"
       refY="0"
       refX="0"
       id="Arrow1Lend-0"
       style="overflow:visible"><path
         id="path3835-61"
         d="M -10.666667,0 -14.933333,4.2666667 0,0 -14.933333,-4.2666667 Z"
         style="fill-rule:evenodd;stroke:#000000;stroke-width:0.853333pt;marker-start:none"
         inkscape:connector-curvature="0" /></marker><marker
       inkscape:stockid="Arrow1Lend"
       orient="auto"
       refY="0"
       refX="0"
       id="Arrow1Lend-8"
       style="overflow:visible"><path
         id="path3835-9"
         d="M -10.666667,0 -14.933333,4.2666667 0,0 -14.933333,-4.2666667 Z"
         style="fill-rule:evenodd;stroke:#000000;stroke-width:0.853333pt;marker-start:none"
         inkscape:connector-curvature="0" /></marker><marker
       inkscape:stockid="Arrow1Lend"
       orient="auto"
       refY="0"
       refX="0"
       id="Arrow1Lend-44"
       style="overflow:visible"><path
         id="path3835-60"
         d="M -10.666667,0 -14.933333,4.2666667 0,0 -14.933333,-4.2666667 Z"
         style="fill-rule:evenodd;stroke:#000000;stroke-width:0.853333pt;marker-start:none"
         inkscape:connector-curvature="0" /></marker><marker
       inkscape:stockid="Arrow1Mend"
       orient="auto"
       refY="0"
       refX="0"
       id="Arrow1Mend-2"
       style="overflow:visible"><path
         id="path3804-97"
         d="M -4.2666667,0 -6.4,2.1333333 1.0666667,0 -6.4,-2.1333333 Z"
         style="fill-rule:evenodd;stroke:#000000;stroke-width:0.426667pt"
         inkscape:connector-curvature="0" /></marker><marker
       inkscape:stockid="Arrow1Mend"
       orient="auto"
       refY="0"
       refX="0"
       id="marker4194"
       style="overflow:visible"><path
         id="path4196"
         d="M -4.2666667,0 -6.4,2.1333333 1.0666667,0 -6.4,-2.1333333 Z"
         style="fill-rule:evenodd;stroke:#000000;stroke-width:0.426667pt"
         inkscape:connector-curvature="0" /></marker><marker
       inkscape:stockid="Arrow1Mend"
       orient="auto"
       refY="0"
       refX="0"
       id="marker4198"
       style="overflow:visible"><path
         id="path4200"
         d="M -4.2666667,0 -6.4,2.1333333 1.0666667,0 -6.4,-2.1333333 Z"
         style="fill-rule:evenodd;stroke:#000000;stroke-width:0.426667pt"
         inkscape:connector-curvature="0" /></marker><marker
       inkscape:stockid="Arrow1Mend"
       orient="auto"
       refY="0"
       refX="0"
       id="marker4202"
       style="overflow:visible"><path
         id="path4204"
         d="M -4.2666667,0 -6.4,2.1333333 1.0666667,0 -6.4,-2.1333333 Z"
         style="fill-rule:evenodd;stroke:#000000;stroke-width:0.426667pt"
         inkscape:connector-curvature="0" /></marker><marker
       inkscape:stockid="Arrow1Mend"
       orient="auto"
       refY="0"
       refX="0"
       id="Arrow1Mend-3"
       style="overflow:visible"><path
         id="path3804-4"
         d="M -4.2666667,0 -6.4,2.1333333 1.0666667,0 -6.4,-2.1333333 Z"
         style="fill-rule:evenodd;stroke:#000000;stroke-width:0.426667pt"
         inkscape:connector-curvature="0" /></marker><marker
       inkscape:stockid="Arrow1Mend"
       orient="auto"
       refY="0"
       refX="0"
       id="Arrow1Mend-7"
       style="overflow:visible"><path
         id="path3804-0"
         d="M -4.2666667,0 -6.4,2.1333333 1.0666667,0 -6.4,-2.1333333 Z"
         style="fill-rule:evenodd;stroke:#000000;stroke-width:0.426667pt"
         inkscape:connector-curvature="0" /></marker><marker
       inkscape:stockid="Arrow1Mend"
       orient="auto"
       refY="0"
       refX="0"
       id="Arrow1Mend-05"
       style="overflow:visible"><path
         id="path3804-93"
         d="M -4.2666667,0 -6.4,2.1333333 1.0666667,0 -6.4,-2.1333333 Z"
         style="fill-rule:evenodd;stroke:#000000;stroke-width:0.426667pt"
         inkscape:connector-curvature="0" /></marker><marker
       inkscape:stockid="Arrow1Mend"
       orient="auto"
       refY="0"
       refX="0"
       id="Arrow1Mend-00"
       style="overflow:visible"><path
         id="path3804-3"
         d="M -4.2666667,0 -6.4,2.1333333 1.0666667,0 -6.4,-2.1333333 Z"
         style="fill-rule:evenodd;stroke:#000000;stroke-width:0.426667pt"
         inkscape:connector-curvature="0" /></marker><marker
       inkscape:stockid="Arrow1Mend"
       orient="auto"
       refY="0"
       refX="0"
       id="Arrow1Mend-9"
       style="overflow:visible"><path
         id="path3804-6"
         d="M -4.2666667,0 -6.4,2.1333333 1.0666667,0 -6.4,-2.1333333 Z"
         style="fill-rule:evenodd;stroke:#000000;stroke-width:0.426667pt"
         inkscape:connector-curvature="0" /></marker><marker
       inkscape:stockid="Arrow1Mend"
       orient="auto"
       refY="0"
       refX="0"
       id="Arrow1Mend-19"
       style="overflow:visible"><path
         id="path3804-5"
         d="M -4.2666667,0 -6.4,2.1333333 1.0666667,0 -6.4,-2.1333333 Z"
         style="fill-rule:evenodd;stroke:#000000;stroke-width:0.426667pt"
         inkscape:connector-curvature="0" /></marker><marker
       inkscape:stockid="Arrow1Mend"
       orient="auto"
       refY="0"
       refX="0"
       id="Arrow1Mend-30"
       style="overflow:visible"><path
         id="path3804-62"
         d="M -4.2666667,0 -6.4,2.1333333 1.0666667,0 -6.4,-2.1333333 Z"
         style="fill-rule:evenodd;stroke:#000000;stroke-width:0.426667pt"
         inkscape:connector-curvature="0" /></marker><marker
       inkscape:stockid="Arrow1Mend"
       orient="auto"
       refY="0"
       refX="0"
       id="Arrow1Mend-07"
       style="overflow:visible"><path
         id="path3804-09"
         d="M -4.2666667,0 -6.4,2.1333333 1.0666667,0 -6.4,-2.1333333 Z"
         style="fill-rule:evenodd;stroke:#000000;stroke-width:0.426667pt"
         inkscape:connector-curvature="0" /></marker><marker
       inkscape:stockid="Arrow1Mend"
       orient="auto"
       refY="0"
       refX="0"
       id="Arrow1Mend-197"
       style="overflow:visible"><path
         id="path3804-56"
         d="M -4.2666667,0 -6.4,2.1333333 1.0666667,0 -6.4,-2.1333333 Z"
         style="fill-rule:evenodd;stroke:#000000;stroke-width:0.426667pt"
         inkscape:connector-curvature="0" /></marker><mask
       maskUnits="userSpaceOnUse"
       id="mask2"><rect
         style="fill:#4d4d4d;stroke-width:0.542293"
         id="rect2"
         width="200.86966"
         height="228.5845"
         x="79.854759"
         y="-1.5235775" /></mask></defs><sodipodi:namedview
     pagecolor="#ffffff"
     bordercolor="#666666"
     borderopacity="1"
     objecttolerance="10"
     gridtolerance="10"
     guidetolerance="10"
     inkscape:pageopacity="0"
     inkscape:pageshadow="2"
     inkscape:window-width="2880"
     inkscape:window-height="1514"
     id="namedview4"
     showgrid="false"
     fit-margin-top="0"
     fit-margin-left="0"
     fit-margin-right="0"
     fit-margin-bottom="0"
     inkscape:zoom="0.83937788"
     inkscape:cx="572.44778"
     inkscape:cy="350.85509"
     inkscape:window-x="-11"
     inkscape:window-y="97"
     inkscape:window-maximized="1"
     inkscape:current-layer="g10"
     showguides="true"
     inkscape:guide-bbox="true"
     inkscape:showpageshadow="2"
     inkscape:pagecheckerboard="0"
     inkscape:deskcolor="#d1d1d1" /><g
     id="g10"
     inkscape:groupmode="layer"
     inkscape:label="ink_ext_XXXXXX"
     transform="matrix(1.25,0,0,-1.25,272.59589,1239.689)">




<path
   style="fill:#e6e6e6;stroke:#4d4d4d;stroke-width:1.2;stroke-dasharray:none"
   d="M 237.77542,943.91417 V 568.52724"
   id="path1"
   sodipodi:nodetypes="cc" /><path
   style="fill:#e6e6e6;stroke:#4d4d4d;stroke-width:1.2;stroke-dasharray:none"
   d="M -218.07671,569.28314 H 704.11151"
   id="path2"
   sodipodi:nodetypes="cc" /><text
   xml:space="preserve"
   style="font-style:normal;font-variant:normal;font-weight:normal;font-stretch:normal;font-size:31.8595px;line-height:0%;font-family:'Times New Roman';-inkscape-font-specification:Sans;letter-spacing:0px;word-spacing:0px;fill:#000000;fill-opacity:1;stroke:none;stroke-width:2.65496"
   x="500.72549"
   y="-521.42719"
   id="text3019"
   transform="scale(1,-1)"><tspan
     sodipodi:role="line"
     id="tspan3021"
     x="500.72549"
     y="-521.42719"
     style="font-style:italic;font-size:50.9754px;line-height:1.25;stroke-width:2.65496"><tspan
       style="font-style:normal"
       id="tspan2">0.1</tspan></tspan></text><text
   xml:space="preserve"
   style="font-style:normal;font-variant:normal;font-weight:normal;font-stretch:normal;font-size:58.4053px;line-height:0%;font-family:'Times New Roman';-inkscape-font-specification:'Times New Roman, ';text-align:start;letter-spacing:0px;word-spacing:0px;text-anchor:start;fill:#000000;fill-opacity:1;stroke:none;stroke-width:1.28775px;stroke-linecap:butt;stroke-linejoin:miter;stroke-opacity:1"
   x="713.62885"
   y="-545.69745"
   id="text823-0-5-3-3-62-5"
   transform="scale(1,-1)"><tspan
     sodipodi:role="line"
     id="tspan4319-7"
     x="713.62885"
     y="-545.69745"
     style="font-style:italic;font-size:58.4053px;line-height:0;stroke-width:1.28775px">θ<tspan
   style="font-style:normal"
   id="tspan4"> (rad)</tspan></tspan></text><text
   xml:space="preserve"
   style="font-style:normal;font-variant:normal;font-weight:normal;font-stretch:normal;font-size:31.8595px;line-height:0%;font-family:'Times New Roman';-inkscape-font-specification:Sans;letter-spacing:0px;word-spacing:0px;fill:#000000;fill-opacity:1;stroke:none;stroke-width:2.65496"
   x="225.90913"
   y="-521.32764"
   id="text3019-4"
   transform="scale(1,-1)"><tspan
     sodipodi:role="line"
     id="tspan3021-8"
     x="225.90913"
     y="-521.32764"
     style="font-style:normal;font-size:50.9754px;line-height:1.25;stroke-width:2.65496">0</tspan></text><text
   xml:space="preserve"
   style="font-style:normal;font-variant:normal;font-weight:normal;font-stretch:normal;font-size:31.8595px;line-height:0%;font-family:'Times New Roman';-inkscape-font-specification:Sans;letter-spacing:0px;word-spacing:0px;fill:#000000;fill-opacity:1;stroke:none;stroke-width:2.65496"
   x="228.11797"
   y="-957.99988"
   id="text3019-0"
   transform="scale(1,-1)"><tspan
     sodipodi:role="line"
     id="tspan3021-9"
     x="228.11797"
     y="-957.99988"
     style="font-style:italic;font-size:50.9754px;line-height:1.25;stroke-width:2.65496">I<tspan
   style="font-style:normal;font-size:65%;baseline-shift:sub"
   id="tspan1" /></tspan></text><g
   id="surface1-0"
   transform="matrix(4.4354187,0,0,-1.8220453,-560.61166,956.90299)"
   style="stroke-width:0.562825;stroke-dasharray:none"
   mask="url(#mask2)"><path
     style="fill:none;stroke:#000000;stroke-width:0.562825;stroke-linecap:square;stroke-linejoin:miter;stroke-miterlimit:3.25;stroke-dasharray:none;stroke-opacity:1"
     d="m 73.199219,194.11719 0.105469,0.008 0.105468,0.0273 0.109375,0.0391 0.105469,0.0547 0.105469,0.0742 0.105469,0.0898 0.105468,0.10156 0.105469,0.12109 0.105469,0.13672 0.109375,0.14844 0.105469,0.16797 0.105468,0.17968 0.105469,0.19532 0.105469,0.21093 0.210937,0.46485 0.105469,0.25 0.109375,0.26562 0.210938,0.57032 0.421875,1.27734 0.109375,0.34766 0.105468,0.35937 0.210938,0.74219 0.425781,1.58203 0.105469,0.41406 0.105469,0.41797 0.210937,0.85547 0.425781,1.74609 0.105469,0.44141 0.105469,0.44531 0.210937,0.88281 0.425782,1.75 0.105468,0.42969 0.105469,0.42578 0.210938,0.82813 0.105468,0.40625 0.105469,0.39844 0.214844,0.76953 0.105469,0.37109 0.105468,0.35938 0.210938,0.68359 0.105469,0.32422 0.109375,0.30859 0.210937,0.57813 0.113281,0.28906 0.117188,0.26562 0.113281,0.25 0.113281,0.22657 0.117188,0.20312 0.113281,0.1836 0.117188,0.16015 0.113281,0.13672 0.117187,0.10938 0.113282,0.082 0.113281,0.0586 0.117187,0.0312 h 0.113282 l 0.117187,-0.0234 0.113281,-0.0586 0.113282,-0.0859 0.117187,-0.11719 0.113281,-0.14843 0.117188,-0.1836 0.113281,-0.21093 0.117188,-0.25 0.113281,-0.28125 0.113281,-0.31641 0.117188,-0.34766 0.113281,-0.38672 0.117187,-0.42187 0.113282,-0.46094 0.113281,-0.49219 0.117187,-0.53125 0.113282,-0.57031 0.230468,-1.2539 0.117188,-0.6836 0.113281,-0.72265 0.230469,-1.5586 0.113281,-0.83984 0.117188,-0.87891 0.230468,-1.87109 0.113282,-0.9961 0.113281,-1.03515 0.230469,-2.1875 0.460937,-4.83985 0.113281,-1.30859 0.117188,-1.34375 0.230469,-2.80078 0.457031,-6.03906 0.117187,-1.59766 0.113282,-1.63281 0.230468,-3.36719 0.460938,-7.12109 0.105469,-1.73047 0.105468,-1.75781 0.214844,-3.58985 0.429688,-7.45703 0.859375,-15.83203 1.714843,-33.77734 0.109375,-2.13672 0.105469,-2.13281 0.214844,-4.246099 0.429687,-8.410156 0.859375,-16.230469 0.105469,-1.949218 0.109375,-1.933594 0.214844,-3.800781 0.429687,-7.308594 0.105469,-1.761719 0.109375,-1.734375 0.214844,-3.378906 0.425781,-6.375 0.105469,-1.484375 0.105469,-1.445313 0.210937,-2.789062 0.105469,-1.34375 0.105469,-1.300781 0.210937,-2.496094 0.105469,-1.191406 0.105469,-1.148438 0.210937,-2.179687 0.105469,-1.027344 0.101562,-0.988281 0.210938,-1.84375 0.105469,-0.859375 0.105468,-0.8125 0.105469,-0.773438 0.105469,-0.722656 0.105469,-0.679688 0.105468,-0.636718 L 96.625,19.542969 96.730469,19 l 0.105469,-0.496094 0.105468,-0.453125 0.105469,-0.402343 0.101563,-0.355469 0.105468,-0.3125 0.105469,-0.261719 0.105469,-0.214844 0.105469,-0.164062 0.105468,-0.121094 0.105469,-0.07031 0.105469,-0.02344 0.105469,0.02344 0.105468,0.07422 0.105469,0.117188 0.105469,0.167969 0.105469,0.214843 0.105468,0.265625 0.101563,0.308594 0.105469,0.355469 0.105468,0.40625 0.105469,0.453125 0.105469,0.496094 0.105469,0.542968 0.105468,0.589844 0.105469,0.636719 0.105469,0.679687 0.210937,1.5 0.105469,0.8125 0.105469,0.859375 0.207031,1.847657 0.10547,0.988281 0.10547,1.027344 0.21094,2.179687 0.42187,4.839844 0.11328,1.414062 0.11328,1.460938 0.23047,3.046875 0.45703,6.570312 0.91016,14.820313 0.11328,1.988281 0.11719,2.015625 0.22656,4.101563 0.45703,8.464843 0.91406,17.691407 0.11329,2.257812 0.11328,2.261716 0.22656,4.53906 0.45703,9.09766 0.91406,17.97656 0.11328,2.20312 0.11329,2.1875 0.23046,4.33594 0.45704,8.45703 0.91015,15.85157 0.10938,1.73828 0.10547,1.71484 0.21093,3.35547 0.42578,6.375 0.10938,1.52344 0.10547,1.49218 0.21484,2.89844 0.42578,5.42578 0.10547,1.27344 0.10547,1.24609 0.21484,2.39063 0.10547,1.14844 0.10547,1.10937 0.21485,2.12891 0.10546,1.01172 0.10547,0.98047 0.21485,1.85546 0.42578,3.3086 0.10547,0.74609 0.10547,0.71094 0.21484,1.32031 0.10547,0.60938 0.10547,0.57812 0.21484,1.0586 0.10547,0.48046 0.10547,0.44922 0.10937,0.41797 0.10547,0.38672 0.10547,0.35547 0.10547,0.32812 0.10937,0.29297 0.10547,0.26563 0.10547,0.23828 0.10547,0.20703 0.10938,0.17969 0.10546,0.15234 0.10547,0.125 0.10938,0.0977 0.10547,0.0703 0.10547,0.0469 0.10546,0.0195 0.10938,-0.004 0.10547,-0.0312 0.10547,-0.0508 0.10547,-0.0742 0.10937,-0.0977 0.10547,-0.12109 0.10547,-0.14062 0.11719,-0.17579 0.11328,-0.19531 0.11718,-0.22265 0.11329,-0.24219 0.11718,-0.26172 0.11328,-0.28125 0.23438,-0.61719 0.11328,-0.33594 0.11719,-0.35156 0.23047,-0.74609 0.46093,-1.64844 0.11329,-0.4375 0.11718,-0.44531 0.23047,-0.91406 0.46094,-1.89454 0.92578,-3.83203 0.11328,-0.46484 0.11719,-0.46094 0.23047,-0.90625 0.46094,-1.70703 0.11328,-0.40234 0.11718,-0.39063 0.23047,-0.75 0.11719,-0.35156 0.11328,-0.34375 0.23047,-0.63672 0.11719,-0.29687 0.11328,-0.28125 0.11719,-0.26954 0.11328,-0.24609 0.11719,-0.23437 0.11718,-0.21485 0.11328,-0.19922 0.11719,-0.17968 0.11328,-0.16407 0.11719,-0.14453 0.11328,-0.125 0.11719,-0.10547 0.11328,-0.0898 0.11719,-0.0703 0.11328,-0.0508 0.11719,-0.0312 0.11328,-0.0117 0.11328,0.008 0.11328,0.0234 0.11328,0.0469 0.11328,0.0586 0.11328,0.082 0.11329,0.0977 0.11328,0.11719 0.11328,0.13281 0.11328,0.15235 0.11328,0.17187 0.11328,0.1836 0.11328,0.20312 0.11328,0.22266 0.22657,0.48828 0.11328,0.26562 0.11328,0.28516 0.22656,0.60937 0.45313,1.38282 0.11328,0.375 0.11328,0.39062 0.22656,0.80469 0.45313,1.71875 0.11328,0.44922 0.11328,0.45312 0.22656,0.92188 0.45313,1.88281 0.22656,0.94531 0.22656,0.94141 0.45313,1.83984 0.11328,0.44922 0.11328,0.4375 0.22656,0.85547 0.11328,0.41016 0.11328,0.40234 0.22657,0.76953 0.11328,0.36328 0.11328,0.34766 0.22656,0.65234 0.11328,0.30469 0.11328,0.28125 0.22657,0.51172 0.10546,0.21094 0.10547,0.1914 0.10938,0.17578 0.10547,0.15235 0.10547,0.13281 0.10546,0.11328 0.10547,0.0937 0.10547,0.0703 0.10547,0.043 0.10547,0.0234 h 0.10547 l 0.10547,-0.0234 0.10547,-0.0508 0.10546,-0.0742 0.10547,-0.10156 0.10547,-0.12891 0.10547,-0.15625 0.10547,-0.18359 0.10547,-0.21094 0.10547,-0.23828 0.10937,-0.26562 0.10547,-0.29688 0.10547,-0.32812 0.10547,-0.35547 0.10547,-0.39063 0.10547,-0.41797 0.10546,-0.44531 0.10547,-0.48047 0.10547,-0.51172 0.10547,-0.54687 0.21094,-1.18359 0.10547,-0.64063 0.10547,-0.67187 0.21093,-1.44532 0.10547,-0.76953 0.10547,-0.80469 0.21484,-1.71093 0.10547,-0.90235 0.10547,-0.9375 0.21094,-1.97656 0.42187,-4.34375 0.10547,-1.16797 0.10547,-1.19922 0.21094,-2.49609 0.42187,-5.37109 0.84766,-12.16016 0.11328,-1.78516 0.11719,-1.8164 0.22656,-3.71875 0.46094,-7.77344 0.91406,-16.67969 1.83594,-35.97656 0.11328,-2.28125 0.11328,-2.27344 0.23047,-4.539056 0.45703,-8.972656 0.91797,-17.246094 0.11719,-2.066406 0.11328,-2.039063 0.23047,-4.003906 0.45703,-7.660156 0.11328,-1.835938 0.11719,-1.800781 0.22656,-3.5 0.46094,-6.542969 0.10547,-1.4375 0.10547,-1.398437 0.21484,-2.683594 0.10937,-1.28125 0.10547,-1.246094 0.21485,-2.367187 0.10547,-1.121094 0.10546,-1.078125 0.21485,-2.027344 0.10937,-0.949218 0.10547,-0.90625 0.21485,-1.671875 0.10546,-0.769532 0.10938,-0.722656 0.10547,-0.675781 0.10547,-0.628906 0.10937,-0.582032 0.10547,-0.53125 0.10938,-0.484375 0.10546,-0.4375 0.10547,-0.390625 0.10938,-0.339843 0.10547,-0.289063 0.10547,-0.242187 0.10937,-0.191407 0.10547,-0.144531 0.10937,-0.09375 0.10547,-0.04297 0.10547,0.0039 0.10938,0.05469 0.10547,0.105469 0.10937,0.152344 0.10547,0.203125 0.10547,0.253906 0.10937,0.300781 0.10547,0.347656 0.10938,0.402344 0.10547,0.445313 0.10546,0.496093 0.10938,0.542969 0.10547,0.589844 0.10547,0.640625 0.21484,1.417969 0.10938,0.777343 0.10546,0.824219 0.21485,1.78125 0.10547,0.960938 0.10937,1 0.21094,2.132812 0.10937,1.132813 0.10547,1.171875 0.21485,2.464843 0.42578,5.394532 0.10547,1.414062 0.10547,1.449219 0.21093,2.996094 0.41797,6.371093 0.83985,14.0625 0.10546,1.863282 0.10547,1.886718 0.20703,3.828125 0.42188,7.859375 0.83984,16.320313 0.10547,2.074219 0.10156,2.082028 0.21094,4.17579 0.41797,8.35937 0.83984,16.5625 0.10547,2.03906 0.10547,2.02344 0.21094,4.01953 0.41797,7.875 0.83984,14.91406 0.11328,1.92188 0.11328,1.89453 0.22657,3.70312 0.45703,7.05469 0.11328,1.6836 0.11328,1.65234 0.22656,3.20312 0.45703,5.99219 0.11329,1.41016 0.11328,1.37109 0.23047,2.63672 0.11328,1.26172 0.11328,1.22266 0.22656,2.33203 0.11328,1.10937 0.11328,1.07031 0.23047,2.02735 0.11328,0.95703 0.11328,0.91797 0.22657,1.71875 0.11328,0.80078 0.11328,0.76562 0.23047,1.41407 0.11328,0.65234 0.11328,0.61328 0.22656,1.11328 0.11328,0.50391 0.11329,0.46484 0.11718,0.42969 0.11328,0.39844 0.11329,0.35937 0.11328,0.32813 0.11328,0.28906 0.11328,0.25781 0.11328,0.22657 0.11719,0.19531 0.11328,0.16015 0.11328,0.12891 0.11328,0.10156 0.11328,0.0703 0.11328,0.0391 0.11329,0.0117 0.11328,-0.0156 0.11718,-0.043 0.11329,-0.0703 0.11328,-0.0977 0.11328,-0.11718 0.11328,-0.14844 0.11328,-0.16797 0.11328,-0.19141 0.10938,-0.19531 0.10547,-0.21875 0.10546,-0.23047 0.10547,-0.2539 0.10547,-0.26563 0.10547,-0.28125 0.21484,-0.60937 0.10547,-0.32422 0.10547,-0.33985 0.21485,-0.71093 0.42187,-1.54297 0.10938,-0.40625 0.10546,-0.41406 0.21094,-0.84375 0.42578,-1.74219 0.84766,-3.53125 0.10547,-0.4336 0.10937,-0.42968 0.21094,-0.84375 0.42578,-1.60938 0.10547,-0.38672 0.10547,-0.375 0.21094,-0.72265 0.42578,-1.32032 0.10547,-0.30468 0.10937,-0.28907 0.21094,-0.53906 0.10547,-0.25 0.10547,-0.23828 0.21484,-0.42969 0.10547,-0.19531 0.10547,-0.17969 0.10547,-0.16406 0.10547,-0.14844 0.10937,-0.13281 0.10547,-0.11719 0.10547,-0.10156 0.10547,-0.0859 0.11718,-0.0781 0.11329,-0.0547 0.11718,-0.0391 0.11328,-0.0156 h 0.11329 l 0.11718,0.0195 0.11328,0.0391 0.11719,0.0586 0.11328,0.0781 0.11719,0.0937 0.11328,0.11328 0.11719,0.13281 0.11328,0.15234 0.11719,0.16797 0.11328,0.1875 0.11719,0.20703 0.11328,0.21875 0.11328,0.24219 0.23047,0.52344 0.11719,0.28906 0.11328,0.30078 0.23047,0.64844 0.11718,0.34375 0.11328,0.35937 0.23047,0.75391 0.46094,1.64063 0.11328,0.43359 0.11719,0.44141 0.23047,0.90625 0.46094,1.875 0.11328,0.48046 0.11718,0.47657 0.23047,0.96484 0.45703,1.90625 0.11719,0.46875 0.11328,0.46484 0.23047,0.90625 0.11719,0.44532 0.11328,0.43359 0.23047,0.83594 0.11719,0.40234 0.11328,0.39063 0.23047,0.73828 0.11718,0.34375 0.11329,0.33203 0.23046,0.60547 0.11329,0.27344 0.11328,0.25 0.11328,0.23437 0.11328,0.21094 0.11328,0.1914 0.10938,0.16797 0.11328,0.14453 0.11328,0.1211 0.11328,0.0977 0.11328,0.0703 0.11328,0.043 0.11328,0.0195 0.11328,-0.008 0.11329,-0.0391 0.11328,-0.0664 0.11328,-0.0937 0.11328,-0.12891 0.11328,-0.15625 0.11328,-0.1875 0.10938,-0.21875 0.11328,-0.25391 0.11328,-0.28515 0.11328,-0.31641 0.11328,-0.35156 0.11328,-0.38672 0.11328,-0.42188 0.11329,-0.45703 0.11328,-0.49218 0.11328,-0.52735 0.11328,-0.5664 0.22656,-1.23829 0.10938,-0.67578 0.11328,-0.71093 0.22656,-1.53516 0.11328,-0.82422 0.11328,-0.86328 0.22657,-1.83984 0.11328,-0.97657 0.11328,-1.01562 0.22656,-2.14063 0.44922,-4.73828 0.11328,-1.27734 0.11328,-1.3125 0.22656,-2.73438 0.45313,-5.89843 0.11328,-1.5586 0.11328,-1.59765 0.22656,-3.28516 0.44922,-6.94922 0.10547,-1.6875 0.10547,-1.71484 0.21094,-3.5 0.42187,-7.26953 0.84375,-15.45704 1.6875,-33.08984 0.10157,-2.09765 0.10546,-2.09766 0.21094,-4.183596 0.42188,-8.296875 0.84375,-16.085937 0.10547,-1.941407 0.10546,-1.925781 0.21094,-3.792969 0.42188,-7.320312 0.84375,-13.386719 0.11328,-1.664062 0.11328,-1.628907 0.23047,-3.140625 0.11328,-1.503906 0.11328,-1.464844 0.23047,-2.800781 0.11328,-1.332031 0.11328,-1.285156 0.23047,-2.429688 0.11328,-1.144531 0.11328,-1.09375 0.23047,-2.039063 0.11328,-0.941406 0.11328,-0.894531 0.11719,-0.839844 0.11328,-0.785156 0.11328,-0.734375 0.11329,-0.679688 0.11718,-0.628906 0.11328,-0.570312 0.11329,-0.515625 0.11718,-0.464844 0.11328,-0.40625 0.11329,-0.351563 0.11328,-0.292968 0.11718,-0.238282 0.11329,-0.183593 0.11328,-0.125 0.11328,-0.07031 0.11719,-0.01563 0.11328,0.04297 0.11328,0.101562 0.11328,0.15625 0.11719,0.210938 0.11328,0.269531 0.11328,0.324219 0.11328,0.378906 0.11719,0.4375 0.11328,0.492188 0.11328,0.542968 0.11328,0.601563 0.11719,0.65625 0.22656,1.46875 0.11719,0.816406 0.11328,0.867188 0.22656,1.886718 0.11719,1.023438 0.11328,1.070312 0.22656,2.289063 0.11719,1.21875 0.11328,1.261719 0.22657,2.667968 0.45703,5.859375 0.10937,1.464844 0.10547,1.5 0.21484,3.097656 0.42579,6.582032 0.85156,14.492187 0.10937,1.917969 0.10547,1.941406 0.21485,3.929688 0.42578,8.066406 0.85156,16.687503 0.10937,2.12109 0.10547,2.1211 0.21485,4.25 0.42578,8.5 0.85156,16.76562 0.10938,2.05469 0.10546,2.04297 0.21485,4.04687 0.42578,7.90235 0.85156,14.88281 0.11719,1.90625 0.11328,1.875 0.23438,3.66015 0.46093,6.9375 0.11719,1.64844 0.11328,1.61719 0.23047,3.125 0.46484,5.80859 0.11329,1.35938 0.11718,1.32031 0.23047,2.52344 0.11719,1.20703 0.11328,1.16406 0.23438,2.21094 0.11328,1.04297 0.11718,1.00781 0.23047,1.89453 0.11328,0.88672 0.11719,0.84766 0.23047,1.57812 0.11719,0.72656 0.11328,0.69141 0.11719,0.65234 0.11718,0.61329 0.11329,0.57421 0.11718,0.53907 0.23047,0.96093 0.11719,0.42579 0.11328,0.39062 0.11719,0.35156 L 212,215 l 0.11719,0.28516 0.11718,0.25 0.11329,0.21484 0.11718,0.17969 0.11328,0.15234 0.11719,0.11719 0.11719,0.0859 0.11328,0.0547 0.11719,0.0273 0.11328,-0.004 0.11719,-0.0312 0.11328,-0.0625 0.11719,-0.0859 0.11718,-0.11328 0.11328,-0.13672 0.11719,-0.16015 0.11328,-0.1875 0.11719,-0.21094 0.11719,-0.23047 0.11328,-0.25 0.11328,-0.26562 0.11328,-0.28516 0.22656,-0.625 0.11329,-0.33594 0.11718,-0.35156 0.22657,-0.74609 0.11328,-0.39063 0.11328,-0.40234 0.22656,-0.83594 0.45313,-1.77734 0.22656,-0.92188 0.22656,-0.94141 0.45703,-1.89453 0.90625,-3.67578 0.11328,-0.43359 0.11328,-0.42578 0.22657,-0.82422 0.11328,-0.39844 0.11328,-0.38672 0.22656,-0.73828 0.11328,-0.35156 0.11328,-0.33985 0.23047,-0.63281 0.11328,-0.29687 0.11329,-0.28125 0.22656,-0.51953 0.11328,-0.23438 0.11328,-0.21875 0.11328,-0.19922 0.11328,-0.18359 0.11328,-0.16797 0.11329,-0.14844 0.11328,-0.13281 0.11328,-0.11328 0.11328,-0.0977 0.11328,-0.0742 0.11328,-0.0625 0.11328,-0.0391 0.11719,-0.0234 h 0.11328 l 0.11328,0.0117 0.11328,0.0352 0.10547,0.0469 0.10547,0.0664 0.10547,0.0781 0.10547,0.0977 0.10547,0.10938 0.10547,0.1289 0.10547,0.14063 0.10937,0.16015 0.10547,0.17188 0.10547,0.1875 0.10547,0.20312 0.10547,0.21485 0.10546,0.23047 0.10547,0.24609 0.21094,0.52734 0.10547,0.28516 0.10937,0.29687 0.21094,0.625 0.42188,1.38672 0.10547,0.3711 0.10546,0.3789 0.21485,0.78125 0.42187,1.64844 0.10547,0.42578 0.10547,0.42969 0.21094,0.87109 0.42578,1.76563 0.21094,0.88281 0.21093,0.87891 0.42579,1.71093 0.10546,0.41797 0.10547,0.40625 0.21094,0.79688 0.10547,0.38281 0.10547,0.37891 0.21484,0.71875 0.10547,0.34375 0.10547,0.33203 0.21094,0.62109 0.10547,0.28906 0.10546,0.27344 0.21094,0.50391 0.11719,0.24219 0.11328,0.22265 0.11719,0.19922 0.11328,0.17969 0.11328,0.15234 0.11719,0.12891 0.11328,0.10547 0.11328,0.0781 0.11719,0.0508 0.11328,0.0273 0.11719,-0.004 0.11328,-0.0352 0.11328,-0.0625 0.11719,-0.0937 0.11328,-0.12109 0.11719,-0.15625 0.11328,-0.1875 0.11328,-0.21875 0.11719,-0.25391 0.11328,-0.28906 0.11718,-0.32422 0.11329,-0.35547 0.11328,-0.39453 0.11718,-0.42578 0.11329,-0.46484 0.11328,-0.50391 0.11718,-0.53906 0.11329,-0.57422 0.11718,-0.61328 0.11328,-0.65234 0.23047,-1.42188 0.11328,-0.76562 0.11719,-0.80469 0.22656,-1.73047 0.11719,-0.92188 0.11328,-0.96484 0.23047,-2.04297 0.11328,-1.07812 0.11719,-1.1211 0.22656,-2.35156 0.46094,-5.16797 0.11328,-1.38672 0.11719,-1.42578 0.22656,-2.95703 0.46094,-6.33984 0.91797,-14.25391 0.10937,-1.78906 0.10547,-1.8125 0.21485,-3.69141 0.42968,-7.64062 0.85547,-16.10938 1.71485,-33.91406 0.10937,-2.125 0.10547,-2.117187 0.21484,-4.210938 0.42969,-8.3125 0.85547,-15.914062 0.10937,-1.902344 0.10547,-1.882813 0.21485,-3.6875 0.42968,-7.066406 0.10547,-1.695312 0.10938,-1.664063 0.21094,-3.234375 0.42968,-6.070312 0.10547,-1.402344 0.10547,-1.363281 0.21094,-2.621094 0.10547,-1.257813 0.10547,-1.214843 0.20703,-2.316407 0.10547,-1.097656 0.10546,-1.058594 0.21094,-1.988281 0.10547,-0.929687 0.10547,-0.890625 0.21094,-1.648438 0.10156,-0.757812 0.10547,-0.710938 0.10547,-0.667969 0.10547,-0.621093 0.10546,-0.578125 0.10547,-0.53125 0.10547,-0.484375 0.10547,-0.4375 0.10547,-0.390625 0.10547,-0.34375 0.10156,-0.300782 0.10547,-0.25 0.10547,-0.199218 0.10547,-0.15625 0.10547,-0.105469 0.10546,-0.0625 0.10547,-0.01172 0.10547,0.03516 0.10547,0.08594 0.10547,0.132812 0.10156,0.175782 0.10547,0.226562 0.10547,0.273438 0.10547,0.324218 0.10547,0.367188 0.10547,0.414062 0.10546,0.460938 0.10547,0.507812 0.10547,0.554688 0.10156,0.601562 0.21094,1.335938 0.10547,0.734375 0.10547,0.78125 0.21094,1.691406 0.10547,0.910156 0.10546,0.953125 0.20704,2.03125 0.10546,1.078125 0.10547,1.117188 0.21094,2.355469 0.42188,5.171875 0.11328,1.5 0.11328,1.546875 0.22656,3.207031 0.45703,6.867187 0.91406,15.304688 0.11329,2.039062 0.11328,2.058594 0.22656,4.191406 0.45703,8.605469 0.91016,17.85156 0.11718,2.26562 0.11329,2.26953 0.22656,4.54297 0.45703,9.07422 0.91016,17.81641 0.11718,2.17187 0.11328,2.16016 0.22657,4.26172 0.45703,8.29297 0.91015,15.42968 0.10938,1.6836 0.10547,1.65625 0.21094,3.23828 0.42578,6.1289 0.10547,1.45704 0.10937,1.42968 0.21094,2.76563 0.42578,5.15234 0.10547,1.20703 0.10547,1.17578 0.21484,2.25 0.10547,1.07422 0.10547,1.04297 0.21484,1.98438 0.10547,0.9414 0.10547,0.90625 0.21484,1.71485 0.10547,0.80859 0.10547,0.77344 0.21484,1.44531 0.10547,0.67578 0.10547,0.64063 0.10547,0.60547 0.10938,0.57812 0.10546,0.53906 0.10547,0.51172 0.21485,0.92578 0.10547,0.41407 0.10546,0.38671 0.10547,0.35157 0.10547,0.32422 0.10938,0.29296 0.10547,0.26172 0.10546,0.23828 0.10547,0.20313 0.10938,0.17969 0.10547,0.14843 0.10547,0.125 0.10546,0.0937 0.10938,0.0703 0.10547,0.043 0.10547,0.0195 0.10547,-0.008 0.10546,-0.0273 0.10938,-0.0547 0.10547,-0.0742 0.10547,-0.10156 0.10547,-0.11719 0.10937,-0.14062 0.10547,-0.16406 0.10547,-0.17969 0.11719,-0.21875 0.11328,-0.23828 0.11718,-0.25781 0.11329,-0.28125 0.11718,-0.29688 0.11328,-0.31641 0.23047,-0.68359 0.11719,-0.36328 0.11328,-0.37891 0.23047,-0.79687 0.46094,-1.72266 0.11719,-0.45312 0.11328,-0.45703 0.23047,-0.9375 0.46093,-1.91407 0.92578,-3.79687 0.11329,-0.45703 0.11718,-0.44922 0.23047,-0.8711 0.11328,-0.42578 0.11719,-0.41406 0.23047,-0.79687 0.11328,-0.38282 0.11719,-0.36718 0.23047,-0.69922 0.11328,-0.32813 0.11719,-0.3164 0.23046,-0.58204 0.11329,-0.26953 0.11718,-0.25 0.11328,-0.23437 0.11719,-0.21875 0.11328,-0.20313 0.11719,-0.18359 0.11328,-0.16406 0.11719,-0.14844 0.11328,-0.12891 0.11719,-0.10937 0.11328,-0.0898 0.11719,-0.0742 0.11328,-0.0547 0.11719,-0.0352 0.11718,-0.0117 h 0.11328 l 0.11329,0.0234 0.11328,0.043 0.11328,0.0586 0.11328,0.0781 0.11328,0.0937 0.11328,0.11328 0.11328,0.13281 0.11328,0.14844 0.11329,0.16406 0.11328,0.1875 0.11328,0.19922 0.11328,0.21875 0.11328,0.23047 0.11328,0.25 0.22656,0.54687 0.11329,0.29297 0.11328,0.3125 0.22656,0.66016 0.44922,1.46875 0.11328,0.39844 0.11328,0.40625 0.22656,0.83984 0.45313,1.76953 0.11328,0.45703 0.11328,0.46094 0.22656,0.9375 0.45313,1.88672 0.11328,0.47266 0.11328,0.46875 0.22656,0.92968 0.45313,1.80078 0.11328,0.4336 0.11328,0.42578 0.22656,0.81641 0.11328,0.39062 0.11329,0.37891 0.22656,0.71875 0.11328,0.33984 0.11328,0.32031 0.11328,0.30469 0.11328,0.28516 0.11328,0.26953 0.10938,0.25 0.11328,0.23047 0.11328,0.20703 0.10547,0.17578 0.10547,0.15625 0.10937,0.13672 0.10547,0.11328 0.10547,0.0937 0.10547,0.0703 0.10547,0.0508 0.10547,0.0234 0.10547,0.004 0.10547,-0.0234 0.10546,-0.0469 0.10547,-0.0742 0.10547,-0.0977 0.10547,-0.12891 0.10547,-0.15234 0.10547,-0.17969 0.10547,-0.20703 0.10547,-0.23437 0.10546,-0.26563 0.10547,-0.29297 0.10547,-0.32422 0.10547,-0.35156 0.21094,-0.79687 0.10547,-0.44532 0.10547,-0.47656 0.21093,-1.04687 0.10547,-0.57032 0.10547,-0.60547 0.21094,-1.30468 0.10547,-0.69922 0.10547,-0.73438 0.21093,-1.5664 0.10547,-0.83594 0.10547,-0.86328 0.21094,-1.83203 0.10937,-0.96485 0.10547,-1 0.21094,-2.09375 0.42187,-4.58593 0.10547,-1.22657 0.10547,-1.25781 0.21094,-2.60937 0.42187,-5.58985 0.84375,-12.5625 0.11329,-1.83594 0.11718,-1.86328 0.22657,-3.8125 0.46093,-7.9414 0.91407,-16.9336 1.83203,-36.11328 0.11328,-2.269524 0.11719,-2.265625 0.22656,-4.507812 0.45703,-8.890625 0.91797,-16.972656 0.11328,-2.023438 0.11719,-1.996094 0.22656,-3.90625 0.45703,-7.445312 0.11719,-1.78125 0.11328,-1.742188 0.23047,-3.371093 0.45703,-6.277344 0.10547,-1.367188 0.10937,-1.332031 0.21094,-2.542969 0.10938,-1.214843 0.10546,-1.171875 0.21485,-2.21875 0.10547,-1.046875 0.10547,-1.003907 0.21484,-1.875 0.10937,-0.867187 0.10547,-0.828125 0.21485,-1.511719 0.10547,-0.6875 0.10546,-0.640625 0.10938,-0.59375 0.10547,-0.542969 0.10547,-0.5 0.10937,-0.449218 0.10547,-0.402344 0.10547,-0.351563 0.10937,-0.304687 0.10547,-0.253906 0.10938,-0.207032 0.10547,-0.15625 0.10547,-0.105468 0.10937,-0.05859 0.10547,-0.0078 0.10547,0.03906 0.10937,0.08984 0.10547,0.140625 0.10547,0.1875 0.10938,0.238281 0.10546,0.285156 0.10547,0.335938 0.10938,0.386718 0.10547,0.429688 0.10937,0.480469 0.10547,0.53125 0.10547,0.574218 0.10937,0.625 0.10547,0.671875 0.10547,0.71875 0.21485,1.570313 0.10546,0.855469 0.10938,0.898437 0.21484,1.933594 0.10547,1.03125 0.10547,1.074219 0.21484,2.273437 0.10547,1.199219 0.10938,1.238281 0.21094,2.59375 0.42968,5.644531 0.10547,1.46875 0.10156,1.503907 0.21094,3.105468 0.41797,6.5625 0.83984,14.378907 1.67579,32.074212 0.10546,2.08203 0.10547,2.08594 0.20703,4.17188 0.42188,8.34765 0.83594,16.45703 0.10547,2.01563 0.10546,2.0039 0.20704,3.97266 0.42187,7.76172 0.83594,14.63672 0.11328,1.8789 0.11719,1.84766 0.22656,3.61328 0.45312,6.85938 0.11329,1.63281 0.11328,1.59765 0.23047,3.10157 0.45312,5.77343 0.11328,1.35157 0.11328,1.3164 0.22657,2.51953 0.11328,1.20313 0.11718,1.16797 0.22657,2.21484 0.11328,1.05078 0.11328,1.01563 0.22656,1.91015 0.11328,0.89844 0.11328,0.85938 0.23047,1.60156 0.11328,0.74609 0.11329,0.70703 0.11328,0.66797 0.11328,0.63282 0.11328,0.59375 0.11328,0.55859 0.22656,1.00781 0.11719,0.44922 0.11328,0.41016 0.11328,0.3789 0.11328,0.34375 0.11329,0.3125 0.11328,0.27344 0.11328,0.24609 0.11328,0.20704 0.11328,0.17968 0.11328,0.14844 0.11719,0.11328 0.11328,0.0859 0.11328,0.0547 0.11328,0.0273 h 0.11328 l 0.11329,-0.0273 0.11328,-0.0586 0.11328,-0.0781 0.11328,-0.10938 0.11328,-0.13281 0.11719,-0.15234 0.11328,-0.17969 0.11328,-0.19922 0.11328,-0.22266 0.10547,-0.22656 0.10547,-0.24219 0.21094,-0.53515 0.10937,-0.29297 0.10547,-0.30469 0.21094,-0.64844 0.10547,-0.34375 0.10547,-0.35546 0.21484,-0.7461 0.42187,-1.59375 0.10547,-0.41406 0.10938,-0.42188 0.21094,-0.85937 0.42578,-1.75781 0.84765,-3.51172 0.10547,-0.42578 0.10547,-0.42188 0.21094,-0.82422 0.42578,-1.5664 0.10547,-0.3711 0.10547,-0.35937 0.21484,-0.69531 0.42188,-1.25 0.10546,-0.28516 0.10938,-0.26953 0.10547,-0.25781 0.10547,-0.24219 0.10547,-0.23047 0.10546,-0.21484 0.21094,-0.38672 0.10938,-0.17188 0.10547,-0.15625 0.10546,-0.14062 0.10547,-0.125 0.10547,-0.10938 0.10547,-0.0937 0.10938,-0.082 0.10546,-0.0586 0.11329,-0.0508 0.11718,-0.0312 0.11328,-0.0117 0.11329,0.008 0.11718,0.0273 0.11328,0.0469 0.11719,0.0664 0.11328,0.082 0.11719,0.10156 0.11328,0.12109 0.11328,0.14063 0.11719,0.15625 0.11328,0.17578 0.11719,0.1914 0.23047,0.4375 0.11328,0.2461 0.11719,0.26172 0.22656,0.5664 0.11719,0.3086 0.11328,0.32031 0.23047,0.68359 0.11718,0.36328 0.11329,0.375 0.23046,0.78516 0.46094,1.69141 0.11328,0.4414 0.34375,1.375 0.46094,1.89453 0.11719,0.48047 0.11328,0.48047 0.23047,0.95703 0.46094,1.89063 0.11328,0.46094 0.11328,0.45703 0.23047,0.88672 0.11718,0.42968 0.11329,0.42188 0.23046,0.80469 0.11719,0.38671 0.11328,0.3711 0.23047,0.69922 0.11328,0.32422 0.11719,0.30468 0.23047,0.5625 0.10547,0.23047 0.10937,0.21875 0.10547,0.19531 0.10938,0.17969 0.10547,0.15625 0.10546,0.13672 0.10938,0.11328 0.10547,0.0937 0.10937,0.0703 0.10547,0.0469 0.10938,0.0234 0.10547,-0.004 0.10937,-0.0273 0.10547,-0.0547 0.10937,-0.0781 0.10547,-0.10937 0.10938,-0.13281 0.10547,-0.16016 0.10937,-0.19141 0.10547,-0.21875 0.10938,-0.25 0.10546,-0.28125 0.10938,-0.30859 0.10547,-0.33984 0.10937,-0.3711 0.10547,-0.40234 0.10938,-0.43359 0.10547,-0.46485 0.10937,-0.5 0.10547,-0.53125 0.21484,-1.16406 0.10938,-0.62891 0.10547,-0.66406 0.21484,-1.42969 0.10938,-0.76562 0.10546,-0.80078 0.21485,-1.70313 0.10547,-0.90234 0.10937,-0.9375 0.21485,-1.98047 0.42968,-4.35938 0.10547,-1.17578 0.10938,-1.21093 0.21484,-2.51563 0.42969,-5.42187 0.10547,-1.4336 0.10937,-1.46484 0.21485,-3.02344 0.42968,-6.39453 0.10547,-1.63672 0.10547,-1.66016 0.20703,-3.40234 0.42188,-7.08203 0.84375,-15.15234 1.68359,-32.8125 0.42188,-8.39063 0.42187,-8.335931 0.83984,-16.265625 0.10547,-1.976563 0.10547,-1.960937 0.21094,-3.863281 0.42187,-7.496094 0.83985,-13.824219 0.11719,-1.738281 0.11328,-1.699219 0.22656,-3.285156 0.11328,-1.582031 0.11719,-1.542969 0.22656,-2.960938 0.11328,-1.417968 0.11719,-1.371094 0.22656,-2.609375 0.11328,-1.230469 0.11719,-1.1875 0.22656,-2.230469 0.11328,-1.039062 0.11329,-0.988281 0.11718,-0.9375 0.11328,-0.886719 0.11329,-0.835938 0.11328,-0.78125 0.23047,-1.40625 0.11328,-0.621093 0.11328,-0.570313 0.11719,-0.511719 0.11328,-0.457031 0.11328,-0.402344 0.11328,-0.347656 0.11328,-0.289062 0.11719,-0.238282 0.11328,-0.175781 0.11328,-0.125 0.11328,-0.06641 0.11719,-0.0078 0.11328,0.04687 0.11328,0.101563 0.11328,0.15625 0.11719,0.21875 0.11328,0.269531 0.11328,0.328125 0.11328,0.382813 0.11329,0.4375 0.11718,0.492187 0.11328,0.546875 0.11329,0.605469 0.11328,0.65625 0.11718,0.710937 0.11329,0.761719 0.22656,1.683594 0.11328,0.921875 0.11719,0.972656 0.22656,2.09375 0.11328,1.121094 0.11719,1.167969 0.22656,2.480468 0.45703,5.511719 0.10547,1.386719 0.10938,1.421875 0.21093,2.953125 0.42578,6.304687 0.85547,14.035157 0.10547,1.867187 0.10547,1.894531 0.21484,3.84375 0.42579,7.917969 0.85156,16.5 0.10547,2.105469 0.10937,2.109377 0.21094,4.23437 0.42578,8.4961 0.85156,16.85937 0.10938,2.07422 0.10547,2.06641 0.21484,4.09765 0.42578,8.03125 0.85156,15.22266 0.11719,1.95703 0.11328,1.93359 0.23047,3.77735 0.46094,7.1875 0.11719,1.71875 0.11718,1.68359 0.23047,3.26172 0.46094,6.10547 0.11719,1.43359 0.11328,1.39453 0.23047,2.67969 0.11719,1.28125 0.11328,1.24219 0.23047,2.37109 0.11718,1.125 0.11719,1.08594 0.23047,2.05469 0.11328,0.96484 0.11719,0.92969 0.23047,1.73437 0.11718,0.8086 0.11329,0.76953 0.11718,0.73047 0.11328,0.69531 0.11719,0.65234 0.11328,0.61329 0.23047,1.11718 0.11719,0.5 0.11719,0.46485 0.11328,0.42578 0.11719,0.39062 0.11328,0.35547 0.11718,0.32031 0.11329,0.28516 0.11718,0.25 0.11719,0.21875 0.11328,0.18359 0.11719,0.14844 0.11328,0.1211 0.11719,0.0898 0.11328,0.0547 0.11719,0.0273 h 0.11328 l 0.11719,-0.0312 0.11718,-0.0547 0.11328,-0.0859 0.11719,-0.10938 0.11328,-0.13672 0.11719,-0.16015 0.11328,-0.1836 0.11719,-0.20703 0.11328,-0.22656 0.11328,-0.24219 0.22656,-0.54687 0.11329,-0.30079 0.11328,-0.32031 0.22656,-0.68359 0.11328,-0.36328 0.11328,-0.375 0.22656,-0.78907 0.45313,-1.70703 0.11328,-0.44531 0.11328,-0.45312 0.22656,-0.92188 0.45704,-1.88281 0.90625,-3.73438 0.11328,-0.44922 0.11328,-0.4414 0.22656,-0.85938 0.11328,-0.41797 0.11328,-0.41015 0.22657,-0.78516 0.11328,-0.3789 0.11328,-0.36329 0.22656,-0.69531 0.11328,-0.32422 0.11328,-0.3164 0.22657,-0.58203 0.11328,-0.26563 0.11328,-0.25391 0.11328,-0.23828 0.11328,-0.21875 0.11328,-0.20703 0.11328,-0.18359 0.11328,-0.17188 0.11329,-0.15234 0.11328,-0.13281 0.11328,-0.11719 0.11328,-0.10156 0.11328,-0.0781 0.11328,-0.0625 0.11328,-0.043 0.11328,-0.0273 0.11719,-0.008 0.10547,0.0117 0.10547,0.0273 0.10547,0.043 0.10547,0.0586 0.10547,0.0742 0.10546,0.0898 0.10547,0.10547 0.10547,0.1211 0.10547,0.13672 0.10547,0.15234 0.10547,0.16797 0.10547,0.18359 0.10547,0.19531 0.10937,0.21094 0.21094,0.46485 0.10547,0.2539 0.10547,0.26563 0.21093,0.57031 0.42188,1.28125 0.10547,0.34766 0.10547,0.35546 0.21484,0.7461 0.42187,1.58203 0.10547,0.41016 0.10547,0.41796 0.21094,0.85157 0.42578,1.74609 0.42188,1.76563 0.42187,1.74609 0.10547,0.42969 0.10547,0.42187 0.21094,0.82813 0.10546,0.40234 0.10938,0.39844 0.21094,0.76562 0.10547,0.3711 0.10546,0.35937 0.21094,0.6836 0.10547,0.32031 0.10547,0.30859 0.21094,0.57813 0.11718,0.28515 0.11329,0.26953 0.11328,0.2461 0.11718,0.22656 0.11329,0.20703 0.11328,0.1836 0.11718,0.15625 0.11329,0.13671 0.11718,0.10938 0.11328,0.0859 0.11329,0.0586 0.11718,0.0312 0.11328,0.004 0.11329,-0.0273 0.11718,-0.0547 0.11328,-0.0859 0.11329,-0.11719 0.11718,-0.14844 0.11328,-0.17968 0.11329,-0.21094 0.11718,-0.2461 0.11328,-0.27734 0.11719,-0.3125 0.11328,-0.35156 0.11328,-0.38281 0.11719,-0.41797 0.11328,-0.45703 0.11328,-0.49219 0.11719,-0.52735 0.11328,-0.5664 0.23047,-1.2461 0.11328,-0.67968 0.11328,-0.71485 0.23047,-1.55468 0.11719,-0.83204 0.11328,-0.875 0.23047,-1.86328 0.11328,-0.98828 0.11328,-1.03125 0.23047,-2.17578 0.45703,-4.81641 0.11719,-1.29687 0.11328,-1.33984 0.23047,-2.78516 0.45703,-6.01172 0.11719,-1.58984 0.11328,-1.625 0.23047,-3.35157 0.45703,-7.09375 0.10938,-1.72265 0.10546,-1.75 0.21485,-3.57813 0.42578,-7.42187 0.85937,-15.77735 1.71094,-33.68749 0.10938,-2.12891 0.10547,-2.12891 0.21484,-4.242186 0.42578,-8.398437 0.85938,-16.222657 0.10546,-1.953125 0.10938,-1.933593 0.21094,-3.800782 0.42968,-7.320312 0.85547,-13.289063 0.10547,-1.488281 0.10547,-1.453125 0.21094,-2.804687 0.10547,-1.347657 0.10156,-1.3125 0.21094,-2.511718 0.10547,-1.199219 0.10546,-1.160156 0.21094,-2.199219 0.10547,-1.039063 0.10156,-1 0.21094,-1.867187 0.10547,-0.871094 0.10547,-0.824219 0.10547,-0.785156 0.10547,-0.738281 0.10156,-0.695313 0.10547,-0.648437 0.21093,-1.160156 0.10547,-0.511719 0.10547,-0.464844 0.10547,-0.417969 0.10547,-0.375 0.10156,-0.324218 0.10547,-0.277344 0.10547,-0.230469 0.10547,-0.183594 0.10547,-0.136718 0.10547,-0.08984 0.10546,-0.03906 0.10547,0.0039 0.10157,0.05469 0.10546,0.101563 0.10547,0.152343 0.10547,0.195313 0.10547,0.246094 0.10547,0.289062 0.10547,0.339844 0.10156,0.386719 0.10547,0.429687 0.10547,0.480469 0.10547,0.523437 0.10547,0.570313 0.10546,0.617187 0.10547,0.664063 0.20703,1.457031 0.10547,0.792969 0.10547,0.839844 0.21094,1.808593 0.10547,0.96875 0.10547,1.007813 0.20703,2.140625 0.42187,4.761719 0.11328,1.398437 0.11329,1.4375 0.22656,3.007813 0.45703,6.496093 0.91016,14.679688 0.11328,1.972656 0.11718,2 0.22657,4.070313 0.45312,8.414062 0.91406,17.605469 0.11329,2.25 0.11328,2.257809 0.22656,4.52735 0.45703,9.07421 0.91016,17.96875 0.11328,2.20703 0.11328,2.19141 0.23047,4.33984 0.45312,8.48047 0.91407,15.91797 0.10546,1.75 0.10547,1.72656 0.21094,3.375 0.42578,6.42579 0.10547,1.53906 0.10938,1.50781 0.21093,2.92578 0.42578,5.48438 0.10547,1.29297 0.10547,1.26171 0.21485,2.42579 0.10546,1.16406 0.10547,1.13281 0.21094,2.16016 0.10938,1.03125 0.10546,1 0.21094,1.89453 0.42578,3.38672 0.10547,0.76172 0.10547,0.73046 0.21484,1.35938 0.10547,0.63281 0.10547,0.59766 0.21485,1.09765 0.10546,0.5 0.10547,0.46875 0.10547,0.4375 0.10547,0.41016 0.10938,0.375 0.10546,0.34375 0.10547,0.31641 0.10547,0.28515 0.10547,0.25391 0.10938,0.22656 0.10546,0.19922 0.10547,0.16797 0.10547,0.14453 0.10547,0.11719 0.10938,0.0859 0.10546,0.0625 0.10547,0.0391 0.10547,0.0117 0.10547,-0.0117 0.10938,-0.0352 0.10546,-0.0586 0.10547,-0.082 0.10547,-0.10547 0.10547,-0.125 0.12109,-0.16406 0.11719,-0.1875 0.1211,-0.21485 0.11718,-0.23437 0.11719,-0.26172 0.12109,-0.27735 0.23438,-0.62109 0.12109,-0.33594 0.11719,-0.35547 0.23828,-0.75781 0.47266,-1.67969 0.12109,-0.44921 0.11719,-0.45704 0.23828,-0.9375 0.47266,-1.9414 0.94922,-3.9375 0.11718,-0.48047 0.1211,-0.47266 0.23828,-0.92187 0.11719,-0.44922 0.11718,-0.44141 0.23828,-0.85156 0.11719,-0.40625 0.1211,-0.39844 0.23437,-0.7539 0.12109,-0.35547 0.11719,-0.33985 0.23828,-0.64062 0.11719,-0.29297 0.12109,-0.27734 0.11719,-0.26172 0.11719,-0.24219 0.12109,-0.22656 0.11719,-0.20703 0.12109,-0.1875 0.11719,-0.16797 0.11719,-0.14844 0.12109,-0.13281 0.11719,-0.10938 0.11719,-0.0898 0.12109,-0.0703 0.11719,-0.0508 0.11719,-0.0312 0.12109,-0.0117"
     transform="translate(-66,-5)"
     id="path1-9" /></g><path
   style="fill:#4d4d4d;stroke:#000000;stroke-width:1.6"
   d="M 529.75571,588.97078 V 557.51891"
   id="path3" /><text
   xml:space="preserve"
   style="font-style:normal;font-variant:normal;font-weight:normal;font-stretch:normal;font-size:31.8595px;line-height:0%;font-family:'Times New Roman';-inkscape-font-specification:Sans;letter-spacing:0px;word-spacing:0px;fill:#000000;fill-opacity:1;stroke:none;stroke-width:2.65496"
   x="-102.71671"
   y="-521.42719"
   id="text3019-09"
   transform="scale(1,-1)"><tspan
     sodipodi:role="line"
     id="tspan3021-4"
     x="-102.71671"
     y="-521.42719"
     style="font-style:italic;font-size:50.9754px;line-height:1.25;stroke-width:2.65496"><tspan
       style="font-style:normal"
       id="tspan2-8">-0.1</tspan></tspan></text><path
   style="fill:#4d4d4d;stroke:#000000;stroke-width:1.6"
   d="M -54.486515,588.97078 V 557.51891"
   id="path3-8" /></g></svg>
