<?xml version="1.0" encoding="UTF-8" standalone="no"?>
<svg
   xmlns:dc="http://purl.org/dc/elements/1.1/"
   xmlns:cc="http://creativecommons.org/ns#"
   xmlns:rdf="http://www.w3.org/1999/02/22-rdf-syntax-ns#"
   xmlns:svg="http://www.w3.org/2000/svg"
   xmlns="http://www.w3.org/2000/svg"
   xmlns:sodipodi="http://sodipodi.sourceforge.net/DTD/sodipodi-0.dtd"
   xmlns:inkscape="http://www.inkscape.org/namespaces/inkscape"
   width="91.529083mm"
   height="36.974503mm"
   viewBox="0 0 91.529081 36.974502"
   version="1.1"
   id="svg8"
   inkscape:version="0.92.4 (5da689c313, 2019-01-14)"
   sodipodi:docname="vec-comp.svg">
  <defs
     id="defs2">
    <marker
       inkscape:stockid="Arrow2Mend"
       orient="auto"
       refY="0"
       refX="0"
       id="Arrow2Mend"
       style="overflow:visible"
       inkscape:isstock="true">
      <path
         id="path862"
         style="fill:#d73f09;fill-opacity:1;fill-rule:evenodd;stroke:#d73f09;stroke-width:0.625;stroke-linejoin:round;stroke-opacity:1"
         d="M 8.7185878,4.0337352 -2.2072895,0.01601326 8.7185884,-4.0017078 c -1.7454984,2.3720609 -1.7354408,5.6174519 -6e-7,8.035443 z"
         transform="scale(-0.6)"
         inkscape:connector-curvature="0" />
    </marker>
    <marker
       inkscape:stockid="Arrow2Lend"
       orient="auto"
       refY="0"
       refX="0"
       id="Arrow2Lend"
       style="overflow:visible"
       inkscape:isstock="true">
      <path
         id="path856"
         style="fill:#000000;fill-opacity:1;fill-rule:evenodd;stroke:#000000;stroke-width:0.625;stroke-linejoin:round;stroke-opacity:1"
         d="M 8.7185878,4.0337352 -2.2072895,0.01601326 8.7185884,-4.0017078 c -1.7454984,2.3720609 -1.7354408,5.6174519 -6e-7,8.035443 z"
         transform="matrix(-1.1,0,0,-1.1,-1.1,0)"
         inkscape:connector-curvature="0" />
    </marker>
    <marker
       inkscape:isstock="true"
       style="overflow:visible"
       id="Arrow2Mend-4"
       refX="0"
       refY="0"
       orient="auto"
       inkscape:stockid="Arrow2Mend">
      <path
         transform="scale(-0.6)"
         d="M 8.7185878,4.0337352 -2.2072895,0.01601326 8.7185884,-4.0017078 c -1.7454984,2.3720609 -1.7354408,5.6174519 -6e-7,8.035443 z"
         style="fill:#d73f09;fill-opacity:1;fill-rule:evenodd;stroke:#d73f09;stroke-width:0.625;stroke-linejoin:round;stroke-opacity:1"
         id="path862-5"
         inkscape:connector-curvature="0" />
    </marker>
    <marker
       inkscape:isstock="true"
       style="overflow:visible"
       id="Arrow2Mend-48"
       refX="0"
       refY="0"
       orient="auto"
       inkscape:stockid="Arrow2Mend">
      <path
         transform="scale(-0.6)"
         d="M 8.7185878,4.0337352 -2.2072895,0.01601326 8.7185884,-4.0017078 c -1.7454984,2.3720609 -1.7354408,5.6174519 -6e-7,8.035443 z"
         style="fill:#000000;fill-opacity:1;fill-rule:evenodd;stroke:#000000;stroke-width:0.625;stroke-linejoin:round;stroke-opacity:1"
         id="path862-6"
         inkscape:connector-curvature="0" />
    </marker>
  </defs>
  <sodipodi:namedview
     id="base"
     pagecolor="#ffffff"
     bordercolor="#666666"
     borderopacity="1.0"
     inkscape:pageopacity="0.0"
     inkscape:pageshadow="2"
     inkscape:zoom="0.98994949"
     inkscape:cx="-104.8826"
     inkscape:cy="210.43144"
     inkscape:document-units="mm"
     inkscape:current-layer="layer1"
     inkscape:document-rotation="0"
     showgrid="false"
     fit-margin-top="0"
     fit-margin-left="0"
     fit-margin-right="0"
     fit-margin-bottom="0"
     inkscape:window-width="1920"
     inkscape:window-height="1001"
     inkscape:window-x="-9"
     inkscape:window-y="-9"
     inkscape:window-maximized="1" />
  <metadata
     id="metadata5">
    <rdf:RDF>
      <cc:Work
         rdf:about="">
        <dc:format>image/svg+xml</dc:format>
        <dc:type
           rdf:resource="http://purl.org/dc/dcmitype/StillImage" />
        <dc:title></dc:title>
      </cc:Work>
    </rdf:RDF>
  </metadata>
  <g
     inkscape:label="Layer 1"
     inkscape:groupmode="layer"
     id="layer1"
     transform="translate(-86.544083,-131.13439)">
    <path
       id="path833-8"
       d="M 86.844084,131.59881 176.652,167.4183"
       style="fill:#000000;stroke:#000000;stroke-width:1;stroke-linecap:butt;stroke-linejoin:miter;stroke-miterlimit:4;stroke-dasharray:none;stroke-opacity:1;marker-end:url(#Arrow2Mend-48)"
       sodipodi:nodetypes="cc"
       inkscape:connector-curvature="0" />
    <text
       id="text1256-7"
       y="146.37488"
       x="133.30701"
       style="font-size:8.98753643px;line-height:1.25;font-family:'Book Antiqua';-inkscape-font-specification:'Book Antiqua';letter-spacing:0px;word-spacing:0px;fill:#000000;fill-opacity:0.93333333;stroke-width:0.48147309"
       xml:space="preserve"><tspan
         style="fill:#000000;fill-opacity:0.93333333;stroke-width:0.48147309"
         y="146.37488"
         x="133.30701"
         id="tspan1254-8"
         sodipodi:role="line">14 m</tspan></text>
    <path
       style="fill:none;stroke:#000000;stroke-width:0.60000002;stroke-linecap:butt;stroke-linejoin:miter;stroke-miterlimit:4;stroke-dasharray:0.6, 1.8;stroke-dashoffset:0;stroke-opacity:1"
       d="m 86.844083,131.59881 v 36.51008"
       id="path1090"
       inkscape:connector-curvature="0" />
    <g
       transform="matrix(0.44580278,0,0,0.44580278,126.6192,13.634266)"
       aria-label="60o"
       style="font-style:normal;font-variant:normal;font-weight:normal;font-stretch:normal;font-size:19.31955147px;line-height:0%;font-family:'Times New Roman';-inkscape-font-specification:'Times New Roman, ';text-align:start;letter-spacing:0px;word-spacing:0px;text-anchor:start;fill:#000000;fill-opacity:1;stroke:none;stroke-width:0.42596927px;stroke-linecap:butt;stroke-linejoin:miter;stroke-opacity:1"
       id="text823-0-5-3-3-62-5">
      <path
         inkscape:connector-curvature="0"
         id="path1020"
         style="font-size:12.55770779px;baseline-shift:super;stroke-width:0.42596927px"
         d="m -56.616876,285.92066 q 0,0.91975 -0.490536,1.82111 -0.484403,0.90136 -1.355104,1.42869 -0.8707,0.52732 -1.692347,0.52732 -0.840042,0 -1.373499,-0.53345 -0.527326,-0.53959 -0.527326,-1.3919 0,-0.90136 0.515062,-1.80885 0.521194,-0.90749 1.385763,-1.43481 0.8707,-0.52733 1.680084,-0.52733 0.809383,0 1.330577,0.53346 0.527326,0.53345 0.527326,1.38576 z m -1.017861,-0.42309 q 0,-0.57024 -0.282058,-0.8707 -0.275926,-0.30658 -0.717408,-0.30658 -0.901359,0 -1.661689,1.29378 -0.754198,1.28766 -0.754198,2.56305 0,0.58251 0.294321,0.90136 0.294321,0.31272 0.741935,0.31272 0.864568,0 1.618767,-1.28153 0.76033,-1.28765 0.76033,-2.6121 z m -13.750559,5.46051 q 0,-2.18854 0.660337,-3.76392 0.660336,-1.5848 1.754607,-2.35834 0.849004,-0.61317 1.754608,-0.61317 1.471606,0 2.641345,1.49991 1.462173,1.85837 1.462173,5.03742 0,2.22628 -0.64147,3.78278 -0.641469,1.55651 -1.641407,2.26401 -0.990504,0.69807 -1.914975,0.69807 -1.830075,0 -3.04698,-2.16024 -1.028238,-1.82064 -1.028238,-4.38652 z m 1.848942,0.23584 q 0,2.64134 0.650903,4.31105 0.537702,1.40557 1.603673,1.40557 0.509403,0 1.056538,-0.4528 0.547136,-0.46224 0.830137,-1.53764 0.433935,-1.62254 0.433935,-4.57519 0,-2.18854 -0.452801,-3.65071 -0.339602,-1.08484 -0.877304,-1.53764 -0.386769,-0.31131 -0.933904,-0.31131 -0.64147,0 -1.141439,0.57544 -0.679203,0.78297 -0.924471,2.46211 -0.245267,1.67914 -0.245267,3.31112 z m -3.546949,-6.97127 v 0.34904 q -1.245206,0.12263 -2.037609,0.49997 -0.78297,0.3679 -1.556507,1.132 -0.764103,0.7641 -1.273506,1.70744 -0.499968,0.93391 -0.83957,2.22628 1.358406,-0.93391 2.726245,-0.93391 1.31124,0 2.273444,1.05654 0.962204,1.05654 0.962204,2.71681 0,1.60368 -0.971638,2.92435 -1.169738,1.60367 -3.094147,1.60367 -1.311239,0 -2.226276,-0.86787 -1.792341,-1.68857 -1.792341,-4.37708 0,-1.71688 0.688636,-3.26395 0.688637,-1.54707 1.962142,-2.74511 1.282939,-1.19804 2.452678,-1.61311 1.169738,-0.41507 2.179109,-0.41507 z m -5.867559,6.60336 q -0.169801,1.27351 -0.169801,2.05648 0,0.9056 0.330168,1.97158 0.339602,1.05653 0.999938,1.67914 0.481102,0.44336 1.169738,0.44336 0.820704,0 1.462173,-0.77353 0.650903,-0.77354 0.650903,-2.20741 0,-1.61311 -0.641469,-2.79228 -0.64147,-1.17917 -1.820642,-1.17917 -0.358468,0 -0.773536,0.15093 -0.405635,0.15094 -1.207472,0.6509 z" />
    </g>
  </g>
</svg>
