<?xml version="1.0" encoding="UTF-8" standalone="no"?>
<!-- Created with Inkscape (http://www.inkscape.org/) -->

<svg
   id="svg2"
   version="1.1"
   inkscape:version="1.4 (86a8ad7, 2024-10-11)"
   width="222.99545"
   height="485.44919"
   xml:space="preserve"
   sodipodi:docname="WallMirror.svg"
   inkscape:export-filename="WallMirror.png"
   inkscape:export-xdpi="96"
   inkscape:export-ydpi="96"
   xmlns:inkscape="http://www.inkscape.org/namespaces/inkscape"
   xmlns:sodipodi="http://sodipodi.sourceforge.net/DTD/sodipodi-0.dtd"
   xmlns="http://www.w3.org/2000/svg"
   xmlns:svg="http://www.w3.org/2000/svg"
   xmlns:rdf="http://www.w3.org/1999/02/22-rdf-syntax-ns#"
   xmlns:cc="http://creativecommons.org/ns#"
   xmlns:dc="http://purl.org/dc/elements/1.1/"><metadata
     id="metadata8"><rdf:RDF><cc:Work
         rdf:about=""><dc:format>image/svg+xml</dc:format><dc:type
           rdf:resource="http://purl.org/dc/dcmitype/StillImage" /><dc:title /></cc:Work></rdf:RDF></metadata><defs
     id="defs6"><marker
       inkscape:stockid="Arrow1Mend"
       orient="auto"
       refY="0"
       refX="0"
       id="Arrow1Mend"
       style="overflow:visible"><path
         id="path3804"
         d="M 0,0 5,-5 -12.5,0 5,5 0,0 z"
         style="fill-rule:evenodd;stroke:#000000;stroke-width:1pt"
         transform="matrix(-0.4,0,0,-0.4,-4,0)"
         inkscape:connector-curvature="0" /></marker><clipPath
       clipPathUnits="userSpaceOnUse"
       id="clipPath18"><path
         d="m 0,0 1677,0 0,937.891 -1677,0 L 0,0 z"
         id="path20"
         inkscape:connector-curvature="0" /></clipPath><marker
       inkscape:stockid="Arrow1Mend"
       orient="auto"
       refY="0"
       refX="0"
       id="Arrow1Mend-1"
       style="overflow:visible"><path
         inkscape:connector-curvature="0"
         id="path3804-7"
         d="M 0,0 5,-5 -12.5,0 5,5 0,0 z"
         style="fill-rule:evenodd;stroke:#000000;stroke-width:1pt"
         transform="matrix(-0.4,0,0,-0.4,-4,0)" /></marker><marker
       inkscape:stockid="Arrow1Mend"
       orient="auto"
       refY="0"
       refX="0"
       id="Arrow1Mend-0"
       style="overflow:visible"><path
         inkscape:connector-curvature="0"
         id="path3804-9"
         d="M 0,0 5,-5 -12.5,0 5,5 0,0 z"
         style="fill-rule:evenodd;stroke:#000000;stroke-width:1pt"
         transform="matrix(-0.4,0,0,-0.4,-4,0)" /></marker><marker
       inkscape:stockid="Arrow1Mend"
       orient="auto"
       refY="0"
       refX="0"
       id="Arrow1Mend-5"
       style="overflow:visible"><path
         inkscape:connector-curvature="0"
         id="path3804-1"
         d="M 0,0 5,-5 -12.5,0 5,5 0,0 z"
         style="fill-rule:evenodd;stroke:#000000;stroke-width:1pt"
         transform="matrix(-0.4,0,0,-0.4,-4,0)" /></marker><marker
       inkscape:stockid="Arrow1Mend"
       orient="auto"
       refY="0"
       refX="0"
       id="Arrow1Mend-5-4"
       style="overflow:visible"><path
         inkscape:connector-curvature="0"
         id="path3804-1-0"
         d="M 0,0 5,-5 -12.5,0 5,5 0,0 z"
         style="fill-rule:evenodd;stroke:#000000;stroke-width:1pt"
         transform="matrix(-0.4,0,0,-0.4,-4,0)" /></marker><marker
       inkscape:stockid="Arrow1Mend"
       orient="auto"
       refY="0"
       refX="0"
       id="Arrow1Mend-5-4-1"
       style="overflow:visible"><path
         inkscape:connector-curvature="0"
         id="path3804-1-0-7"
         d="M 0,0 5,-5 -12.5,0 5,5 0,0 z"
         style="fill-rule:evenodd;stroke:#000000;stroke-width:1pt"
         transform="matrix(-0.4,0,0,-0.4,-4,0)" /></marker><marker
       inkscape:stockid="Arrow1Mend"
       orient="auto"
       refY="0"
       refX="0"
       id="Arrow1Mend-5-4-1-1"
       style="overflow:visible"><path
         inkscape:connector-curvature="0"
         id="path3804-1-0-7-7"
         d="M 0,0 5,-5 -12.5,0 5,5 0,0 z"
         style="fill-rule:evenodd;stroke:#000000;stroke-width:1pt"
         transform="matrix(-0.4,0,0,-0.4,-4,0)" /></marker><marker
       inkscape:stockid="Arrow1Mend"
       orient="auto"
       refY="0"
       refX="0"
       id="Arrow1Mend-5-4-1-0"
       style="overflow:visible"><path
         inkscape:connector-curvature="0"
         id="path3804-1-0-7-9"
         d="M 0,0 5,-5 -12.5,0 5,5 0,0 z"
         style="fill-rule:evenodd;stroke:#000000;stroke-width:1pt"
         transform="matrix(-0.4,0,0,-0.4,-4,0)" /></marker><marker
       inkscape:stockid="Arrow1Mend"
       orient="auto"
       refY="0"
       refX="0"
       id="marker4057"
       style="overflow:visible"><path
         inkscape:connector-curvature="0"
         id="path4059"
         d="M 0,0 5,-5 -12.5,0 5,5 0,0 z"
         style="fill-rule:evenodd;stroke:#000000;stroke-width:1pt"
         transform="matrix(-0.4,0,0,-0.4,-4,0)" /></marker><marker
       inkscape:stockid="Arrow1Mend"
       orient="auto"
       refY="0"
       refX="0"
       id="Arrow1Mend-5-4-1-2"
       style="overflow:visible"><path
         inkscape:connector-curvature="0"
         id="path3804-1-0-7-4"
         d="M 0,0 5,-5 -12.5,0 5,5 0,0 z"
         style="fill-rule:evenodd;stroke:#000000;stroke-width:1pt"
         transform="matrix(-0.4,0,0,-0.4,-4,0)" /></marker><marker
       inkscape:stockid="Arrow1Mend"
       orient="auto"
       refY="0"
       refX="0"
       id="marker4092"
       style="overflow:visible"><path
         inkscape:connector-curvature="0"
         id="path4094"
         d="M 0,0 5,-5 -12.5,0 5,5 0,0 z"
         style="fill-rule:evenodd;stroke:#000000;stroke-width:1pt"
         transform="matrix(-0.4,0,0,-0.4,-4,0)" /></marker><marker
       inkscape:stockid="Arrow1Mend"
       orient="auto"
       refY="0"
       refX="0"
       id="marker4096"
       style="overflow:visible"><path
         inkscape:connector-curvature="0"
         id="path4098"
         d="M 0,0 5,-5 -12.5,0 5,5 0,0 z"
         style="fill-rule:evenodd;stroke:#000000;stroke-width:1pt"
         transform="matrix(-0.4,0,0,-0.4,-4,0)" /></marker><marker
       inkscape:stockid="Arrow1Mend"
       orient="auto"
       refY="0"
       refX="0"
       id="marker4100"
       style="overflow:visible"><path
         inkscape:connector-curvature="0"
         id="path4102"
         d="M 0,0 5,-5 -12.5,0 5,5 0,0 z"
         style="fill-rule:evenodd;stroke:#000000;stroke-width:1pt"
         transform="matrix(-0.4,0,0,-0.4,-4,0)" /></marker></defs><sodipodi:namedview
     pagecolor="#ffffff"
     bordercolor="#666666"
     borderopacity="1"
     objecttolerance="10"
     gridtolerance="10"
     guidetolerance="10"
     inkscape:pageopacity="0"
     inkscape:pageshadow="2"
     inkscape:window-width="2880"
     inkscape:window-height="1514"
     id="namedview4"
     showgrid="false"
     fit-margin-top="0"
     fit-margin-left="0"
     fit-margin-right="0"
     fit-margin-bottom="0"
     inkscape:zoom="1.1473198"
     inkscape:cx="239.25326"
     inkscape:cy="252.32721"
     inkscape:window-x="-11"
     inkscape:window-y="-11"
     inkscape:window-maximized="1"
     inkscape:current-layer="g10"
     inkscape:showpageshadow="2"
     inkscape:pagecheckerboard="0"
     inkscape:deskcolor="#d1d1d1" /><g
     id="g10"
     inkscape:groupmode="layer"
     inkscape:label="ink_ext_XXXXXX"
     transform="matrix(1.25,0,0,-1.25,30.891702,242.41043)">









































































<path
   sodipodi:type="arc"
   style="color:#000000;fill:#d73f09;fill-opacity:1;fill-rule:nonzero;stroke:none;stroke-width:1;marker:none;visibility:visible;display:inline;overflow:visible;enable-background:accumulate"
   id="path3008"
   sodipodi:cx="31.043922"
   sodipodi:cy="21.045729"
   sodipodi:rx="8.9796467"
   sodipodi:ry="8.9796467"
   d="m 40.023569,21.045729 c 0,4.959322 -4.020325,8.979646 -8.979647,8.979646 -4.959321,0 -8.979646,-4.020324 -8.979646,-8.979646 0,-4.959322 4.020325,-8.979647 8.979646,-8.979647 4.959322,0 8.979647,4.020325 8.979647,8.979647 z"
   transform="matrix(0.97964961,0,0,-0.97964961,-34.891133,43.653905)" /><path
   style="fill:none;stroke:#000000;stroke-width:3.17648339;stroke-linecap:butt;stroke-linejoin:miter;stroke-miterlimit:4;stroke-opacity:1;stroke-dasharray:none"
   d="m -7.2005365,-46.129049 144.5450265,0"
   id="path3020"
   inkscape:connector-curvature="0" /><path
   sodipodi:type="arc"
   style="color:#000000;fill:#000000;fill-opacity:1;fill-rule:nonzero;stroke:none;stroke-width:1.5;marker:none;visibility:visible;display:inline;overflow:visible;enable-background:accumulate"
   id="path3040-4"
   sodipodi:cx="268.26108"
   sodipodi:cy="113.87666"
   sodipodi:rx="23.72377"
   sodipodi:ry="23.72377"
   d="m 291.98485,113.87666 c 0,13.10228 -10.6215,23.72377 -23.72377,23.72377 -13.10228,0 -23.72377,-10.62149 -23.72377,-23.72377 0,-13.10227 10.62149,-23.723767 23.72377,-23.723767 13.10227,0 23.72377,10.621497 23.72377,23.723767 z"
   transform="matrix(0.18461541,0,0,-0.18461541,33.371001,96.569436)" /><path
   sodipodi:type="arc"
   style="color:#000000;fill:#000000;fill-opacity:1;fill-rule:nonzero;stroke:none;stroke-width:1.5;marker:none;visibility:visible;display:inline;overflow:visible;enable-background:accumulate"
   id="path3040-0"
   sodipodi:cx="268.26108"
   sodipodi:cy="113.87666"
   sodipodi:rx="23.72377"
   sodipodi:ry="23.72377"
   d="m 291.98485,113.87666 c 0,13.10228 -10.6215,23.72377 -23.72377,23.72377 -13.10228,0 -23.72377,-10.62149 -23.72377,-23.72377 0,-13.10227 10.62149,-23.723767 23.72377,-23.723767 13.10227,0 23.72377,10.621497 23.72377,23.723767 z"
   transform="matrix(0.18461541,0,0,-0.18461541,83.574962,-122.99935)" /><text
   xml:space="preserve"
   style="font-style:normal;font-variant:normal;font-weight:normal;font-stretch:normal;line-height:0%;font-family:'Times New Roman';-inkscape-font-specification:Sans;letter-spacing:0px;word-spacing:0px;fill:#000000;fill-opacity:1;stroke:none"
   x="99.402"
   y="63.342861"
   id="text3019"
   transform="scale(1,-1)"><tspan
     sodipodi:role="line"
     id="tspan3021"
     x="99.402"
     y="63.342861"
     style="font-size:19.2px;line-height:1.25">mirror</tspan></text>
<path
   style="fill:none;stroke:#000000;stroke-width:2.4000001;stroke-linecap:butt;stroke-linejoin:miter;stroke-miterlimit:4;stroke-opacity:1;stroke-dasharray:none"
   d="M 28.279708,72.626197 78.13503,22.770874"
   id="path3023"
   inkscape:connector-curvature="0" /><text
   xml:space="preserve"
   style="font-style:normal;font-variant:normal;font-weight:normal;font-stretch:normal;line-height:0%;font-family:'Times New Roman';-inkscape-font-specification:Sans;letter-spacing:0px;word-spacing:0px;fill:#000000;fill-opacity:1;stroke:none"
   x="-15.139418"
   y="-56.372616"
   id="text3871"
   transform="matrix(0.70710678,-0.70710678,-0.70710678,-0.70710678,0,0)"><tspan
     sodipodi:role="line"
     id="tspan3873"
     x="-15.139418"
     y="-56.372616"
     style="font-size:19.2px;line-height:1.25">wall</tspan></text>
<path
   sodipodi:type="arc"
   style="color:#000000;fill:#000000;fill-opacity:1;fill-rule:nonzero;stroke:none;stroke-width:1.5;marker:none;visibility:visible;display:inline;overflow:visible;enable-background:accumulate"
   id="path3040-4-4"
   sodipodi:cx="268.26108"
   sodipodi:cy="113.87666"
   sodipodi:rx="23.72377"
   sodipodi:ry="23.72377"
   d="m 291.98485,113.87666 c 0,13.10228 -10.6215,23.72377 -23.72377,23.72377 -13.10228,0 -23.72377,-10.62149 -23.72377,-23.72377 0,-13.10227 10.62149,-23.723767 23.72377,-23.723767 13.10227,0 23.72377,10.621497 23.72377,23.723767 z"
   transform="matrix(0.18461541,0,0,-0.18461541,92.639565,77.045673)" /><path
   sodipodi:type="arc"
   style="color:#000000;fill:#000000;fill-opacity:1;fill-rule:nonzero;stroke:none;stroke-width:1.5;marker:none;visibility:visible;display:inline;overflow:visible;enable-background:accumulate"
   id="path3040-0-0"
   sodipodi:cx="268.26108"
   sodipodi:cy="113.87666"
   sodipodi:rx="23.72377"
   sodipodi:ry="23.72377"
   d="m 291.98485,113.87666 c 0,13.10228 -10.6215,23.72377 -23.72377,23.72377 -13.10228,0 -23.72377,-10.62149 -23.72377,-23.72377 0,-13.10227 10.62149,-23.723767 23.72377,-23.723767 13.10227,0 23.72377,10.621497 23.72377,23.723767 z"
   transform="matrix(0.18461541,0,0,-0.18461541,-30.778506,105.70758)" /><path
   sodipodi:type="arc"
   style="color:#000000;fill:#000000;fill-opacity:1;fill-rule:nonzero;stroke:none;stroke-width:1.5;marker:none;visibility:visible;display:inline;overflow:visible;enable-background:accumulate"
   id="path3040-4-9"
   sodipodi:cx="268.26108"
   sodipodi:cy="113.87666"
   sodipodi:rx="23.72377"
   sodipodi:ry="23.72377"
   d="m 291.98485,113.87666 c 0,13.10228 -10.6215,23.72377 -23.72377,23.72377 -13.10228,0 -23.72377,-10.62149 -23.72377,-23.72377 0,-13.10227 10.62149,-23.723767 23.72377,-23.723767 13.10227,0 23.72377,10.621497 23.72377,23.723767 z"
   transform="matrix(0.18461541,0,0,-0.18461541,96.594432,15.554537)" /></g></svg>
